<svg width="150" height="107" viewBox="0 0 150 107" fill="none" xmlns="http://www.w3.org/2000/svg">
<path d="M133.06 64.44C132.36 64.72 131.79 63.87 130.75 64.36C131.949 65.3047 133.024 66.3966 133.95 67.61C135.81 70.61 135.49 76.07 133.07 78.61C132.35 79.4211 131.412 80.0086 130.368 80.3028C129.324 80.5971 128.218 80.5857 127.18 80.27C125.66 79.85 125.43 80.39 125.46 81.7C125.54 83.0607 125.227 84.4156 124.559 85.6035C123.89 86.7914 122.895 87.7621 121.69 88.4C119 90 114 89 112.19 85.87C110.99 83.87 110.89 83.81 109.71 85.76C109.035 86.6632 108.189 87.4244 107.22 88C106.066 88.6205 104.789 88.9782 103.48 89.0473C102.171 89.1165 100.863 88.8954 99.65 88.4V88.4C98.9784 88.3113 98.3364 88.0683 97.7743 87.6901C97.2122 87.3119 96.7453 86.8087 96.41 86.22C96.41 84.59 97.54 84.12 98.81 83.8C99.5531 83.6754 100.308 83.6351 101.06 83.68C101.468 83.678 101.873 83.7422 102.26 83.87C103.72 84.37 103.35 85.62 103.17 86.7C104.25 86.81 104.4 86.09 104.71 85.59C105.646 83.8647 107.028 82.4215 108.71 81.41C109.117 81.238 109.451 80.9287 109.654 80.5359C109.857 80.1431 109.916 79.6916 109.82 79.26C109.651 78.2648 109.674 77.2463 109.89 76.26C110.38 74.26 111.89 73.82 113.55 75.12C113.71 75.5301 113.84 75.9512 113.94 76.38C114.61 78.3 116.03 78.7 117.6 77.38C118.66 76.474 119.609 75.447 120.43 74.32C120.779 73.8386 121.227 73.4383 121.745 73.1466C122.263 72.8549 122.838 72.6786 123.43 72.63C126.12 72.27 126.32 72.1 126.43 69.28C126.62 65.05 126.29 60.81 126.43 56.58C126.43 56.11 126.36 55.58 125.87 55.48C124.34 54.98 123.29 53.68 121.77 53.14C119.77 52.43 119.6 51.21 121.17 49.76C122.26 48.7041 123.208 47.5107 123.99 46.21C124.441 45.5126 124.673 44.6965 124.657 43.8663C124.641 43.036 124.377 42.2295 123.9 41.55C123.558 40.8315 123 40.2374 122.305 39.8503C121.61 39.4632 120.811 39.3023 120.02 39.39C118.59 39.51 117.14 39.29 115.68 39.39C114.68 39.47 113.6 39.24 114.5 37.77C115.013 37.9342 115.564 37.9328 116.075 37.7658C116.587 37.5989 117.033 37.2749 117.35 36.84C118.61 35.28 120.59 35.28 122.35 34.7C122.518 34.6397 122.702 34.6397 122.87 34.7C124.53 36.03 126.4 37.11 127.68 38.86C129.28 41.04 129.2 42.57 127.43 44.61C126.26 45.97 126.26 46.08 127.79 46.9C128.373 47.1387 128.867 47.5551 129.2 48.09C127.34 50.09 128.6 51.09 130.2 52.49C131.274 53.3838 132.071 54.5642 132.5 55.8939C132.928 57.2235 132.97 58.6476 132.62 60C132.12 62 132.91 62.45 134.39 62.86C134.61 62.9613 134.816 63.0925 135 63.25C133.17 63.93 131.88 63.25 131.06 61.19C130.54 62.19 130.87 62.73 131.74 63.19C132.28 63.47 133.17 63.45 133.06 64.44Z" fill="#DF9487"/>
<path d="M54.43 103.18C57.5 101.93 57.43 101.93 57.51 98.35C57.3837 95.8962 57.4807 93.4361 57.8 91C57.9908 90.2019 57.9094 89.363 57.5688 88.6165C57.2282 87.87 56.6478 87.2588 55.92 86.88C55.42 86.54 54.92 85.97 54.44 86.88C54.2952 86.9847 54.1728 87.1173 54.08 87.27C53.73 87.73 53.7 88.35 53.31 88.78C52.05 91.36 49.55 92.02 47.12 92.44C44.87 92.84 42.48 93.01 40.29 91.86C41.01 91.06 41.92 91.38 42.77 91.5C44.1474 91.8118 45.5886 91.6716 46.88 91.1C44.64 92.1 42.63 90.52 40.45 90.7C40.0015 90.7273 39.5537 90.6375 39.1505 90.4393C38.7472 90.2412 38.4024 89.9416 38.15 89.57C37.9995 89.4274 37.8811 89.2543 37.8027 89.0624C37.7243 88.8705 37.6876 88.6641 37.6952 88.4569C37.7028 88.2497 37.7544 88.0465 37.8466 87.8608C37.9388 87.6751 38.0695 87.5112 38.23 87.38C38.23 87.38 38.11 87.38 38.04 87.38C36.65 87.51 36.52 86.52 36.48 85.55C36.5569 84.2181 36.9549 82.9247 37.64 81.78C38.2018 80.6854 38.6186 79.5222 38.88 78.32C38.02 78.89 37.78 80.32 36.67 80.02C35.4 79.72 35.2 78.39 34.84 77.34C34.41 76.08 34.5 74.71 34.07 73.16C33.7507 74.2046 33.7824 75.325 34.16 76.35C34.88 79.09 35.84 81.78 35.24 84.7C35.1952 85.3891 35.3295 86.0781 35.63 86.7C35.86 87.42 36.1 88.17 35.4 88.8C33.91 87.08 33.4 89.18 32.4 89.55C31.68 88.45 33.13 87.95 33.08 86.77C32.7034 87.2984 32.219 87.741 31.6588 88.0685C31.0985 88.396 30.4752 88.601 29.83 88.67C29.1738 88.6951 28.5195 88.5857 27.9072 88.3483C27.2949 88.111 26.7378 87.7508 26.27 87.29C26.14 87.18 26.01 87.07 25.89 86.95L25.7 86.79C25.56 86.69 25.43 86.58 25.3 86.47C24.8775 86.1646 24.4766 85.8304 24.1 85.47C23.8994 85.2813 23.7216 85.0699 23.57 84.84C23.1947 84.0707 23.0456 83.2107 23.14 82.36C23.14 80.65 24.25 79.16 24.14 77.44L24 77C23.93 76.88 23.86 76.75 23.78 76.64C23.7258 76.6017 23.6756 76.5582 23.63 76.51C23.2 76.36 23.26 76.71 23.2 76.93C23.14 77.15 23.06 77.32 23.09 77.48C23.53 79.23 22.63 80.58 21.8 81.96C21.727 82.0065 21.64 82.026 21.5541 82.0151C21.4683 82.0041 21.3889 81.9634 21.33 81.9C21.295 81.5241 21.295 81.1458 21.33 80.77C21.56 79.43 21.16 78.92 19.71 79.21C19.2616 79.3845 18.7691 79.4106 18.3048 79.2847C17.8404 79.1587 17.4287 78.8872 17.13 78.51C17.2284 78.3698 17.3633 78.2591 17.52 78.19C17.8483 78.1082 18.1917 78.1082 18.52 78.19C18.8658 78.3154 19.2395 78.3431 19.6 78.27C19.7242 78.2148 19.8444 78.1514 19.96 78.08C20.23 77.5 19.64 77.61 19.43 77.43L19 77.24L18.32 77C17.771 76.823 17.2567 76.5523 16.8 76.2C16.6096 76.0495 16.4471 75.8667 16.32 75.66C16.2335 75.5303 16.1661 75.3889 16.12 75.24L15.89 74.61C15.82 74.47 15.76 74.33 15.7 74.2C15.64 74.07 15.48 73.78 15.38 73.57C15.2987 73.424 15.2253 73.2738 15.16 73.12C15.0482 72.8829 14.961 72.6349 14.9 72.38C14.7299 71.4678 14.7299 70.5321 14.9 69.62C15.09 68.77 15.6 67.98 15.33 67.06C15.2719 66.7147 15.3225 66.3599 15.4748 66.0446C15.627 65.7293 15.8735 65.4691 16.18 65.3C16.3682 65.165 16.5251 64.9911 16.64 64.79C16.7088 64.668 16.7415 64.529 16.7344 64.3892C16.7273 64.2493 16.6807 64.1144 16.6 64C16.545 63.9893 16.4913 63.9726 16.44 63.95H16.27C16.27 63.95 16.11 64.02 16.11 64.03L15.8 64.28L15.64 64.4C15.517 64.4762 15.3816 64.5304 15.24 64.56C15.1686 64.5607 15.098 64.5449 15.0337 64.5136C14.9695 64.4824 14.9135 64.4366 14.87 64.38C14.9594 63.9264 15.2128 63.5217 15.5817 63.2431C15.9507 62.9646 16.4093 62.8317 16.87 62.87C17.52 62.62 18.04 62.07 18.78 62.01C19.13 62.11 19.45 62.37 20 62.14C19.3295 61.2427 18.7939 60.2522 18.41 59.2C18.2095 58.7055 18.1131 58.175 18.1268 57.6416C18.1406 57.1082 18.2642 56.5834 18.49 56.1C19.49 54.26 20.23 52.3 22.13 51.1C23.26 50.39 24.65 50.96 25.74 50.21C25.8971 50.238 26.0468 50.2981 26.1796 50.3866C26.3124 50.4751 26.4255 50.5901 26.5119 50.7243C26.5982 50.8585 26.6559 51.0091 26.6814 51.1667C26.7069 51.3242 26.6996 51.4854 26.66 51.64C26.6145 51.9216 26.4693 52.1775 26.2508 52.3611C26.0324 52.5447 25.7553 52.6436 25.47 52.64C22.62 53.04 22.22 55.51 21.36 57.55C21.07 58.24 21.56 58.86 21.94 59.47C23.33 61.66 23.29 62.19 21.36 64C19.5943 65.4541 18.2481 67.3526 17.46 69.5C16.62 72.21 17.63 73.81 20.41 74.14C21.54 74.28 22.67 74.48 23.79 74.66C25.66 74.96 26.37 75.82 26.04 77.66C25.71 79.5 26.47 81.1 26.11 82.91C25.84 84.2 28.84 85.45 30.11 84.73C31.1651 84.1004 32.0055 83.1669 32.5212 82.0517C33.0369 80.9365 33.2037 79.6916 33 78.48C32.2148 75.5958 32.2148 72.5541 33 69.67C33.2762 68.6967 33.7084 67.7747 34.28 66.94C34.71 66.33 35.28 65.94 36.04 66.21C36.369 66.3363 36.6516 66.56 36.85 66.8513C37.0484 67.1426 37.153 67.4875 37.15 67.84C37.1442 68.5419 36.9582 69.2305 36.61 69.84C35.905 71.6178 35.7654 73.5698 36.21 75.43C36.32 75.98 36.43 76.68 37.08 76.77C37.73 76.86 38.08 76.15 38.38 75.6C38.6735 74.8264 39.0073 74.0687 39.38 73.33C39.7522 72.6191 40.3126 72.0241 41 71.61C41.3278 71.4107 41.7111 71.3226 42.093 71.3589C42.4749 71.3952 42.8348 71.5538 43.1192 71.8112C43.4036 72.0687 43.5972 72.411 43.6712 72.7874C43.7453 73.1638 43.6957 73.554 43.53 73.9C43.2493 74.6638 42.8401 75.374 42.32 76C40.79 77.81 40.59 79.93 40.46 82.21C40.33 84.49 43.73 86.21 45.98 85.35C47.3599 84.891 48.6245 84.1397 49.6876 83.1473C50.7507 82.155 51.5872 80.945 52.14 79.6C52.46 78.8 52.76 77.83 53.87 77.84C54.98 77.85 55.25 78.78 55.66 79.57C56.97 82.1 59.3 83.13 61.9 83.71C63.19 84 63.67 82.63 64.63 82.24C67.13 81.24 67.41 81.24 68.08 83.04C67.87 83.53 68.08 84.1 67.75 84.57C67.6121 84.6778 67.4879 84.8021 67.38 84.94C67.055 85.0968 66.7912 85.3571 66.63 85.68V85.68C66.4921 85.7878 66.3679 85.9121 66.26 86.05V86.05C66.1221 86.1578 65.9979 86.2821 65.89 86.42V86.42L65.52 86.73C64.52 87.45 63.43 88.35 62.2 88.22C60.48 88.05 60.07 88.95 59.86 90.28C59.26 89.88 59.35 89.17 59.02 88.6C59.02 92.12 58.35 95.6 58.5 99.11C58.5 99.74 58.5 100.37 58.5 101C58.26 103.6 56.8 104.36 54.43 103.18Z" fill="#DF9485"/>
<path d="M122.44 34.85C121.983 35.2865 121.397 35.5636 120.77 35.64C119.347 35.8805 118.058 36.6261 117.14 37.74C116.57 38.41 115.66 39.45 114.84 37.84C114.33 37.17 114.74 36.62 115.15 36.15C116.84 34.15 117.33 31.75 117.57 29.28C117.685 28.4571 117.565 27.6185 117.224 26.861C116.882 26.1036 116.333 25.4584 115.64 25C114.334 24.1066 112.821 23.563 111.246 23.4212C109.67 23.2793 108.084 23.544 106.64 24.19C106.03 24.5201 105.382 24.7753 104.71 24.95C102.91 25.27 102.39 24.65 102.3 22.84C102.12 19.56 101.06 16.84 97.99 14.84C96.3089 13.8827 94.4383 13.3059 92.51 13.15C91.9315 13.0043 91.3216 13.0458 90.7682 13.2686C90.2147 13.4914 89.7462 13.884 89.43 14.39C87.76 16.72 86.58 16.61 84.65 14.49C81.56 11.1 78 8.64996 73.07 9.15996C71.8551 9.19548 70.6911 9.65545 69.78 10.46C68.19 12.1 66 13.36 65.78 16.02C65.757 16.1455 65.7053 16.2641 65.629 16.3664C65.5527 16.4687 65.4538 16.5521 65.34 16.61C64.87 16.71 64.7 16.34 64.49 16.04C64.3684 15.8003 64.2712 15.5491 64.2 15.29C64.1154 15.0431 64.0551 14.7886 64.02 14.53C64.0593 13.7595 64.312 13.0151 64.75 12.38C64.9332 12.0934 65.167 11.8427 65.44 11.64C66.07 11.31 66.2 10.55 66.72 10.13C67.3494 9.51498 68.0396 8.96549 68.78 8.48996C69.9321 8.18502 71.0219 7.68074 72 6.99996C72.3065 6.77409 72.6585 6.61773 73.0315 6.54174C73.4045 6.46575 73.7896 6.47197 74.16 6.55996C76.6388 6.9148 79.0086 7.81286 81.1 9.18996C81.2409 9.29781 81.402 9.37638 81.5737 9.42103C81.7455 9.46569 81.9244 9.47552 82.1 9.44996C83.7 9.20996 84.17 10.55 84.93 11.45C85.0261 11.5874 85.113 11.731 85.19 11.88C85.27 12.02 85.34 12.16 85.41 12.31C85.5326 12.5934 85.6694 12.8704 85.82 13.14C85.91 13.27 86 13.39 86.1 13.51C86.2365 13.635 86.4149 13.7044 86.6 13.7044C86.7851 13.7044 86.9635 13.635 87.1 13.51C87.2113 13.3045 87.2858 13.0811 87.32 12.85C87.3424 12.6805 87.3792 12.5132 87.43 12.35C87.5339 12.1073 87.6913 11.8914 87.8904 11.7182C88.0896 11.545 88.3253 11.4191 88.58 11.35C89.5958 11.4029 90.6027 11.1372 91.46 10.59C91.8886 10.3108 92.3829 10.149 92.8936 10.121C93.4043 10.0929 93.9135 10.1994 94.37 10.43C96.29 11.43 98.37 11.88 100.37 12.79C100.78 12.98 101.29 13.14 101.43 13.54C102.35 16.17 104.55 18.33 104.24 21.42C104.07 23.13 104.24 23.23 105.79 22.31C106.54 21.87 108.03 22.08 107.72 20.48C107.758 20.2936 107.857 20.125 108 20C112.73 18.36 116.84 19.26 120.08 23.14C121.89 25.31 121.84 27.99 121.62 30.65C120.9 31.41 121.3 32.45 120.94 33.3C120.4 34.01 120.4 34.5 121.44 34.61C121.79 34.65 122.18 34.48 122.44 34.85Z" fill="#DD9585"/>
<path d="M25.56 50.38C25.49 50.92 25.35 51.5 24.66 51.23C22.93 50.56 22.06 52.05 20.84 52.66C20.02 53.07 21.63 54.19 20.4 54.41C19.17 54.63 19.18 55.65 18.87 56.5C18.6384 57.3394 18.6301 58.2248 18.8458 59.0685C19.0616 59.9121 19.4939 60.6848 20.1 61.31C20.43 61.58 20.94 61.73 20.85 62.26C20.7897 62.4804 20.6597 62.6755 20.4795 62.816C20.2993 62.9566 20.0785 63.0352 19.85 63.04C19.7133 63.0791 19.5694 63.0856 19.4298 63.059C19.2902 63.0325 19.1587 62.9736 19.0459 62.887C18.9332 62.8005 18.8422 62.6888 18.7804 62.5608C18.7186 62.4328 18.6876 62.2921 18.69 62.15C18.2233 61.8767 17.8423 61.4784 17.59 61C16.33 59.87 16.26 58.35 16.39 56.86C16.4629 56.5625 16.4762 56.2535 16.429 55.9509C16.3819 55.6482 16.2753 55.3579 16.1154 55.0967C15.9555 54.8354 15.7454 54.6084 15.4974 54.4288C15.2493 54.2492 14.9681 54.1204 14.67 54.05C12.9016 53.4805 11.2987 52.4886 10 51.16C10.62 50.61 11.21 51 11.7 51.34C13.3511 52.2703 15.0576 53.0985 16.81 53.82C16.88 53.35 16.23 53.12 16.5 52.65C18.66 52.65 19.86 50.65 21.84 50.17C22.42 50.04 21.79 49.45 21.61 49.11C18.66 43.89 20.61 36.62 26.33 34.43C26.8393 34.1805 27.4034 34.0635 27.97 34.09C29.8 34.36 29.7 33.5 29.26 32.15C28.13 28.74 28.26 25.45 30.62 22.5C31.07 21.95 31.51 21.42 32.31 21.5C32.7 21.31 32.92 20.87 33.41 20.82C33.6902 20.7669 33.9801 20.8089 34.2338 20.9393C34.4874 21.0698 34.6902 21.2812 34.81 21.54C34.9232 21.7729 34.9416 22.0406 34.8614 22.2868C34.7812 22.533 34.6086 22.7385 34.38 22.86C33.79 23.3 33.03 23.59 33 24.51C33 24.8 33 25.09 33 25.38C32.8962 26.2483 32.6062 27.084 32.15 27.83C30.85 30.54 31.6 32.83 33.52 34.93C35.66 37.25 37.82 39.49 41.12 40.24C42.12 40.47 43.81 41.07 43.21 42.57C42.7 43.88 41.21 43.14 40.21 42.95C37.55 42.49 35.21 41.2 32.85 40.06C32.2861 39.8479 31.7937 39.4803 31.43 39C29.83 36.73 29.57 36.68 26.99 37.88C26.6939 37.9833 26.4212 38.1443 26.1877 38.3537C25.9543 38.5631 25.7647 38.8168 25.63 39.1C25.4065 39.5117 25.1 39.8727 24.73 40.16C22.13 42.34 21.8 45.4 23.86 48.16C24.5002 48.8407 25.0697 49.5845 25.56 50.38V50.38Z" fill="#DB9081"/>
<path d="M67.7301 83.06C67.5801 81.99 67.0201 81.74 66.0601 82.19C65.6201 82.39 65.1501 82.52 64.6901 82.68C64.4201 81.93 64.7801 81.19 64.7601 80.43C64.6996 80.0325 64.7196 79.6269 64.819 79.2373C64.9184 78.8477 65.095 78.4821 65.3385 78.1621C65.582 77.8422 65.8873 77.5744 66.2363 77.3748C66.5853 77.1751 66.9708 77.0477 67.3701 77C68.1429 76.7961 68.963 76.8744 69.6833 77.2208C70.4036 77.5672 70.9768 78.159 71.3001 78.89C71.5601 79.4 71.6601 79.97 71.9301 80.47C72.9301 82.26 74.6101 82.39 75.8101 80.77C76.2601 80.16 76.6401 79.49 77.1201 78.91C79.8601 75.6 83.7801 75.46 86.7301 78.55C88.2501 80.15 89.7301 80.16 91.3101 78.55C91.7501 78.1 92.0901 77.55 92.5301 77.1C92.7792 76.7669 93.1075 76.5012 93.4852 76.327C93.8629 76.1529 94.2781 76.0757 94.6932 76.1025C95.1083 76.1293 95.5101 76.2593 95.8623 76.4806C96.2145 76.7019 96.5059 77.0076 96.7101 77.37C97.0965 77.8724 97.3787 78.447 97.5401 79.06C98.0501 81.06 98.7101 82.81 100.91 83.48C101.16 83.56 101.23 83.84 101.16 84.12C99.3201 84.21 97.1601 83.67 96.6101 86.37C96.5001 86.55 96.3901 86.55 96.2701 86.37C95.9401 86.06 95.8101 85.61 95.4801 85.31C95.1401 84.57 95.4801 83.31 94.0101 83.45C93.5101 84.7 92.4201 85.45 91.6301 86.52C91.0701 86.61 90.6301 86.23 90.0601 86.12C90.7301 86.77 91.7201 87.23 90.9301 88.37C90.6193 87.791 90.1311 87.3271 89.5371 87.0463C88.9431 86.7655 88.2746 86.6826 87.6301 86.81C86.5643 86.9452 85.4822 86.7699 84.5137 86.3051C83.5452 85.8404 82.7314 85.1059 82.1701 84.19C81.5001 82.52 81.2501 82.36 80.3301 83.07C80.1714 83.1566 80.0424 83.289 79.9601 83.45V83.45C79.881 83.5008 79.789 83.5278 79.6951 83.5278C79.6011 83.5278 79.5091 83.5008 79.4301 83.45C78.9101 83.11 78.4301 82.67 77.7301 82.96C75.0701 84.03 72.4601 83.36 69.8501 82.73C69.0001 82.12 68.4601 83.25 67.7301 83.06Z" fill="#DE9588"/>
<path d="M32.4 24.54C32.3451 24.1717 32.4134 23.7956 32.5942 23.4701C32.775 23.1446 33.0583 22.8879 33.4 22.74C33.91 22.49 34.79 22.48 34.4 21.6C34.1 20.92 33.4 21.08 32.77 21.3L32.24 21.46C33.91 19.38 36.24 19.46 38.54 19.59C39.2891 19.6767 40.031 19.817 40.76 20.01C41.2201 20.3192 41.7218 20.5616 42.25 20.73C43.35 21.52 43.84 21.38 43.65 19.9C43.4517 18.9061 43.4825 17.8801 43.74 16.9C45.73 8.99996 54.11 6.09996 61.39 9.76996C62.26 10.21 62.75 11.69 63.83 11.17C64.64 10.78 65.1 9.65996 65.73 8.87996C65.8675 8.75223 66.0224 8.64451 66.19 8.55996C66.75 8.30996 67.12 7.55996 67.75 7.62996C68.38 7.69996 69.3 7.83996 68.87 8.99996L67 10.47C65.92 10.4 66.25 11.75 65.49 11.99C65.36 12.11 65.24 12.24 65.11 12.37L64.35 14.65C64.49 14.76 64.59 14.91 64.73 15.03V15.79C65.08 17.39 65.42 18.97 66.73 20.12C66.917 20.2499 67.0484 20.4453 67.0984 20.6674C67.1484 20.8896 67.1133 21.1224 67 21.32C66.66 21.88 66.08 21.66 65.64 21.49C63.64 20.69 61.64 20.05 59.43 21.05C59.2271 21.1495 58.9947 21.1708 58.7771 21.11C58.5594 21.0491 58.3718 20.9103 58.25 20.72C57.97 20.26 58.32 19.88 58.62 19.57C59.1204 19.1816 59.5825 18.7463 60 18.27C61.8 17.08 62.5 15.58 61.6 13.44C61.4853 13.017 61.2585 12.6329 60.9433 12.3283C60.6282 12.0238 60.2366 11.8101 59.81 11.71C57.7412 10.7243 55.3951 10.4846 53.1697 11.0314C50.9443 11.5781 48.9765 12.8778 47.6 14.71C46.47 16.17 46.34 17.84 46.04 19.5C45.8917 19.8848 45.845 20.3014 45.9046 20.7095C45.9642 21.1176 46.1279 21.5035 46.38 21.83C46.8317 22.5107 47.1695 23.2605 47.38 24.05C47.4697 24.255 47.4928 24.4829 47.4462 24.7018C47.3995 24.9206 47.2854 25.1193 47.12 25.27C46.9523 25.3851 46.7509 25.4408 46.5479 25.4281C46.3449 25.4155 46.152 25.3351 46 25.2C44.3946 23.8653 42.5177 22.8961 40.5 22.36C40.2676 22.2594 40.0794 22.0783 39.97 21.85C39.77 21.58 40.1 21 39.51 20.97C38.92 20.94 38.85 21.46 38.62 21.83C36.56 22.81 34.47 23.64 32.4 24.54Z" fill="#DB9182"/>
<path d="M35.41 88.81C35.83 87.53 34.51 86.53 34.72 85.39C35.39 81.71 34.09 78.39 33.29 74.9C33.03 73.73 33.47 72.73 34.45 71.54C34.68 73.12 34.94 74.38 35.03 75.65C35.0881 76.4059 35.2635 77.1482 35.55 77.85C35.83 78.53 35.96 79.57 36.69 79.7C37.58 79.85 37.69 78.7 38.09 78.15C38.49 77.6 38.69 76.95 39.31 77.24C39.93 77.53 39.66 78.24 39.45 78.77C38.78 80.45 38.04 82.12 37.36 83.77C37.1593 84.2402 37.0377 84.7402 37 85.25C36.86 87.02 37.26 87.31 39.1 86.62C38.59 87.48 37.6 88.18 38.41 89.17C38.7351 89.6382 39.203 89.9887 39.7437 90.1689C40.2845 90.3492 40.8691 90.3496 41.41 90.17C41.47 90.17 41.54 90.09 41.58 90.11C43.4464 90.902 45.5328 91.0083 47.47 90.41C47.5658 90.3998 47.6626 90.4117 47.7531 90.4447C47.8436 90.4777 47.9252 90.531 47.9919 90.6006C48.0585 90.6701 48.1083 90.754 48.1375 90.8458C48.1666 90.9376 48.1743 91.0348 48.16 91.13C48.16 91.58 47.76 91.71 47.38 91.82C45.932 92.2959 44.386 92.3923 42.89 92.1C42.0318 91.9012 41.149 91.8304 40.27 91.89C38.25 91.51 36.39 90.86 35.41 88.81Z" fill="#DB8F80"/>
<path d="M108 20.35C109.07 21.35 109.07 22.09 107.44 22.24C106.587 22.4479 105.795 22.8558 105.13 23.43C104.72 23.67 104.35 23.86 103.91 23.56C103.744 23.4604 103.617 23.3064 103.552 23.1242C103.486 22.9419 103.486 22.7426 103.55 22.56C103.891 21.6175 103.964 20.5989 103.761 19.6174C103.558 18.6358 103.087 17.7298 102.4 17C102.086 16.4549 101.882 15.8535 101.8 15.23C101.46 14.08 100.8 13.6 99.62 13.02C98.09 12.26 96.3 12.32 94.89 11.15C94.4234 10.7629 93.8362 10.5511 93.23 10.5511C92.6238 10.5511 92.0366 10.7629 91.57 11.15C90.74 11.8 89.75 12.34 88.63 11.64C88.7722 11.0305 89.1066 10.4828 89.5837 10.0777C90.0608 9.67256 90.6555 9.43148 91.28 9.38999C92.85 7.95999 94.84 8.38998 96.41 8.85998C99.92 9.93998 103.07 11.78 104.58 15.47C104.92 16.47 104.79 17.55 105.36 18.47C105.96 19.31 104.8 20.47 105.68 21.09C106.56 21.71 107 20.06 108 20.35Z" fill="#DC9284"/>
<path d="M133.06 64.44C132.61 63.85 131.9 63.81 131.27 63.57C130.27 63.19 129.75 62.4 130.35 61.37C130.63 60.88 130.81 59.94 131.53 60.12C132.25 60.3 131.6 61.12 131.74 61.53C132.24 63.11 133.62 63.24 135 63.27C135.081 63.4378 135.225 63.5671 135.4 63.63V63.63C136.445 64.0537 137.45 64.5725 138.4 65.18V65.18C139.325 65.6184 140.218 66.1231 141.07 66.69C143.83 68.4381 146.415 70.4474 148.79 72.69C149.17 72.9793 149.477 73.3531 149.687 73.7819C149.897 74.2107 150.004 74.6826 150 75.16C149.993 75.5113 149.891 75.854 149.704 76.1517C149.517 76.4493 149.253 76.6907 148.94 76.85C148.632 77.026 148.267 77.0764 147.923 76.9908C147.578 76.9051 147.28 76.6899 147.09 76.39C146.09 74.99 144.09 74.27 144.49 71.98C144.63 71.26 143.77 70.88 143.22 70.47C140.021 68.1595 136.621 66.1414 133.06 64.44V64.44Z" fill="#CB7362"/>
<path d="M16.45 52.65C16.86 53.35 18.45 53.57 17.73 54.59C17.29 55.24 16.55 54.05 15.84 53.88C13.7 53.39 12 51.79 10 51.16C7.18002 49.69 5.20002 47.3 3.08002 45.1C2.29002 44.29 1.66002 43.32 0.850019 42.54C0.474757 42.148 0.205362 41.6669 0.0671651 41.1421C-0.071032 40.6173 -0.0734912 40.066 0.0600188 39.54C0.0948491 39.1992 0.223609 38.8748 0.431952 38.6029C0.640295 38.331 0.92004 38.1223 1.24002 38C1.57053 37.8669 1.94009 37.8687 2.26923 38.0053C2.59836 38.1418 2.86077 38.402 3.00002 38.73C3.76002 40.28 6.00002 41.29 4.78002 43.6C4.50002 44.15 5.22002 44.6 5.61002 44.97C7.93672 47.3659 10.5615 49.4529 13.42 51.18C14.3486 51.804 15.3579 52.2986 16.42 52.65H16.45Z" fill="#CC7967"/>
<path d="M90.9 88.3799C91 86.7499 89.9 86.4799 88.61 86.1899C89.0567 85.8306 89.6256 85.6589 90.1966 85.7111C90.7676 85.7633 91.2959 86.0354 91.67 86.4699L91.9 86.5499C92.0318 86.6479 92.1353 86.779 92.2 86.9299L92.26 87.4299C93.16 88.9199 93.58 90.6299 94.37 92.1699C95.3266 94.2275 96.119 96.3575 96.74 98.5399C97.04 99.6899 97.36 100.99 99.25 100.21C100.14 99.8499 101.55 99.7999 101.93 101.21C102.31 102.62 101.21 103.36 100.01 103.74C97.01 104.74 96.75 104.57 95.71 101.51C95.13 99.7899 94.52 98.0799 93.93 96.3699C93.3835 94.2649 92.6159 92.2235 91.64 90.2799V90.2799C91.39 89.6399 91.47 88.8799 90.89 88.3699L90.9 88.3799Z" fill="#CE7969"/>
<path d="M54.43 103.18C54.94 103.18 55.43 103.18 55.95 103.18C57.48 103.35 57.95 102.61 57.87 101.18C57.58 96.89 58.39 92.63 58.26 88.34C58.26 87.87 57.94 87.04 58.84 87.07C59.74 87.1 59.79 87.75 59.76 88.46C59.73 89.17 59.76 89.72 59.81 90.35C59.81 94.89 59.73 99.42 59.76 103.96C59.76 105.37 59.22 106.09 57.81 106.16C57.06 106.16 56.31 106.25 55.55 106.26C54.79 106.27 53.88 106.19 53.55 105.26C53.4023 104.867 53.4112 104.431 53.5749 104.044C53.7387 103.657 54.0448 103.348 54.43 103.18V103.18Z" fill="#D08372"/>
<path d="M21.75 81.91C21.75 81.04 21.59 80.11 22.75 79.72C23.02 79.62 23.2 79.34 22.95 79.15C21.82 78.28 22.95 77.44 22.95 76.6C23.23 76.18 23.54 75.84 24.09 76.22C24.22 76.34 24.33 76.48 24.47 76.6V77C24.87 78.43 23.79 79.57 23.71 80.92C23.71 81.39 23.36 81.85 23.71 82.32C23.5595 83.223 23.6598 84.15 24 85C24.13 85.12 24.26 85.25 24.38 85.38L25.52 86.14C25.64 86.28 25.78 86.39 25.9 86.52C26.02 86.65 26.16 86.77 26.28 86.9C27.76 87.9 29.28 88.9 31.15 87.9C31.66 87.64 32.21 87.44 32.33 86.78C32.42 86.28 32.49 85.57 33.2 85.98C33.3593 86.0566 33.4989 86.169 33.6077 86.3084C33.7166 86.4477 33.7918 86.6103 33.8276 86.7835C33.8634 86.9567 33.8588 87.1357 33.8141 87.3068C33.7694 87.4779 33.6859 87.6364 33.57 87.77C33.14 88.37 32.34 88.77 32.37 89.62C29.77 91.17 27.37 90.62 25.13 88.88C23.12 87 20.93 85.18 21.75 81.91Z" fill="#DB8F80"/>
<path d="M15.68 73.18V73.56C15.92 73.76 15.83 74.12 16.06 74.32C16.29 74.52 16.21 74.88 16.44 75.08V75.46L16.81 75.84L18.71 76.6C18.83 76.74 18.97 76.85 19.09 76.98C19.57 77.37 20.43 77.58 19.86 78.5C19.6926 78.6161 19.4937 78.6783 19.29 78.6783C19.0862 78.6783 18.8874 78.6161 18.72 78.5H17.58C16.5179 78.1079 15.5727 77.4527 14.8329 76.5957C14.0931 75.7387 13.5828 74.7079 13.35 73.6C12.8254 72.0666 12.6897 70.4271 12.9549 68.8283C13.2202 67.2296 13.8783 65.7217 14.87 64.44H15.3L15.68 64.08L16.05 63.72L16.42 63.36C18.01 63.45 16.99 64.6 17.18 65.25C17.0459 65.369 16.919 65.4959 16.8 65.63C15.8 65.69 15.63 66.33 15.67 67.15C16.02 67.99 15.36 68.66 15.29 69.43V72.8C15.44 72.91 15.54 73.07 15.68 73.18Z" fill="#DB8F80"/>
<path d="M129.22 48.1C128.94 47.98 128.64 47.8901 128.37 47.7501C125.7 46.3001 125.7 46.3001 127.54 43.8901C129.17 41.7501 128.36 39.8101 125.85 37.6401C124.739 36.8366 123.732 35.8996 122.85 34.85C122.893 34.7893 122.948 34.7385 123.012 34.701C123.076 34.6635 123.148 34.6402 123.222 34.6326C123.296 34.625 123.37 34.6334 123.441 34.6571C123.511 34.6808 123.576 34.7193 123.63 34.7701L124.8 34.9701C124.95 34.9701 125.02 35.0301 125.02 35.1801L125.13 35.28C125.279 35.3511 125.42 35.4383 125.55 35.5401C125.768 35.5444 125.983 35.5958 126.18 35.6907C126.377 35.7857 126.551 35.9218 126.69 36.0901C126.72 36.0854 126.751 36.0884 126.779 36.0988C126.808 36.1093 126.834 36.1268 126.854 36.1498C126.874 36.1728 126.887 36.2004 126.894 36.2302C126.9 36.26 126.899 36.2909 126.89 36.3201C126.924 36.3238 126.956 36.3384 126.982 36.3619C127.007 36.3853 127.024 36.4162 127.03 36.4501C127.093 36.4583 127.152 36.4873 127.197 36.5325C127.243 36.5778 127.272 36.6366 127.28 36.7001C127.313 36.7042 127.344 36.7193 127.367 36.7428C127.391 36.7663 127.406 36.797 127.41 36.8301C127.474 36.8366 127.534 36.8651 127.579 36.9106C127.625 36.9561 127.653 37.016 127.66 37.0801L127.76 37.2001C128.181 37.6388 128.578 38.0995 128.95 38.5801V38.5801C129.059 38.7201 129.176 38.8537 129.3 38.9801V38.9801C129.427 39.0891 129.547 39.206 129.66 39.3301V39.3301C130.13 39.8801 129.54 40.6601 130.07 41.2001C130.25 41.4301 130.19 41.7801 130.46 41.9701C131.12 43.5701 130.13 44.9701 130.01 46.5301C130.12 47.2601 129.61 47.65 129.22 48.1Z" fill="#DD9585"/>
<path d="M69.63 82.3C71.557 82.8011 73.539 83.0597 75.53 83.07C76.1558 83.1097 76.7783 82.9524 77.31 82.62C78.55 81.62 79.19 82.08 79.52 83.45C79.6142 83.5562 79.6662 83.6931 79.6662 83.835C79.6662 83.9769 79.6142 84.1139 79.52 84.22C78.95 84.49 78.52 84.99 77.99 85.31C75.63 87.21 72.86 86.94 70.36 84.59C70.12 83.83 68.89 83.38 69.63 82.3Z" fill="#DE9385"/>
<path d="M18 30.5699C17.69 31.2499 17.53 32.0299 16.56 32.3199C16.14 30.8699 15.8 29.3199 13.76 29.4699C13.52 29.4699 13.21 29.3199 13.27 29.0199C13.33 28.7199 13.51 28.4999 13.68 28.4699C15.06 28.2099 15.06 27.2499 14.96 26.1699C14.83 24.7099 15.58 24.8899 16.38 25.5099C17 25.9799 17.52 26.5099 18.38 26.0099C19.27 25.6899 19.5 26.1999 19.47 26.9199C19.3176 27.514 19.342 28.1395 19.54 28.7199C20.47 29.9699 20.39 30.2399 19.08 30.4099C18.7125 30.3803 18.3431 30.435 18 30.5699V30.5699Z" fill="#E7BD68"/>
<path d="M68.8701 9.00001C68.2601 7.00001 67.1001 8.65001 66.1901 8.61001C66.4196 8.1022 66.8243 7.69398 67.3301 7.46001C67.6501 7.30439 67.9228 7.06619 68.1201 6.77001C68.1675 6.7367 68.2212 6.71332 68.2779 6.70129C68.3346 6.68927 68.3932 6.68883 68.4501 6.70001C69.1001 6.49001 69.8301 6.51001 70.3701 6.00001L71.1101 5.92001C73.1523 5.575 75.2379 5.575 77.2801 5.92001L78.0001 5.99001C78.3501 6.25001 78.8001 6.35001 79.0801 6.72001C80.0801 7.72001 81.6801 8.20001 82.1701 9.77001C81.4401 10.97 81.1701 9.77001 80.6901 9.51001C78.3001 8.00001 75.7201 6.63001 72.9001 7.11001C71.5801 7.33001 70.3601 8.61001 68.8701 9.00001Z" fill="#DC9284"/>
<path d="M21.17 13.65C21.97 13.06 23.08 12.79 22.91 11.46C22.85 11.02 23.3 10.87 23.72 11.13C23.93 11.26 24.17 11.57 24.34 11.54C27.12 10.96 25.7 13.54 26.45 14.42C26.64 14.66 26.14 15.04 25.88 14.96C24.88 14.66 24.2 16.48 23.39 15.4C22.78 14.6 21.79 14.46 21.17 13.65Z" fill="#E9B85A"/>
<path d="M126.5 12.59C126.95 12.87 127.4 13.38 127.86 13.4C129.93 13.48 129.35 14.99 129.17 15.98C128.91 17.32 127.4 17.27 126.45 17.46C125.65 17.62 126.06 16.05 125.19 15.62C123.7 14.89 125.29 14.62 125.5 14.15C125.799 13.6086 126.133 13.0875 126.5 12.59V12.59Z" fill="#E7BF69"/>
<path d="M133.08 29.86C133.08 30.3 133.08 30.74 133.08 31.19C133.08 32.28 132.65 32.59 131.71 31.86C131.46 31.67 131.14 31.58 130.88 31.4C130.32 31.01 129.25 31.2299 129.14 30.4699C129.1 29.516 129.289 28.5664 129.69 27.7C129.99 26.95 131.5 26.7 132.33 25.95C133.278 26.972 134.1 28.1033 134.78 29.32C134.38 30 133.7 29.84 133.08 29.86C132.768 29.5477 132.552 29.1518 132.46 28.7199C132.26 28.1899 131.91 27.81 131.31 28.08C130.71 28.35 130.7 29.08 131 29.54C131.3 30 131.56 30.77 132.36 30.26C132.6 30.11 132.67 29.71 133.08 29.86Z" fill="#EADBB5"/>
<path d="M40.07 12.05C39.89 12.83 40.3 14.54 38.63 12.91C38.3586 12.7611 38.0471 12.7016 37.74 12.74C36.27 12.74 35.17 12.56 36.41 10.74C36.5 10.6 36.58 10.3 36.51 10.22C34.81 8.36004 36.51 8.61004 37.57 8.50004C37.7522 8.4691 37.924 8.39351 38.07 8.28004C39.85 7.14004 39.85 7.14004 40.07 9.28004L39.86 9.44004C39.27 9.33004 38.66 8.92004 38.15 9.61004C37.9748 9.79507 37.8707 10.0361 37.8561 10.2904C37.8414 10.5448 37.9172 10.7961 38.07 11C38.52 11.5 38.86 12.42 39.86 11.94L40.07 12.05Z" fill="#EAD8A9"/>
<path d="M117 9.82998C116.16 9.70998 115.49 9.45998 116.47 8.60998C117.65 7.60998 118.89 6.60998 120.11 5.60998C120.38 5.38998 120.66 4.95998 121.05 5.33998C121.44 5.71998 121.17 6.05998 120.94 6.33998C120.24 7.28998 119.14 8.17998 121.14 9.05998C121.64 9.27998 121.14 10.06 120.64 10.4C119.72 11.04 118.83 11.73 117.92 12.4L117.72 12.23C117.48 11.43 118.17 11.14 118.58 10.71C118.99 10.28 119.8 9.86998 119.28 9.00998C119.09 8.69998 119.07 8.13998 118.64 8.16998C117.94 8.22998 117.64 8.88998 117.37 9.43998C117.339 9.52731 117.29 9.60717 117.227 9.67436C117.163 9.74155 117.086 9.79457 117 9.82998V9.82998Z" fill="#E28883"/>
<path d="M134.83 18.91C136.34 18.39 135.83 16.49 137.45 16.31C138.23 16.23 139.65 15.92 139.58 16.55C139.49 17.38 139.4 18.83 138.14 19.13C137.044 19.4354 135.876 19.3578 134.83 18.91V18.91Z" fill="#E5B1AD"/>
<path d="M30 5.2C28.62 5.87 28 5.2 27.84 3.9C27.785 3.0876 27.785 2.2724 27.84 1.46C27.84 0.86 27.72 0.03 28.58 0C29.26 0 29.58 0.61 29.72 1.28C29.72 1.52 29.72 1.78 29.77 2.03C29.7575 2.09162 29.7271 2.1482 29.6826 2.19266C29.6382 2.23712 29.5816 2.2675 29.52 2.28C29.3905 2.30893 29.2682 2.36332 29.16 2.44C28.62 3.63 29.76 4.28 30 5.2Z" fill="#EACBC8"/>
<path d="M29.36 2.10998L29.79 1.99998C29.8362 2.02449 29.8877 2.03731 29.94 2.03731C29.9923 2.03731 30.0438 2.02449 30.09 1.99998C30.242 1.91392 30.383 1.80984 30.51 1.68998V1.68998C31.46 1.68998 31.69 2.36998 31.57 3.08998C31.5685 3.89533 31.4712 4.69764 31.28 5.47998C31.19 5.84998 31.15 6.37998 30.71 6.33998C30.05 6.28998 30.25 5.55998 30.05 5.13998C29.7294 5.03427 29.4359 4.85957 29.1901 4.62818C28.9442 4.39679 28.7521 4.11433 28.6273 3.80069C28.5024 3.48705 28.4477 3.14985 28.4672 2.81282C28.4867 2.4758 28.5798 2.14714 28.74 1.84998C29.05 1.28998 29.3 1.52998 29.36 2.04998C29.1 3.04998 29.77 3.53998 30.41 4.04998C30.64 3.14998 29.06 3.12998 29.36 2.10998Z" fill="#E48D8A"/>
<path d="M13.48 14.21C13.87 14.6 14.27 14.99 14.65 15.4C14.7695 15.5012 14.8469 15.6434 14.8673 15.7987C14.8876 15.954 14.8494 16.1113 14.76 16.24C14.5 16.58 14.21 16.36 13.97 16.16C13.56 15.8 13.05 15.58 12.64 16.01C11.11 17.61 10.8 16.1 10.26 15.13L10.43 14.93C11.328 15.0732 12.2468 14.8695 13 14.36C13.1493 14.2806 13.3121 14.2297 13.48 14.21V14.21Z" fill="#E3A4A3"/>
<path d="M10.26 15.13C9.84001 14.66 9.39001 14.21 9.01001 13.71C8.95506 13.6517 8.91379 13.5818 8.88919 13.5055C8.8646 13.4292 8.85731 13.3484 8.86784 13.2689C8.87837 13.1894 8.90647 13.1133 8.95009 13.046C8.9937 12.9788 9.05175 12.9221 9.12001 12.88C10.2 12.21 12.74 13 13.48 14.21L13.3 14.35C12.8277 14.0953 12.2799 14.0179 11.7554 14.1315C11.231 14.2452 10.7645 14.5426 10.44 14.97L10.26 15.13Z" fill="#E3A4A3"/>
<path d="M21.75 81.91C21.48 84.15 22.51 85.85 23.99 87.38C24.41 87.83 24.78 88.38 25.17 88.81C22.53 87.26 20.96 85.14 21.37 81.91H21.75Z" fill="#DB9081"/>
<path d="M91.28 9.36005C90.1861 9.81923 89.2606 10.605 88.63 11.61C88.4013 11.6986 88.2056 11.8556 88.0695 12.0597C87.9335 12.2638 87.8638 12.5049 87.87 12.7501C87.7286 12.8774 87.5615 12.9728 87.38 13.0301C86.19 12.9001 85.43 12.34 85.44 11.0301L85.62 10.8101C86.76 12.3101 87.73 11.9001 88.71 10.6001C88.9608 10.1559 89.3414 9.79901 89.8007 9.57737C90.2601 9.35572 90.7763 9.27989 91.28 9.36005V9.36005Z" fill="#E9A593"/>
<path d="M13.35 73.5699C14.2734 75.5671 15.739 77.2649 17.58 78.4699H17.16C16.1125 78.1199 15.1919 77.468 14.514 76.5961C13.8361 75.7242 13.4311 74.6714 13.35 73.5699V73.5699Z" fill="#DB9081"/>
<path d="M40.07 9.26001C40.4435 9.29143 40.8143 9.34823 41.18 9.43001C41.54 9.52001 41.97 9.61001 42.08 10.01C42.19 10.41 41.76 10.78 41.42 11.01C41.08 11.24 40.52 11.68 40.07 12.01L39.92 11.9C39.42 11.04 40.09 10.2 39.92 9.35001L40.07 9.26001Z" fill="#EAD8A9"/>
<path d="M99.65 88.4C102.152 89.0746 104.803 88.9345 107.22 88C105.36 89.44 101.29 89.65 99.65 88.4Z" fill="#E9A593"/>
<path d="M118 12.46C117.7 12.66 117.4 12.8801 117.08 13.0501C116.76 13.2201 116.47 13.2801 116.24 13.0501C116.01 12.8201 116.3 12.51 116.44 12.25C116.85 11.51 117.92 10.94 117.08 9.87005L117.24 9.66005C118.65 9.28005 118.75 10.01 118.37 11.04C118.22 11.47 117.53 11.6601 117.82 12.3001L118 12.46Z" fill="#E28883"/>
<path d="M108 20.35C107.08 20.58 106.37 21.96 105.4 21.35C104.43 20.74 105.69 19.45 105.4 18.47C106.02 19.15 105.46 20.05 105.87 20.81C106.7 20.86 107.17 19.87 108.03 20.01C108.029 20.1239 108.019 20.2376 108 20.35V20.35Z" fill="#E9A593"/>
<path d="M91.64 90.29C92.9823 92.0525 93.7785 94.1698 93.93 96.38C93.0269 94.4054 92.2618 92.3705 91.64 90.29Z" fill="#DE9588"/>
<path d="M77.28 5.87003H71.11C73.0908 5.08027 75.2991 5.08027 77.28 5.87003V5.87003Z" fill="#E9A593"/>
<path d="M43.78 16.9301C43.7388 17.975 43.8126 19.0213 44 20.0501C44.17 20.5101 44.36 21.0501 43.79 21.3601C43.22 21.6701 42.6 21.3601 42.28 20.7401C42.87 20.7901 43.48 21.0501 43.48 19.9901C43.48 18.9301 43.17 17.8901 43.78 16.9301Z" fill="#E9A593"/>
<path d="M19.46 28.7201C18.46 28.0901 19.91 26.3901 18.3 26.0101C18.438 25.7296 18.6301 25.4792 18.8652 25.2732C19.1003 25.0673 19.3738 24.9099 19.67 24.8101C20.41 26.1701 19.28 27.4201 19.46 28.7201Z" fill="#E9D3A0"/>
<path d="M69.63 82.3C69.39 83.22 70.4 83.74 70.37 84.6C70.22 84.5 70.01 84.43 69.93 84.29C68.93 82.66 68.31 83.29 67.75 84.58C67.75 84.08 67.75 83.58 67.75 83.06C68.4 82.9 68.66 81.71 69.63 82.3Z" fill="#E9A593"/>
<path d="M130 46.56C130.08 45.89 128.48 44.97 130.38 44.49C130.6 44.43 130.38 42.87 130.45 42C130.762 42.7371 130.884 43.5407 130.806 44.3373C130.727 45.1339 130.45 45.8981 130 46.56V46.56Z" fill="#DF9487"/>
<path d="M94.37 92.17C93.28 90.5559 92.4937 88.7564 92.05 86.86C92.0672 86.8332 92.0909 86.8111 92.1189 86.7958C92.1468 86.7805 92.1782 86.7725 92.21 86.7725C92.2419 86.7725 92.2733 86.7805 92.3012 86.7958C92.3292 86.8111 92.3529 86.8332 92.37 86.86C93 88.64 94.09 90.25 94.37 92.17Z" fill="#DE9588"/>
<path d="M31.28 5.54C30.94 4.29 31.98 2.77 30.51 1.75C31.67 1.75 32.15 2.07 31.94 3.06C31.76 3.89 31.88 4.82 31.28 5.54Z" fill="#EACBC8"/>
<path d="M92.37 86.86H92.05C91.92 86.73 91.8 86.6 91.67 86.48C91.97 85.12 93.27 84.48 93.98 83.48C94.16 84.93 92.12 85.35 92.37 86.86Z" fill="#E9A593"/>
<path d="M18 30.57C18.37 29.84 20.7 30.75 19.53 28.73C20.28 28.79 20.73 29.19 20.66 29.94C20.59 30.69 19.85 30.56 19.32 30.59C18.79 30.62 18.39 30.58 18 30.57Z" fill="#E9D3A0"/>
<path d="M123.6 34.77L122.82 34.85H122.44C122.06 34.85 121.68 34.85 121.31 34.8C120.94 34.75 120.31 34.87 120.25 34.28C120.19 33.69 120.5 33.47 120.95 33.28C120.89 34.04 121.18 34.45 121.95 34.44C122.55 34.45 123.13 34.33 123.6 34.77Z" fill="#E9A593"/>
<path d="M96.27 86.47H96.61C97.5251 87.2366 98.533 87.885 99.61 88.4C98.9259 88.4383 98.2454 88.2761 97.6521 87.9332C97.0588 87.5904 96.5785 87.0819 96.27 86.47V86.47Z" fill="#E9A593"/>
<path d="M16.4401 52.6501C15.8555 52.6859 15.2717 52.5693 14.7458 52.3116C14.2198 52.0539 13.7699 51.664 13.4401 51.1801C14.54 51.4323 15.5667 51.9354 16.4401 52.6501V52.6501Z" fill="#DB9081"/>
<path d="M80.3 83.08C80.46 82.08 80.75 81.51 81.63 82.65C81.8225 82.8558 81.9679 83.1011 82.0559 83.3687C82.144 83.6364 82.1727 83.9201 82.14 84.2C81.53 83.82 81.51 82.47 80.3 83.08Z" fill="#E9A593"/>
<path d="M17.59 61C18.0949 61.2168 18.4987 61.6171 18.72 62.12C18.13 62.46 17.64 63.06 16.85 62.87C17.13 62.29 18.17 62 17.59 61Z" fill="#E9A593"/>
<path d="M138.42 65.17C137.316 64.8848 136.291 64.3551 135.42 63.62C136.001 63.6512 136.569 63.8055 137.087 64.0727C137.604 64.3399 138.058 64.7139 138.42 65.17V65.17Z" fill="#DF9487"/>
<path d="M141.09 66.68C140.052 66.5017 139.108 65.9679 138.42 65.17C138.955 65.1834 139.478 65.3281 139.944 65.5914C140.409 65.8547 140.803 66.2286 141.09 66.68Z" fill="#DF9487"/>
<path d="M105.36 18.4399C104.36 17.6399 104.64 16.4399 104.58 15.4399C105.138 16.3379 105.41 17.384 105.36 18.4399Z" fill="#E9A593"/>
<path d="M78.75 6.68L78 5.94C78.9461 5.85025 79.8923 6.10992 80.66 6.67L80.44 6.89C80.1735 7.04241 79.8647 7.10432 79.56 7.06646C79.2553 7.0286 78.9711 6.89301 78.75 6.68V6.68Z" fill="#E9A593"/>
<path d="M94 83.4801C95.43 83.2901 95.47 83.3401 95.47 85.3401C95 84.7201 94.84 83.8001 94 83.4801Z" fill="#E9A593"/>
<path d="M120.93 33.29C121.04 32.38 120.52 31.29 121.61 30.64C121.35 31.52 121.47 32.49 120.93 33.29Z" fill="#DF9487"/>
<path d="M54.4401 86.87C54.4401 86.49 54.5001 86.04 54.9101 85.98C55.4801 85.9 55.6901 86.42 55.9101 86.84C55.4301 86.81 54.9301 86.5 54.4401 86.87Z" fill="#E9A593"/>
<path d="M78 85.32C78.1163 85.0058 78.3244 84.7338 78.5972 84.5395C78.8701 84.3451 79.1951 84.2372 79.53 84.23C79.3973 84.533 79.1849 84.7943 78.9155 84.9863C78.6461 85.1782 78.3297 85.2935 78 85.32V85.32Z" fill="#E9A593"/>
<path d="M83.35 8.52002C83.6672 8.60421 83.9638 8.7523 84.2218 8.95521C84.4797 9.15812 84.6935 9.41157 84.85 9.70002L84.62 9.87002C84.4547 9.90511 84.2837 9.90366 84.119 9.86575C83.9543 9.82785 83.7998 9.75442 83.6665 9.6506C83.5331 9.54677 83.4241 9.41506 83.3469 9.26469C83.2698 9.11431 83.2265 8.9489 83.22 8.78002C83.26 8.69002 83.31 8.61002 83.35 8.52002Z" fill="#E9A593"/>
<path d="M70.37 6C69.96 6.86 69.2 6.76 68.45 6.7C69.0185 6.30435 69.6801 6.06315 70.37 6V6Z" fill="#E9A593"/>
<path d="M128.92 38.5799C128.621 38.4664 128.356 38.2796 128.148 38.0367C127.94 37.7939 127.796 37.5027 127.73 37.1899C128.043 37.2784 128.324 37.4575 128.535 37.7049C128.747 37.9522 128.881 38.2567 128.92 38.5799Z" fill="#DF9487"/>
<path d="M90.9 88.39C91.79 88.78 91.7 89.55 91.65 90.3C91.2406 89.7381 90.9824 89.0804 90.9 88.39Z" fill="#DE9588"/>
<path d="M130.07 41.25C129.39 40.74 129.75 40.01 129.66 39.38C130.22 39.9 130 40.62 130.07 41.25Z" fill="#DF9487"/>
<path d="M53.32 88.76C53.3136 88.4643 53.3806 88.1716 53.5149 87.9081C53.6493 87.6446 53.8469 87.4185 54.09 87.25C54.1427 87.5511 54.0961 87.8613 53.9572 88.1336C53.8183 88.406 53.5947 88.6258 53.32 88.76V88.76Z" fill="#E9A593"/>
<path d="M42.27 20.73C41.9754 20.8051 41.6637 20.7729 41.3907 20.6391C41.1177 20.5054 40.9012 20.2788 40.78 20C41.0674 20.0011 41.3508 20.0673 41.6089 20.1938C41.867 20.3202 42.0931 20.5036 42.27 20.73V20.73Z" fill="#E9A593"/>
<path d="M95.45 85.37C95.6813 85.4326 95.885 85.5712 96.0282 85.7634C96.1715 85.9556 96.246 86.1904 96.24 86.43C96.0168 86.3536 95.8219 86.2114 95.6809 86.0223C95.5399 85.8331 95.4594 85.6057 95.45 85.37Z" fill="#E9A593"/>
<path d="M84.8501 9.69995C85.0743 9.79032 85.2669 9.94474 85.4038 10.1439C85.5408 10.3431 85.616 10.5783 85.6201 10.82L85.5401 10.89C84.7801 10.89 84.4801 10.52 84.7801 9.76995L84.8501 9.69995Z" fill="#E9A593"/>
<path d="M66.61 85.72C66.5943 85.6184 66.603 85.5145 66.6353 85.4168C66.6677 85.3192 66.7227 85.2306 66.7959 85.1584C66.8691 85.0861 66.9584 85.0323 67.0565 85.0013C67.1545 84.9703 67.2586 84.963 67.36 84.98C67.3086 85.1572 67.2126 85.3182 67.0814 85.4477C66.9501 85.5772 66.7878 85.671 66.61 85.72Z" fill="#E9A593"/>
<path d="M68.1201 6.71997C68.1247 6.82069 68.1066 6.92116 68.067 7.01389C68.0275 7.10662 67.9675 7.18923 67.8915 7.25556C67.8156 7.32188 67.7257 7.37021 67.6285 7.39695C67.5312 7.42369 67.4293 7.42814 67.3301 7.40997C67.3969 7.24012 67.5035 7.08879 67.641 6.96872C67.7785 6.84864 67.9428 6.76334 68.1201 6.71997V6.71997Z" fill="#E9A593"/>
<path d="M79.54 84.22C79.54 83.96 79.54 83.71 79.54 83.45H79.94C79.9585 83.6036 79.9302 83.7593 79.8588 83.8967C79.7875 84.034 79.6764 84.1467 79.54 84.22Z" fill="#E9A593"/>
<path d="M82.22 7.76001L82.96 8.16001L82.75 8.33001C82.62 8.3686 82.4801 8.35589 82.3592 8.2945C82.2383 8.23312 82.1455 8.12773 82.1 8.00001L82.22 7.76001Z" fill="#E9A593"/>
<path d="M81.07 7L81.82 7.39L81.61 7.56C81.4893 7.58943 81.3621 7.57551 81.2506 7.52068C81.1391 7.46584 81.0504 7.37358 81 7.26L81.07 7Z" fill="#E9A593"/>
<path d="M130.45 42C130.311 41.931 130.197 41.8187 130.127 41.6799C130.057 41.5411 130.033 41.3832 130.06 41.23C130.204 41.2934 130.322 41.4048 130.393 41.5452C130.464 41.6856 130.484 41.8463 130.45 42Z" fill="#DF9487"/>
<path d="M135.4 63.63L135 63.27L135.4 63.63Z" fill="#DF9487"/>
<path d="M66.23 86.11C66.35 85.98 66.47 85.86 66.6 85.74C66.47 85.86 66.35 86 66.23 86.11Z" fill="#E9A593"/>
<path d="M65.85 86.49L66.22 86.12L65.85 86.49Z" fill="#E9A593"/>
<path d="M65.47 86.81L65.84 86.5L65.47 86.81Z" fill="#E9A593"/>
<path d="M54.0801 87.26L54.4401 86.87L54.0801 87.26Z" fill="#E9A593"/>
<path d="M83 8.16003L83.39 8.52003L83.33 8.60003C83.03 8.66003 82.91 8.53003 82.94 8.24003L83 8.16003Z" fill="#E9A593"/>
<path d="M81.82 7.40002L82.22 7.76002L82.15 7.84002C81.85 7.90002 81.73 7.77002 81.76 7.48002L81.82 7.40002Z" fill="#E9A593"/>
<path d="M67.37 85C67.49 84.87 67.62 84.75 67.74 84.63C67.62 84.72 67.49 84.84 67.37 85Z" fill="#E9A593"/>
<path d="M30.51 1.75L30.09 2.06L30.51 1.75Z" fill="#EACBC8"/>
<path d="M129.64 39.35L129.28 39L129.64 39.35Z" fill="#DF9487"/>
<path d="M129.26 39L128.91 38.6L129.26 39Z" fill="#DF9487"/>
<path d="M80.66 6.67004L81.07 7.01004L81 7.08004C80.7 7.15004 80.59 7.01004 80.6 6.73004L80.66 6.67004Z" fill="#E9A593"/>
<path d="M127.25 36.7C127.159 36.6242 127.076 36.5405 127 36.45L127.25 36.7Z" fill="#DF9487"/>
<path d="M126.86 36.32C126.78 36.2521 126.712 36.1709 126.66 36.08L126.86 36.32Z" fill="#DF9487"/>
<path d="M125.52 35.54L125.1 35.28L125.52 35.54Z" fill="#DF9487"/>
<path d="M125 35.18C124.915 35.1233 124.841 35.0522 124.78 34.97L125 35.18Z" fill="#DF9487"/>
<path d="M79.92 83.46L80.29 83.08L79.92 83.46Z" fill="#E9A593"/>
<path d="M127.63 37.0799C127.537 37.0034 127.453 36.9161 127.38 36.8199L127.63 37.0799Z" fill="#DF9487"/>
<path d="M60.13 11.25C62.26 11.62 62.27 13.59 62.56 15.01C62.79 16.09 62.56 17.69 60.84 18.01C60.71 18.01 60.62 18.3 60.51 18.45C59.0407 19.4133 57.6314 20.4652 56.29 21.6C55.95 21.88 55.16 22.11 55.62 22.69C56.08 23.27 56.54 22.69 56.94 22.38C57.83 21.77 58.81 21.38 59.73 20.86C61.53 19.86 63.13 20.27 64.78 21C66.0095 21.6435 67.3976 21.9211 68.78 21.8C67.91 20.89 66.99 20.35 66.26 19.61C65.53 18.87 64.41 18 65.07 16.56C65.21 13.64 67.39 12.01 69.16 10.17C71.22 8 77.19 8.05 80 10C82 11.38 84.1 12.51 85.5 14.62C86.08 15.5 87.59 16.62 88.24 15.09C89.9 11.27 92.92 12.34 95.43 13.03C97.94 13.72 100.71 14.62 101.38 17.9C101.54 18.71 102.32 19.37 102.7 20.16C103.087 20.9611 103.159 21.8786 102.9 22.73C102.47 24.28 102.9 24.73 104.49 24.46C104.992 24.4072 105.476 24.2469 105.91 23.99C108.91 21.69 112.05 22.92 115.05 23.9C117.5 24.7 119.05 27.97 117.64 32.41C117.03 34.41 115.79 36.02 114.87 37.82C113.99 39.26 115.37 39.11 115.87 38.9C117.61 38.15 119.32 39.06 121.09 38.73C123.31 38.31 126.01 42.43 125.25 44.83C124.65 46.8406 123.445 48.6177 121.8 49.92C121.16 50.43 120.6 50.97 120.72 51.77C120.84 52.57 121.61 52.54 122.24 52.65C124 53 124.9 55.2 127 55.08C127.3 55.08 127.15 55.58 127.14 55.89C126.885 59.6712 126.935 63.4668 127.29 67.24C127.376 68.6827 127.259 70.1303 126.94 71.54C126.864 71.9569 126.628 72.3276 126.282 72.5725C125.936 72.8174 125.508 72.917 125.09 72.85C122.36 72.74 120.82 74.46 119.39 76.41C119.146 76.7019 118.879 76.9728 118.59 77.22C117.59 78.12 116.79 79.31 115.2 78.65C113.61 77.99 113.2 76.65 113.33 75.08C113.111 74.6161 112.729 74.2492 112.257 74.0499C111.784 73.8505 111.255 73.8328 110.77 74C109.69 74.4 109.77 75.5 109.7 76.44C109.64 77.19 109.7 77.96 109.7 78.71C109.751 79.317 109.622 79.9256 109.329 80.4594C109.035 80.9932 108.59 81.4283 108.05 81.71C107.244 82.2113 106.488 82.7871 105.79 83.43C104.79 84.29 103.7 84.88 102.34 84.27H101.19C98.56 83.66 97.53 81.76 97.04 79.27C96.9835 78.6654 96.7448 78.0923 96.3556 77.6263C95.9663 77.1603 95.4448 76.8233 94.86 76.66C93.47 76.38 92.94 77.53 92.25 78.45C90.25 81.12 87.95 81.1 85.96 78.45C84.15 76.04 79.59 76.51 77.45 79.34C77.11 79.79 76.86 80.34 76.51 80.76C75.86 81.61 75.57 83.03 74.05 82.65C73.3268 82.5627 72.6508 82.2454 72.1215 81.7449C71.5922 81.2445 71.2376 80.5872 71.11 79.87C71.0255 79.3697 70.8155 78.8989 70.4996 78.5019C70.1837 78.1048 69.7722 77.7943 69.3037 77.5995C68.8351 77.4047 68.3248 77.3319 67.8205 77.388C67.3162 77.444 66.8343 77.6271 66.42 77.92C65.58 78.43 64.89 79.24 65.28 80.27C65.4206 80.6872 65.4426 81.1352 65.3438 81.5642C65.2449 81.9932 65.029 82.3864 64.72 82.7C62.81 84.63 60.72 84.7 58.37 83.01C56.88 81.94 55.26 81.08 54.88 79.01C54.8381 78.7551 54.6991 78.5262 54.4921 78.3715C54.2852 78.2168 54.0264 78.1481 53.77 78.18C53.26 78.25 53.06 78.64 52.94 79.09C52.447 80.3972 51.7739 81.6291 50.94 82.75C49.05 85.86 43.79 86.93 41.02 84.89C40.7463 84.7347 40.5131 84.5171 40.3393 84.2547C40.1655 83.9923 40.0561 83.6926 40.02 83.38C39.86 80.5 39.94 77.68 42.13 75.38C42.4545 74.9956 42.73 74.5724 42.95 74.12C43.4 73.37 43.68 72.61 42.78 71.96C41.88 71.31 41.19 71.96 40.6 72.43C39.8001 73.3197 39.2362 74.3959 38.96 75.56C38.61 76.45 38.33 77.71 37.05 77.56C35.77 77.41 35.83 76.24 35.66 75.35C35.1316 73.2468 35.3691 71.0241 36.33 69.08C36.5176 68.8264 36.6426 68.5321 36.6948 68.221C36.7469 67.9099 36.7247 67.5909 36.63 67.29C36.5572 67.0815 36.4343 66.8941 36.2721 66.7442C36.11 66.5942 35.9136 66.4863 35.7 66.43C35.14 66.26 34.92 66.67 34.7 67.06C33.3916 69.3656 32.7543 71.9912 32.86 74.64C32.8628 75.7116 33.0663 76.7733 33.46 77.77C34.54 80.5 32.46 84.35 30.15 85.44C28.28 86.33 27.27 84.74 25.94 84.1C24.83 83.57 25.37 82.72 25.62 81.98C25.789 81.6738 25.8776 81.3297 25.8776 80.98C25.8776 80.6303 25.789 80.2862 25.62 79.98C25.4247 79.6252 25.3157 79.2293 25.3018 78.8246C25.2879 78.4198 25.3695 78.0174 25.54 77.65C25.89 76.42 25.75 75.34 23.97 75.22C22.41 75.12 20.89 74.67 19.31 74.59C17.73 74.51 16.31 72.24 16.64 70.47C17.21 67.47 19.07 65.29 21.24 63.33C22.74 61.99 22.93 61.23 21.54 59.8C21.1021 59.4102 20.81 58.8828 20.7118 58.3048C20.6137 57.7268 20.7153 57.1325 21 56.62C21.5423 55.4819 22.1569 54.3796 22.84 53.32C23.0523 52.9471 23.3718 52.6467 23.7569 52.4577C24.1421 52.2687 24.5752 52.1998 25 52.26C25.47 52.26 26.08 52.42 26.28 51.77C26.3272 51.6341 26.347 51.4902 26.3384 51.3466C26.3297 51.2031 26.2927 51.0626 26.2295 50.9334C26.1663 50.8042 26.0781 50.6888 25.9701 50.5938C25.862 50.4988 25.7363 50.4261 25.6 50.38C21.78 47.94 20.6 42.9 24.47 39.75C25.21 40.75 24.47 41.55 24.1 42.36C23.7676 43.0047 23.5942 43.7196 23.5942 44.445C23.5942 45.1704 23.7676 45.8853 24.1 46.53C24.1909 46.7675 24.3532 46.971 24.5645 47.1125C24.7758 47.254 25.0258 47.3265 25.28 47.32C25.5019 47.2978 25.71 47.2021 25.8713 47.0481C26.0325 46.8941 26.1377 46.6906 26.17 46.47C26.39 45.56 27 44.73 26.97 43.78C26.8863 42.9308 27.0099 42.074 27.3304 41.2832C27.651 40.4924 28.1587 39.7912 28.81 39.24C29.09 39.01 29.4 38.66 29.1 38.24C28.8 37.82 28.42 38.01 28.03 38.05C27.03 38.15 26.35 39.2 25.24 38.93C25.97 37.41 28.76 36.13 30.24 36.62C30.6797 36.6989 31.0729 36.942 31.34 37.3C33.56 41.45 37.94 41.46 41.67 42.7C42.08 42.84 42.76 42.93 42.97 42.28C43.18 41.63 42.58 41.55 42.24 41.28C41.8693 40.9368 41.4244 40.6836 40.94 40.54C37.15 40.01 34.94 37.23 32.66 34.66C31.7273 33.7437 31.1236 32.5449 30.9427 31.25C30.7619 29.9551 31.0141 28.6367 31.66 27.5C32.39 28.22 32.1 29.15 32.19 30.01C32.28 30.87 32.03 31.66 32.79 32.44C34.29 30.63 34.4 27.94 36.4 26.61C38.4 25.28 40.68 25 43 24.41C41.7482 23.8319 40.3884 23.525 39.0096 23.5095C37.6309 23.494 36.2645 23.7702 35 24.32C34.16 24.68 33.49 25.54 32.42 25.32V24.56C33.47 23.17 35.16 22.92 36.59 22.21C37.21 21.91 38 22.1 38.5 21.51C38.5939 21.4002 38.7104 21.3121 38.8416 21.2517C38.9728 21.1912 39.1156 21.1599 39.26 21.1599C39.4045 21.1599 39.5472 21.1912 39.6784 21.2517C39.8096 21.3121 39.9261 21.4002 40.02 21.51C41.38 22.69 43.36 22.44 44.8 23.61C45.45 24.14 46.28 25.61 46.93 24.95C47.58 24.29 46.43 23.07 45.99 22.15C45.55 21.23 44.9 20.56 45.71 19.61C46.3 19.86 46.76 20.41 47.31 19.33C49.7 14.64 53.63 12.89 58.77 13.6C60.56 13.84 60.6 13.76 60.13 11.25Z" fill="#E9A593"/>
<path d="M102.31 84.2C105.17 84.2 106.52 81.52 108.79 80.44C109.32 80.18 109.13 79.44 109.14 78.86C109.06 77.7314 109.06 76.5985 109.14 75.47C109.3 74.47 109.26 73.27 110.82 73.16C112.38 73.05 113.09 73.62 113.27 75.08C111.11 74.36 110.17 74.89 110.27 77.08C110.4 79.56 110.42 81.61 107.56 82.86C106.869 83.2428 106.267 83.7664 105.791 84.3969C105.316 85.0274 104.978 85.7507 104.8 86.52C104.771 86.731 104.692 86.9321 104.569 87.1061C104.446 87.2802 104.283 87.4222 104.094 87.5202C103.905 87.6182 103.695 87.6693 103.482 87.6693C103.269 87.6693 103.059 87.618 102.87 87.52C101.97 87.1 102.24 86.43 102.73 85.81C103.22 85.19 102.68 84.66 102.31 84.2Z" fill="#DE9588"/>
<path d="M122.46 37.0699C123.15 37.0699 123.8 37.1299 123.8 37.9099C123.8 38.006 123.777 38.1005 123.731 38.1849C123.685 38.2693 123.619 38.3407 123.538 38.3926C123.457 38.4445 123.365 38.4751 123.269 38.4816C123.173 38.4881 123.077 38.4704 122.99 38.4299C122.47 38.1599 121.52 38.5199 121.43 37.6799C121.34 36.8399 122.14 37.1999 122.46 37.0699Z" fill="#DD9585"/>
<path d="M50 87.6C49.32 87.6 48.76 87.38 48.79 86.68C48.82 85.98 49.49 85.85 50.03 85.76C50.57 85.67 51.24 85.86 51.27 86.57C51.3 87.28 50.55 87.42 50 87.6Z" fill="#DB8F80"/>
<path d="M23.6601 82.3C22.8801 80.38 24.1801 78.75 24.4201 76.98C25.2301 77.89 24.5701 78.71 24.2901 79.58C24.0101 80.45 23.8701 81.39 23.6601 82.3Z" fill="#DB9081"/>
<path d="M19.87 78.5C19.87 77.84 19.32 77.5 19.1 76.98C19.83 76.98 20.69 76.98 20.88 77.86C21.07 78.74 20.32 78.44 19.87 78.5Z" fill="#DB9081"/>
<path d="M15.31 69.38C15.3011 68.6035 15.4298 67.8316 15.69 67.1C16.39 68 15.72 68.67 15.31 69.38Z" fill="#DB9081"/>
<path d="M24.0001 76.22L22.8601 76.6C22.8601 76.37 22.7701 76 22.8601 75.95C23.0478 75.8376 23.272 75.803 23.4849 75.8534C23.6978 75.9039 23.8826 76.0354 24.0001 76.22V76.22Z" fill="#DB9081"/>
<path d="M18.72 78.5H19.86C19.48 79 19.1 79 18.72 78.5Z" fill="#DB9081"/>
<path d="M34.63 70.24L34.53 70.57C34.4528 70.4982 34.3885 70.4136 34.34 70.32C34.34 70.32 34.34 70.21 34.34 70.15L34.63 70.24Z" fill="#DB8F80"/>
<path d="M16.06 74.3201C15.934 74.2394 15.8322 74.1262 15.7654 73.9924C15.6985 73.8586 15.669 73.7092 15.68 73.5601C15.8092 73.6374 15.9135 73.75 15.9809 73.8846C16.0482 74.0193 16.0756 74.1703 16.06 74.3201Z" fill="#DB9081"/>
<path d="M16.44 75.0799C16.3141 74.9993 16.2123 74.886 16.1454 74.7523C16.0785 74.6185 16.049 74.4691 16.06 74.3199C16.1875 74.399 16.2906 74.5119 16.3576 74.6461C16.4247 74.7803 16.4533 74.9305 16.44 75.0799V75.0799Z" fill="#DB9081"/>
<path d="M16.0601 63.6899L15.6901 64.0499L16.0601 63.6899Z" fill="#DB9081"/>
<path d="M25.9401 86.48L25.5601 86.1L25.9401 86.48Z" fill="#DB9081"/>
<path d="M26.3201 86.86L25.9401 86.48L26.3201 86.86Z" fill="#DB9081"/>
<path d="M15.68 64.0699L15.3 64.4299L15.68 64.0699Z" fill="#DB9081"/>
<path d="M16.8201 65.58L17.2001 65.2L16.8201 65.58Z" fill="#DB9081"/>
<path d="M15.6801 73.18L15.3101 72.8L15.6801 73.18Z" fill="#DB9081"/>
<path d="M16.8201 75.84L16.4501 75.46L16.8201 75.84Z" fill="#DB9081"/>
<path d="M24.42 76.6L24 76.22L24.42 76.6Z" fill="#DB9081"/>
<path d="M19.1 77L18.72 76.62L19.1 77Z" fill="#DB9081"/>
<path d="M24.42 85.34L24 85L24.42 85.34Z" fill="#DB9081"/>
<path d="M16.4401 63.3101L16.0701 63.6701L16.4401 63.3101Z" fill="#DB9081"/>
<path d="M65.07 16.56C65.13 19.1 67.49 19.71 68.9 21.11C69.2421 21.3771 69.6107 21.6083 70 21.8C69.603 22.1198 69.1294 22.3303 68.6261 22.411C68.1228 22.4917 67.6071 22.4397 67.13 22.26C66.7676 22.1605 66.4132 22.0335 66.07 21.88C62.68 19.72 59.69 20.6 56.85 23.01C56.37 23.41 55.76 24.07 55.05 23.38C54.56 22.9 54.38 22.27 55.1 21.79C56.86 20.62 58.38 19.06 60.48 18.45C60.15 19.45 58.83 19.55 58.19 21.09C61.37 19.25 64.06 20.25 66.84 21.21C65.48 19.58 63.91 18.15 64.66 15.8C64.7948 15.8733 64.9053 15.9841 64.9781 16.1191C65.0509 16.254 65.0828 16.4072 65.07 16.56V16.56Z" fill="#DC9284"/>
<path d="M80.61 6.72997L81.01 7.07997L81.76 7.47997L82.15 7.83997L82.9 8.23997L83.29 8.59997C83.4361 8.89325 83.6456 9.15037 83.9033 9.35272C84.161 9.55508 84.4604 9.6976 84.78 9.76997C84.8093 10.0034 84.8934 10.2266 85.0255 10.4212C85.1576 10.6159 85.3339 10.7765 85.54 10.89C85.6435 11.3597 85.884 11.7881 86.2312 12.121C86.5783 12.4538 87.0164 12.6762 87.49 12.76C87.6265 12.8764 87.7535 13.0035 87.87 13.14V13.9C87.04 14.15 86.22 14.38 85.59 13.52V13.14C85.36 12.93 85.44 12.57 85.21 12.38C85.0909 12.2459 84.9641 12.119 84.83 12C83.96 11.21 83.83 9.61997 82.17 9.71997C81.05 8.71997 79.48 8.14997 78.75 6.71997L80.61 6.72997Z" fill="#DB9182"/>
<path d="M65.46 12C65.91 10.39 65.99 10.31 66.97 10.48C66.42 10.94 66.55 12.07 65.46 12Z" fill="#DC9284"/>
<path d="M85.59 13.52C86.2969 13.8655 87.0892 13.9975 87.87 13.9C87 14.31 86.15 14.83 85.59 13.52Z" fill="#DC9284"/>
<path d="M85.21 12.38C85.3391 12.4573 85.4435 12.5699 85.5108 12.7046C85.5782 12.8392 85.6056 12.9903 85.59 13.14C85.4624 13.0609 85.3594 12.948 85.2923 12.8138C85.2252 12.6796 85.1967 12.5294 85.21 12.38V12.38Z" fill="#DC9284"/>
<path d="M64.6901 15L64.3101 14.62L64.6901 15Z" fill="#DC9284"/>
<path d="M87.87 13.14L87.49 12.76H87.87V13.14Z" fill="#DC9284"/>
<path d="M84.8301 12L85.2101 12.38L84.8301 12Z" fill="#DC9284"/>
<path d="M65.0701 12.38L65.4501 12L65.0701 12.38Z" fill="#DC9284"/>
<path d="M32.4101 25.3C35.5801 22.73 39.1301 22.41 42.9001 23.55C43.4401 23.71 44.2901 23.76 44.1101 24.69C43.9301 25.62 43.2401 25.3 42.7101 25.29C40.7604 25.3893 38.8545 25.9041 37.1201 26.8C35.0501 27.67 35.0001 30 34.0001 31.72C33.6201 32.38 33.7301 33.62 32.6801 33.43C31.8401 33.28 31.6801 32.22 31.6801 31.36C31.6801 30.1 31.6801 28.84 31.6801 27.58C32.1132 26.8944 32.3645 26.1097 32.4101 25.3V25.3Z" fill="#EBB8AA"/>
<path d="M25.18 39C26.25 38.35 27.18 37.48 28.59 37.49C29.17 37.49 29.77 37.49 30.01 38.17C30.1011 38.4167 30.0913 38.6894 29.9828 38.929C29.8742 39.1686 29.6756 39.3558 29.43 39.45C27.74 40.45 27.3 41.95 27.43 43.8C27.53 45.09 26.74 46.18 26.35 47.35C26.03 48.35 24.98 48.44 24.16 47.66C23.621 47.1289 23.2367 46.4611 23.0482 45.7283C22.8597 44.9955 22.8742 44.2252 23.09 43.5C23.36 42.19 24.43 41.18 24.41 39.78L25.18 39Z" fill="#EAB9AD"/>
<path d="M84 80.1C84 81.23 83.73 81.74 83.25 82.1C82.77 82.46 82.33 82.1 82.03 81.66C81.93 81.51 81.74 81.31 81.6 81.32C80.03 81.43 79.72 80.49 80.02 79.32C80.0523 79.1321 80.1255 78.9536 80.2345 78.7971C80.3435 78.6406 80.4856 78.51 80.6506 78.4146C80.8157 78.3192 80.9998 78.2612 81.1898 78.2449C81.3798 78.2286 81.571 78.2542 81.75 78.32C83.05 78.55 84.24 78.85 84 80.1Z" fill="#DE9385"/>
<path d="M69.25 81.16C68.49 81.76 67.7 81.78 67.16 80.97C67.059 80.8266 66.9932 80.6615 66.9677 80.488C66.9422 80.3145 66.9578 80.1375 67.0133 79.9711C67.0687 79.8048 67.1625 79.6537 67.287 79.5302C67.4115 79.4067 67.5632 79.3142 67.73 79.26C68.73 78.66 69.33 78.94 69.63 80.02V80.78C69.49 80.89 69.39 81 69.25 81.16Z" fill="#DE9385"/>
<path d="M69.63 80C69.4205 79.7033 69.1296 79.4737 68.7924 79.3388C68.4553 79.2039 68.0862 79.1696 67.73 79.24C69 78.18 69.32 78.3 69.63 80Z" fill="#DF9485"/>
<path d="M69.25 81.16L69.63 80.78L69.25 81.16Z" fill="#DF9485"/>
<path d="M60.13 11.25C60.2653 11.4638 60.4157 11.6677 60.58 11.86C61.11 12.38 61.51 12.96 61.11 13.7C60.9118 13.9958 60.6143 14.2109 60.2713 14.3063C59.9283 14.4017 59.5624 14.3711 59.24 14.22C56.894 13.6777 54.4349 13.9201 52.24 14.91C49.95 15.77 48.94 17.71 47.71 19.49C47.33 20.03 47.42 21.11 46.71 21.18C45.84 21.26 46.16 20.07 45.71 19.6C45.08 13.14 53.32 8.42003 58.91 10.81C59.29 11 59.72 11.1 60.13 11.25Z" fill="#EBB9AA"/>
<path d="M40.0001 21.5H38.4801C38.0701 20.5 38.9001 20.5 39.4201 20.41C39.5345 20.365 39.6572 20.3448 39.78 20.3507C39.9029 20.3566 40.0231 20.3885 40.1327 20.4443C40.2423 20.5 40.3388 20.5784 40.416 20.6742C40.4931 20.77 40.549 20.881 40.5801 21C40.6801 21.41 40.2801 21.43 40.0001 21.5Z" fill="#DB9081"/>
<path d="M91.67 86.48L92.05 86.86L91.67 86.48Z" fill="#DE9588"/>
<path d="M133.08 29.86C132.49 30.23 132.83 30.92 132.45 31.66C132.03 30.43 130.29 30.92 130.26 29.08C130.26 27.72 130.71 27.53 131.68 27.35C133.03 27.1 132.68 28.3 133.04 28.92C133.101 29.2304 133.101 29.5497 133.04 29.86H133.08Z" fill="#E7BA64"/>
<path d="M40.0001 9.38997C41.5701 10.25 39.6601 11.08 40.0001 11.94C38.9301 13.17 38.0001 11.94 37.6601 11.42C37.5112 11.2463 37.3998 11.0437 37.3329 10.825C37.266 10.6062 37.2451 10.376 37.2714 10.1488C37.2977 9.92157 37.3706 9.70223 37.4857 9.50453C37.6008 9.30684 37.7555 9.13506 37.9401 8.99997C38.8301 8.34997 39.4601 8.32997 40.0001 9.38997Z" fill="#E6B854"/>
<path d="M117.77 12.26C117.23 12.26 117.33 12 117.49 11.69C117.603 11.4755 117.73 11.2684 117.87 11.07C118.48 10.19 118.25 9.71 117.19 9.62C116.71 7.89 118.42 8.03 119.13 7.12C119.52 7.92 119.23 8.79 120.13 9.2C120.68 9.46 120.4 9.88 120 10.2C119.22 10.87 118.5 11.58 117.77 12.26Z" fill="#E04A41"/>
<path d="M138.38 17.91C138.38 18.41 137.98 18.49 137.58 18.47C137.471 18.4727 137.362 18.4534 137.26 18.4134C137.158 18.3734 137.065 18.3134 136.987 18.237C136.909 18.1606 136.847 18.0693 136.804 17.9685C136.762 17.8677 136.74 17.7594 136.74 17.65C136.68 17.04 137.16 16.97 137.61 17.01C138.06 17.05 138.3 17.47 138.38 17.91Z" fill="#D9524A"/>
<path d="M29.36 2.10999C30.21 2.79999 31.57 3.20999 30.74 4.73999C29.56 4.29999 28.11 3.93999 29.36 2.10999V2.10999Z" fill="#D94543"/>
<path d="M10.4401 15C11.2401 13 11.7101 12.86 13.3001 14.38C12.4901 15.22 11.7501 16.4 10.4401 15Z" fill="#E1524E"/>
<path d="M76.5601 45C74.9199 43.2701 73.9395 41.0191 73.7901 38.64C73.8287 38.068 73.6405 37.5038 73.2662 37.0695C72.8918 36.6353 72.3615 36.366 71.7901 36.32C71.1093 36.1836 70.4032 36.2546 69.7632 36.5238C69.1232 36.793 68.5787 37.248 68.2001 37.83C67.9801 38.13 68.1301 38.55 68.2801 38.92C69.2801 41.47 68.8801 44.08 68.5801 46.68C68.5801 46.9 68.3101 47.1 68.1801 47.3C66.3601 52.15 62.3001 53.93 57.6801 54.75C56.7285 54.9642 55.7338 54.8737 54.8365 54.4915C53.9392 54.1092 53.1848 53.4545 52.6801 52.62C52.9701 51.45 53.7701 51.43 54.6801 51.73C56.4683 52.2601 58.3719 52.2601 60.1601 51.73L60.6701 51.54C61.0147 51.4453 61.3495 51.318 61.6701 51.16L62.0701 50.85C62.1901 50.72 62.3201 50.6 62.4501 50.48C67.1101 45.59 67.1901 39.97 62.6701 35.14C61.3604 33.8316 59.6101 33.0584 57.7609 32.9715C55.9118 32.8846 54.0966 33.4902 52.6701 34.67C50.9701 36.09 50.0901 38.07 48.8401 39.81C48.1801 40.98 48.5801 42.26 48.4801 43.49C48.4801 44.05 48.4801 44.61 48.4801 45.17C48.4801 45.73 48.3501 46.63 47.4801 46.7C46.6101 46.77 46.8301 45.83 46.5301 45.37C44.9401 40.27 48.5901 32.17 53.9401 30.75C58.4501 29.55 62.1101 30.29 65.2701 33.59C66.1901 34.59 66.9801 35.01 68.1101 33.98C68.648 33.5464 69.289 33.2596 69.9707 33.1475C70.6525 33.0353 71.3516 33.1016 72.0001 33.34C73.6101 33.88 73.9101 32.91 74.4101 31.94L74.9201 30.94C75.2001 30.78 75.1001 30.41 75.3201 30.22C75.4582 30.1004 75.5794 29.9624 75.6801 29.81V29.81C75.8405 29.7145 75.9746 29.5805 76.0701 29.42V29.42C76.4163 29.1601 76.7317 28.8615 77.0101 28.53C77.3901 28.02 77.4601 27.08 78.4201 27.45C78.804 27.5884 79.1248 27.8611 79.3234 28.2177C79.5219 28.5743 79.5846 28.9907 79.5001 29.39C79.3001 30.39 78.5001 30.99 78.0701 31.81C75.6001 36.29 76.2001 40.5 79.8301 44C80.2858 44.3412 80.6528 44.7871 80.9001 45.3C80.9189 45.6788 80.8492 46.0568 80.6964 46.404C80.5437 46.7512 80.3121 47.0579 80.0201 47.3C78.5601 47 77.9301 45.49 76.5601 45Z" fill="#4987A8"/>
<path d="M75.87 54.17C78.34 52.84 78.87 52.9 80.94 54.81C81.7722 55.4456 82.3586 56.3499 82.5992 57.369C82.8399 58.3882 82.72 59.4593 82.26 60.4C82.08 60.8 81.87 61.19 81.67 61.58C81.3751 61.7591 81.0318 61.8418 80.6877 61.8167C80.3435 61.7916 80.0158 61.66 79.75 61.44C79.0785 60.9557 78.265 60.7086 77.4376 60.7376C76.6102 60.7665 75.816 61.0699 75.18 61.6C74.292 62.3434 73.1568 62.7254 72 62.67C70.58 62.55 69.68 63.94 68.3 63.87C67.7058 63.329 67.2369 62.6649 66.926 61.9239C66.6151 61.1829 66.4697 60.383 66.5 59.58C66.5 58.74 66.74 58.13 67.63 57.94C69.94 58.01 71.63 56.7 73.4 55.46C74.18 54.93 74.82 54.16 75.87 54.17Z" fill="#3B1413"/>
<path d="M79.89 47.32C79.66 46.48 80.61 46.15 80.68 45.44C81.48 45.06 82.14 45.57 82.84 45.8C87.05 47.17 91.16 45.8 92.98 42.22C95.34 37.64 92.98 28.71 85.5 27.45C84.8698 27.4113 84.2377 27.4789 83.63 27.65C82.878 27.6823 82.1431 27.884 81.48 28.24C80.74 28.67 79.83 28.92 79.4 27.89C79.316 27.6828 79.2776 27.4601 79.2872 27.2368C79.2968 27.0135 79.3543 26.7949 79.4558 26.5958C79.5573 26.3967 79.7003 26.2217 79.8753 26.0826C80.0503 25.9436 80.2531 25.8438 80.47 25.79C83.03 24.72 85.66 24.1 88.41 25.1C89.2479 25.0557 90.0801 25.2599 90.8024 25.6868C91.5247 26.1138 92.1048 26.7446 92.47 27.5V27.58C92.494 27.6451 92.5313 27.7045 92.5795 27.7544C92.6277 27.8044 92.6857 27.8437 92.75 27.87C95.24 31.2 97.02 34.79 96.64 39.11C96.64 39.72 96.77 40.39 96.24 40.89C95.24 42.29 94.95 44.06 93.66 45.26C91.5016 46.1267 89.4122 47.1563 87.41 48.34C87.0557 48.4546 86.6743 48.4546 86.32 48.34C84.4933 47.5954 82.4954 47.3738 80.55 47.7C80.2885 47.6653 80.0513 47.5287 79.89 47.32V47.32Z" fill="#4D87A8"/>
<path d="M68.3301 63.8699C69.6301 62.8699 70.9401 61.8699 72.7501 62.2299C73.6401 62.4199 74.1301 61.6899 74.7501 61.2799C76.9201 59.7799 78.2601 59.7099 80.3001 61.2799C80.8001 61.6599 81.3001 61.4199 81.7001 61.5899C79.6987 63.264 77.9298 65.1978 76.4401 67.3399C75.8379 68.1294 74.9934 68.6996 74.0362 68.9633C73.0789 69.227 72.0616 69.1696 71.1401 68.7999C70.3028 68.4885 69.5939 67.9057 69.1263 67.1446C68.6587 66.3834 68.4594 65.4876 68.5601 64.5999C68.5275 64.3449 68.4496 64.0976 68.3301 63.8699V63.8699Z" fill="#BE2E20"/>
<path d="M92.47 27.5C91.04 27.02 90.34 25.32 88.67 25.26C88.54 25.26 88.48 25.16 88.49 25.07C88.5 24.98 88.49 24.93 88.56 24.93C90.6958 24.2478 92.9818 24.1889 95.15 24.76C98.42 25.56 99.95 27.89 101.08 30.53C101.82 32.27 102.17 33.37 104.55 32.99C108.12 32.41 110.09 33.86 110.91 36.87C111.02 37.28 111.25 37.8 110.68 38C110.11 38.2 110.08 37.69 109.87 37.38C108.976 36.2564 107.688 35.5147 106.268 35.3048C104.848 35.095 103.401 35.4329 102.22 36.25C101.68 36.63 101.22 37.37 100.44 36.84C99.66 36.31 99.61 35.55 99.73 34.66C100.14 31.56 96.55 27.09 93.53 26.87C93.3083 26.8414 93.0834 26.888 92.8913 27.0021C92.6992 27.1163 92.5508 27.2916 92.47 27.5V27.5Z" fill="#D98D7F"/>
<path d="M101.84 55.32C103.12 55.09 103.84 56.15 104.49 57C105.14 57.85 105.79 58.17 106.71 57.21C107.39 56.51 107.92 55.34 109.02 55.4C111.96 55.56 115.02 53.87 117.85 55.86C118.26 56.15 118.85 56.29 118.98 56.86C119.11 57.43 119.91 57.57 119.35 58.14C118.94 58.56 118.49 58.14 118.16 57.96C117.182 57.3375 116.077 56.9416 114.927 56.8015C113.776 56.6613 112.609 56.7804 111.51 57.15C110.03 57.54 109.51 58.82 108.39 59.39C107.62 59.77 107.02 60.49 106.27 60.95C106.015 61.1339 105.72 61.255 105.409 61.3035C105.098 61.352 104.78 61.3265 104.481 61.2291C104.182 61.1317 103.91 60.9651 103.688 60.7428C103.465 60.5206 103.298 60.2489 103.2 59.95C102.92 58.61 101.98 57.95 101.2 57.11C100.83 56.74 100 56.65 100.28 55.9C100.56 55.15 101.17 55.33 101.84 55.32Z" fill="#DB8D7E"/>
<path d="M38.86 60.65C38.1706 60.7465 37.5242 61.0419 37 61.5C36.8958 61.5758 36.7762 61.6277 36.6496 61.6521C36.5231 61.6765 36.3928 61.6729 36.2678 61.6414C36.1429 61.6099 36.0264 61.5514 35.9265 61.4699C35.8267 61.3885 35.7459 61.2861 35.69 61.17C35.37 60.63 35.94 60.44 36.3 60.17C37.7352 59.2588 39.33 58.6277 41 58.31C41.61 58.19 42.36 58.02 42.49 57.31C42.62 56.6 41.9 56.31 41.36 55.98C40.56 55.52 39.13 54.92 39.57 54.17C40.18 53.17 41.44 54.01 42.42 54.4C44.32 55.17 45.42 56.84 46.85 58.18C47.5317 58.9222 48.3977 59.4708 49.36 59.77C49.8 59.89 50.51 59.69 50.55 60.42C50.59 61.15 49.91 61.11 49.55 61.42H49.29C48.5143 61.3159 47.7461 61.1622 46.99 60.96C46.8187 60.9182 46.6514 60.8613 46.49 60.79C44.14 59.9 41.78 60.62 39.42 60.79C39.3223 60.813 39.2205 60.8123 39.123 60.7879C39.0256 60.7636 38.9355 60.7163 38.86 60.65V60.65Z" fill="#D88C7A"/>
<path d="M38.86 60.65H39.24C41.77 60.28 44.3 59.88 46.84 60.65C47.7 60.99 48.62 61.09 49.49 61.4C49.5502 61.5121 49.6004 61.6292 49.64 61.75C49.88 62.75 50.42 64.03 49.64 64.54C48.64 65.22 47.82 64.13 46.99 63.41C46.16 62.69 45.13 61.56 43.99 63.15C43.78 63.44 43.55 63.48 43.18 63.3C40.89 62.24 40.88 62.3 40.34 64.55C39.92 63.24 38 62.56 38.86 60.65Z" fill="#E9BFB1"/>
<path d="M79.8901 47.32H80.6201C82.5459 47.4101 84.4618 47.6508 86.3501 48.04H87.4901C89.6901 47.39 91.4201 45.79 93.5601 45.04C94.3901 43.6 94.7701 41.87 96.2901 40.88C95.8601 46.65 89.2901 50.44 83.9301 49.46C80.9301 48.91 78.2601 47.77 76.5601 45.03C78.2401 45 79.0601 46.14 79.8901 47.32Z" fill="#5B7D8B"/>
<path d="M75.87 54.17C74.0457 55.688 72.0801 57.0275 70 58.17C69.2 58.6 68.37 58.87 67.67 57.97C67.5682 57.6994 67.5452 57.4055 67.6036 57.1223C67.662 56.8391 67.7994 56.5783 68 56.37C69.81 54.11 72 52.58 75 52.62C76.5 52.64 76.42 53.21 75.87 54.17Z" fill="#EAE6E6"/>
<path d="M46.49 45.4599C46.97 45.6699 46.75 46.7599 47.6 46.4099C48.18 46.1699 47.95 45.5299 47.96 45.0599C47.96 43.7399 47.96 42.4199 47.96 41.0599C47.96 40.3499 47.96 39.6499 48.75 39.3199C49.42 40.0099 49.19 40.8399 49.08 41.6399C48.31 47.4499 52.59 51.9899 58.5 51.6399C59.28 51.6399 60.11 51.1899 60.86 51.7999C58.92 53.1899 56.79 52.7999 54.76 52.2399C53.93 52.0299 53.38 51.6799 52.9 52.6099C51.35 52.9699 50.54 51.6799 49.44 51.0499C48.5882 50.3731 47.8861 49.5268 47.3783 48.5645C46.8705 47.6023 46.568 46.5451 46.49 45.4599V45.4599Z" fill="#6799AE"/>
<path d="M49.4501 51.12L52.9101 52.68C54.9101 54.31 56.8301 55.06 59.5401 53.94C61.3701 53.19 63.0301 52.13 64.8701 51.44C65.3214 51.2257 65.7201 50.915 66.0381 50.5296C66.3561 50.1443 66.5855 49.6938 66.7101 49.21C67.1154 48.5163 67.6208 47.8862 68.2101 47.34C67.9379 48.9328 67.2349 50.4207 66.1772 51.6423C65.1195 52.8639 63.7475 53.7727 62.2101 54.27C56.9401 56.19 53.2701 55.22 49.4501 51.12Z" fill="#697F89"/>
<path d="M88.5601 24.93C88.5601 25.04 88.6401 25.15 88.6701 25.26C87.2501 25.65 85.8301 25.09 84.4301 25.04C82.7801 24.97 81.9301 26.53 80.3601 26.34C79.9801 26.29 79.3601 27.21 79.7401 27.87C80.1201 28.53 80.8001 28.16 81.2001 27.87C81.5491 27.6019 81.9487 27.407 82.3748 27.2971C82.8009 27.1871 83.2449 27.1643 83.6801 27.23C83.131 27.9191 82.4369 28.4789 81.647 28.8695C80.8572 29.2601 79.991 29.4719 79.1101 29.49C79.1101 28.75 78.9701 28.05 78.2401 27.85C77.3401 27.62 77.7901 28.66 77.3801 28.96C77.0199 29.2924 76.5501 29.481 76.0601 29.49C77.3101 26.49 79.9001 25.33 82.7401 24.6C84.0369 24.3621 85.3517 24.235 86.6701 24.22C87.1601 24.55 87.8001 24.59 88.2701 24.96C88.3677 24.9753 88.4676 24.9649 88.5601 24.93Z" fill="#85A1AE"/>
<path d="M88.27 24.92C87.9603 24.9656 87.6439 24.9199 87.3598 24.7885C87.0756 24.657 86.8359 24.4456 86.67 24.18C86.9812 24.0974 87.3114 24.1261 87.6036 24.2613C87.8958 24.3964 88.1315 24.6294 88.27 24.92V24.92Z" fill="#D98D7F"/>
<path d="M75.33 30.23C75.33 30.55 75.27 30.83 74.93 30.95C74.915 30.8035 74.9453 30.6559 75.0169 30.5271C75.0884 30.3984 75.1977 30.2947 75.33 30.23V30.23Z" fill="#85A1AE"/>
<path d="M75.6901 29.83L75.3301 30.24L75.6901 29.83Z" fill="#85A1AE"/>
<path d="M76.0701 29.45L75.6901 29.84L76.0701 29.45Z" fill="#85A1AE"/>
<path d="M92.8 27.87L92.52 27.58L92.8 27.87Z" fill="#D98D7F"/>
<path d="M56.92 22C56.791 22.0851 56.6492 22.1493 56.5 22.19C56.3 22.19 56.16 22.05 56.29 21.84C56.3214 21.787 56.3633 21.741 56.4132 21.7049C56.4631 21.6688 56.5199 21.6433 56.58 21.63C56.79 21.6 56.92 21.7 56.92 22Z" fill="#DB9182"/>
<path d="M79.11 29.45L83.68 27.19C85.37 26.01 87.01 27.19 88.3 27.75C93.57 30.2 96.14 37.95 93.3 42.75C92.1856 44.6109 90.4078 45.9807 88.3242 46.5836C86.2407 47.1866 84.0061 46.9781 82.07 46C81.61 45.78 81.14 45.61 80.68 45.42C75.58 41.8 74.2 35.32 79.11 29.45Z" fill="#EBC6BC"/>
<path d="M60.8701 51.87C56.9201 52.87 53.4501 52.16 50.6401 49.04C49.6776 48.0503 48.9876 46.8285 48.6371 45.4932C48.2866 44.158 48.2877 42.7547 48.6401 41.42C48.7472 40.7418 48.804 40.0566 48.8101 39.37C49.5654 37.9202 50.4596 36.5471 51.4801 35.27C54.7901 31.44 61.4101 31.21 64.8701 37.07C67.8701 42.07 66.9201 47.23 62.4701 51.15C62.3393 51.2773 62.1989 51.3943 62.0501 51.5C61.7601 51.9 61.2201 51.57 60.9001 51.9L60.8701 51.87Z" fill="#EDC6BC"/>
<path d="M60.87 51.88C61.1917 51.6109 61.6007 51.4687 62.02 51.48C61.77 52 61.31 51.91 60.87 51.88Z" fill="#6799AE"/>
<path d="M62 51.5L62.42 51.15L62 51.5Z" fill="#6799AE"/>
<path d="M93.56 45.05C91.94 45.73 91.04 47.54 89.12 47.82C88.5838 47.9446 88.0389 48.0281 87.49 48.07C88.36 46.38 90.49 46.77 91.65 45.6C92.18 45.08 92.69 44.43 93.56 45.05Z" fill="#4987A8"/>
<path d="M86.35 48.09C84.41 48.09 82.44 48.34 80.62 47.37C81.568 47.0529 82.5751 46.9531 83.567 47.0777C84.5588 47.2023 85.5099 47.5483 86.35 48.09V48.09Z" fill="#4987A8"/>
<path d="M46.84 60.64H39.24C40.41 59.34 41.98 60.29 43.35 59.97C44.46 59.69 45.86 59.52 46.84 60.64Z" fill="#E9A593"/>
<path d="M49.49 61.39C48.5436 61.4841 47.5967 61.2161 46.84 60.64C47.7859 60.5508 48.7311 60.8183 49.49 61.39Z" fill="#E9A593"/>
<path d="M85.5601 36.1C85.3801 36.99 86.0201 38.3 84.9801 39.4C83.9401 40.5 80.3701 41.34 79.1901 40.65C78.0101 39.96 77.1901 36.73 77.7701 34.86C78.0684 33.6549 78.7527 32.5804 79.7187 31.8004C80.6846 31.0205 81.8791 30.5778 83.1201 30.54C84.9801 30.32 85.1201 31.94 85.5201 33.14C85.6519 34.1215 85.6654 35.1153 85.5601 36.1V36.1Z" fill="#EED7D3"/>
<path d="M86.84 39.29C87.6013 39.3097 88.3267 39.6183 88.869 40.1531C89.4112 40.688 89.7297 41.409 89.76 42.17C89.76 43.63 88.33 45.33 87.04 45.32C86.2834 45.3153 85.5579 45.0181 85.0155 44.4906C84.4731 43.9631 84.1558 43.2462 84.13 42.49C84.12 40.57 85.2 39.3 86.84 39.29Z" fill="#846F6E"/>
<path d="M59 40.19C59.11 40.42 59.36 40.75 59.29 40.86C58.03 42.73 57.55 45.15 55.18 46.25C52.5 47.49 50.33 46.08 49.82 43.18C49.37 40.67 50.4 38.92 51.44 36.9C52.48 34.88 54.34 35.8 55.66 35C55.88 34.87 55.96 35.59 56.02 35.94C56.48 37.71 57.19 39.33 59 40.19Z" fill="#F1D9D5"/>
<path d="M59 40.19C56.49 39.81 56 39.05 56 35.94C56.85 34.73 57.77 33.71 59.51 34C60.51 34.16 61.17 34.49 61.27 35.56C60.51 35.84 60.04 35.04 59.16 35.06C59.7613 36.1369 59.9362 37.4003 59.65 38.6C60.27 39.06 60.77 38.19 61.3 38.6C61.08 40 60.08 40.17 59 40.19Z" fill="#B9ACA9"/>
<path d="M61.29 38.63C60.99 38.86 60.69 39.09 60.4 39.33C60.11 39.57 59.79 39.82 59.4 39.65C59.01 39.48 59 38.9 59 38.5C59.24 37.28 59.79 36.07 58.19 35.23C57.62 34.93 58.01 34.5 58.57 34.39C59.73 34.17 60.44 34.96 61.23 35.56C61.6043 36.5456 61.6255 37.6305 61.29 38.63Z" fill="#836E6D"/>
<path d="M86.42 42.67C86.3102 42.67 86.2015 42.6482 86.1001 42.6059C85.9987 42.5636 85.9068 42.5015 85.8296 42.4234C85.7524 42.3453 85.6915 42.2526 85.6503 42.1507C85.6092 42.0489 85.5887 41.9399 85.59 41.83C85.53 41.36 85.5901 40.93 86.1801 40.83C86.7701 40.73 87.0701 40.93 87.1201 41.49C87.1759 41.7389 87.1345 41.9997 87.0043 42.219C86.8742 42.4384 86.6652 42.5997 86.42 42.67V42.67Z" fill="#D2C2C9"/>
</svg>
