<svg width="357" height="61" viewBox="0 0 357 61" fill="none" xmlns="http://www.w3.org/2000/svg">
<g filter="url(#filter0_d)">
<path d="M29.3496 0.146729C30.7921 0.146729 31.7678 1.31109 31.516 2.7272L27.2619 26.843C27.0101 28.2644 25.6253 29.4235 24.1828 29.4235H18.9373C17.4947 29.4235 16.5191 28.2592 16.7709 26.843L21.025 2.73244C21.2768 1.31109 22.6616 0.146729 24.1041 0.146729H29.3496Z" fill="#FF604E"/>
<path d="M15.491 34.1071C15.7428 32.6857 17.1276 31.5266 18.5701 31.5266H23.8156C25.2581 31.5266 26.2338 32.691 25.982 34.1071L23.1757 50.0147C22.9239 51.4361 21.5391 52.5952 20.0965 52.5952H14.8563C13.4137 52.5952 12.4381 51.4308 12.6899 50.0147L15.491 34.1071Z" fill="#FF604E"/>
<path d="M50.3102 0.146729C51.7527 0.146729 52.7284 1.31109 52.4766 2.7272L49.686 18.5562C49.4342 19.9775 48.0494 21.1366 46.6069 21.1366H41.3613C39.9188 21.1366 38.9431 19.9723 39.1949 18.5562L41.9856 2.73244C42.2373 1.31109 43.6222 0.146729 45.0647 0.146729H50.3102Z" fill="#FF604E"/>
<path d="M46.2395 23.2346C47.682 23.2346 48.6576 24.399 48.4059 25.8151L44.1412 50.0096C43.8895 51.431 42.5046 52.5901 41.0621 52.5901H35.8166C34.3741 52.5901 33.3984 51.4257 33.6502 50.0096L37.9148 25.8151C38.1666 24.3937 39.5514 23.2346 40.9939 23.2346H46.2395Z" fill="#FF604E"/>
<path d="M44.7606 31.6055C46.2031 31.6055 47.1788 32.7698 46.927 34.1859L45.988 39.5095C45.7363 40.9308 44.3514 42.0899 42.9089 42.0899H6.206C4.76348 42.0899 3.78781 40.9256 4.0396 39.5095L4.9733 34.1859C5.22509 32.7646 6.60991 31.6055 8.05242 31.6055H44.7606Z" fill="#FF604E"/>
<path d="M55.2625 31.6055C56.705 31.6055 57.6807 32.7698 57.4289 34.1859L56.4899 39.5095C56.2381 40.9308 54.8533 42.0899 53.4108 42.0899H50.253C48.8105 42.0899 47.8348 40.9256 48.0866 39.5095L49.0255 34.1859C49.2773 32.7646 50.6621 31.6055 52.1047 31.6055H55.2625Z" fill="#FF604E"/>
<path d="M8.67117 13.2274C8.92296 11.8061 10.3078 10.647 11.7503 10.647H14.9081C16.3506 10.647 17.3263 11.8113 17.0745 13.2274L16.1356 18.5562C15.8838 19.9776 14.499 21.1367 13.0564 21.1367H9.89863C8.45611 21.1367 7.48044 19.9723 7.73223 18.5562L8.67117 13.2274Z" fill="#FF604E"/>
<path d="M58.9601 10.647C60.4026 10.647 61.3782 11.8113 61.1265 13.2274L60.1875 18.5562C59.9357 19.9776 58.5509 21.1367 57.1084 21.1367H20.4002C18.9577 21.1367 17.982 19.9723 18.2338 18.5562L19.1728 13.2327C19.4245 11.8113 20.8094 10.6522 22.2519 10.6522H58.9601V10.647Z" fill="#FF604E"/>
<path d="M179.849 41.9008C177.546 41.2347 176.555 40.6421 176.555 40.6421C175.317 39.9025 174.787 38.219 175.38 36.9077L175.674 36.2574C176.266 34.9409 177.761 34.4794 178.994 35.2241C178.994 35.2241 179.676 35.6332 181.517 36.2311C183.358 36.8238 185.199 37.1228 187.041 37.1228C189.092 37.1228 190.602 36.8186 191.583 36.2102C192.564 35.6018 193.052 34.7941 193.052 33.7818C193.052 33.0423 192.764 32.4234 192.181 31.9356C191.604 31.4478 190.859 31.0545 189.952 30.7555C189.044 30.4566 187.822 30.1314 186.275 29.7747C183.899 29.2135 181.953 28.6471 180.437 28.0806C178.921 27.5194 177.625 26.6121 176.539 25.3638C175.453 24.1155 174.913 22.4529 174.913 20.376C174.913 18.5665 175.401 16.9248 176.382 15.4563C177.363 13.9877 178.837 12.8234 180.814 11.958C182.787 11.0978 185.205 10.6677 188.053 10.6677C190.041 10.6677 191.987 10.9037 193.891 11.381C195.79 11.8583 196.546 12.2412 196.546 12.2412C197.831 12.8968 198.439 14.5227 197.894 15.8601L197.642 16.479C197.096 17.8165 195.57 18.4458 194.243 17.8846C194.243 17.8846 190.896 16.4633 188.016 16.4633C185.997 16.4633 184.502 16.7885 183.537 17.4441C182.571 18.0997 182.089 18.9598 182.089 20.0298C182.089 21.0997 182.645 21.8917 183.757 22.411C184.869 22.9302 186.569 23.4442 188.856 23.9477C191.232 24.5141 193.178 25.0753 194.694 25.6418C196.21 26.2082 197.505 27.0946 198.591 28.3167C199.677 29.5335 200.217 31.1804 200.217 33.2626C200.217 35.0458 199.719 36.6717 198.728 38.1403C197.731 39.6088 196.241 40.7784 194.253 41.6386C192.265 42.4988 189.842 42.9288 186.993 42.9288C184.533 42.9026 182.147 42.5669 179.849 41.9008Z" fill="#191847"/>
<path d="M96.1883 18.5824C94.7458 16.2379 92.7263 14.418 90.1298 13.1277C87.5332 11.8375 83.7617 11.4546 83.7617 11.4546C82.3244 11.3078 79.9744 11.1924 78.5319 11.1924H69.6093C68.1668 11.1924 66.9865 12.3725 66.9865 13.8148V31.684C66.9865 33.1264 68.1668 34.3065 69.6093 34.3065H71.5816C73.0241 34.3065 74.2043 33.1264 74.2043 31.684V19.7363C74.2043 18.2939 75.3846 17.1138 76.8271 17.1138H78.1752C79.6177 17.1138 81.9625 17.2921 83.3893 17.5177C83.3893 17.5177 86.4002 17.9845 88.2571 19.7205C90.114 21.4566 91.0425 23.8115 91.0425 26.7801C91.0425 29.7487 90.114 32.1036 88.2571 33.8397C86.4002 35.5757 83.3893 36.0425 83.3893 36.0425C81.9625 36.2628 79.6177 36.4464 78.1752 36.4464H76.8271C75.3846 36.4464 74.2043 36.4411 74.2043 36.4306C74.2043 36.4254 73.0241 36.4149 71.5816 36.4149H69.6093C68.1668 36.4149 66.9865 37.595 66.9865 39.0373V39.7454C66.9865 41.1877 68.1668 42.3678 69.6093 42.3678H78.5319C79.9744 42.3678 82.3297 42.2472 83.7617 42.1056C83.7617 42.1056 87.528 41.7227 90.1298 40.4325C92.7263 39.1422 94.7458 37.3223 96.1883 34.9778C97.6309 32.6333 98.3495 29.9008 98.3495 26.7801C98.3495 23.6594 97.6309 20.9268 96.1883 18.5824Z" fill="#191847"/>
<path d="M106.406 11.1871C104.964 11.1871 103.784 12.3672 103.784 13.8096V14.3603C103.784 15.8026 104.964 16.9827 106.406 16.9827H108.332C109.774 16.9827 110.954 16.9827 110.954 16.9775C110.954 16.9722 112.135 16.9722 113.577 16.9722H124.724C126.166 16.9722 127.347 15.7921 127.347 14.3498V13.8043C127.347 12.362 126.166 11.1819 124.724 11.1819H106.406V11.1871ZM113.577 36.5775C112.135 36.5775 110.954 35.3974 110.954 33.955V31.983C110.954 30.5406 112.135 29.3606 113.577 29.3606H122.809C124.252 29.3606 125.432 28.1805 125.432 26.7381V26.371C125.432 24.9287 124.252 23.7486 122.809 23.7486H113.577C112.135 23.7486 110.954 22.6996 110.954 21.4251C110.954 20.1506 109.774 19.1016 108.332 19.1016H106.406C104.964 19.1016 103.784 20.2817 103.784 21.724V39.7454C103.784 41.1877 104.964 42.3678 106.406 42.3678H125.306C126.749 42.3678 127.929 41.1877 127.929 39.7454V39.1999C127.929 37.7576 126.749 36.5775 125.306 36.5775H113.577Z" fill="#191847"/>
<path d="M136.296 11.187C134.853 11.187 133.673 12.3671 133.673 13.8094V14.3549C133.673 15.7972 134.853 16.9773 136.296 16.9773H154.618C156.061 16.9773 157.241 15.7972 157.241 14.3549V13.8094C157.241 12.3671 156.061 11.187 154.618 11.187H136.296ZM143.514 25.2222C142.071 25.2222 140.891 24.0422 140.891 22.5998V21.7187C140.891 20.2763 139.711 19.0963 138.268 19.0963H136.296C134.853 19.0963 133.673 20.2763 133.673 21.7187V39.7453C133.673 41.1876 134.853 42.3677 136.296 42.3677H138.268C139.711 42.3677 140.891 41.1876 140.891 39.7453V33.635C140.891 32.1927 142.071 31.0126 143.514 31.0126H152.704C154.146 31.0126 155.327 29.8325 155.327 28.3901V27.8447C155.327 26.4023 154.146 25.2222 152.704 25.2222H143.514Z" fill="#191847"/>
<path d="M164.763 11.187C163.321 11.187 162.141 12.3671 162.141 13.8094V14.3549C162.141 15.7972 163.321 16.9773 164.763 16.9773H166.736C168.178 16.9773 169.358 15.7972 169.358 14.3549V13.8094C169.358 12.3671 168.178 11.187 166.736 11.187H164.763ZM164.763 19.091C163.321 19.091 162.141 20.2711 162.141 21.7134V39.7453C162.141 41.1876 163.321 42.3677 164.763 42.3677H166.736C168.178 42.3677 169.358 41.1876 169.358 39.7453V21.7134C169.358 20.2711 168.178 19.091 166.736 19.091H164.763Z" fill="#191847"/>
<path d="M220.628 36.7558C218.698 36.7558 216.977 36.3309 215.461 35.4865C213.945 34.6421 212.765 33.462 211.92 31.9462C211.076 30.4305 210.651 28.7101 210.651 26.78C210.651 24.8499 211.076 23.1296 211.92 21.6139C212.765 20.0981 213.945 18.918 215.461 18.0736C216.977 17.2292 218.698 16.8043 220.628 16.8043C223.749 16.8043 226.393 18.8551 226.393 18.8551C227.536 19.7362 229.335 19.6575 230.395 18.682L231.171 17.9634C232.231 16.9826 232.242 15.3725 231.198 14.3812C231.198 14.3812 229.781 13.0385 227.599 12.0892C225.417 11.1399 222.973 10.6626 220.271 10.6626C217.061 10.6626 214.176 11.3549 211.606 12.7343C209.035 14.1137 207.016 16.0281 205.547 18.4774C204.078 20.9268 203.339 23.6961 203.339 26.7853C203.339 29.8745 204.073 32.6438 205.547 35.0931C207.016 37.5425 209.035 39.4569 211.606 40.8363C214.176 42.2157 217.045 42.908 220.224 42.908C222.925 42.908 225.375 42.4307 227.573 41.4814C229.771 40.5321 231.203 39.1527 231.203 39.1527C232.242 38.1561 232.226 36.5355 231.166 35.5599L230.39 34.8414C229.33 33.8606 227.531 33.7924 226.398 34.6788C226.408 34.6735 223.749 36.7558 220.628 36.7558Z" fill="#191847"/>
<path d="M267.229 18.5141C265.745 16.0648 263.71 14.1399 261.124 12.7448C258.543 11.3497 255.626 10.6521 252.395 10.6521C249.159 10.6521 246.242 11.3497 243.64 12.7448C241.044 14.1399 239.009 16.0648 237.535 18.5141C236.066 20.9635 235.331 23.717 235.331 26.7748C235.331 29.8325 236.066 32.5861 237.535 35.0354C239.003 37.4848 241.039 39.4096 243.64 40.8048C246.237 42.1999 249.159 42.8975 252.395 42.8975C255.632 42.8975 258.543 42.1999 261.124 40.8048C263.71 39.4096 265.74 37.4848 267.229 35.0354C268.714 32.5861 269.459 29.8325 269.459 26.7748C269.454 23.7223 268.714 20.9635 267.229 18.5141ZM260.877 31.9462C260.033 33.462 258.868 34.6421 257.378 35.4865C255.894 36.3309 254.231 36.7558 252.39 36.7558C250.549 36.7558 248.886 36.3309 247.401 35.4865C245.917 34.6421 244.752 33.462 243.903 31.9462C243.058 30.4305 242.633 28.7101 242.633 26.78C242.633 24.8499 243.058 23.1296 243.903 21.6138C244.747 20.0981 245.912 18.918 247.401 18.0736C248.891 17.2291 250.549 16.8043 252.39 16.8043C254.231 16.8043 255.894 17.2291 257.378 18.0736C258.863 18.918 260.027 20.0981 260.877 21.6138C261.722 23.1296 262.147 24.8499 262.147 26.78C262.152 28.7101 261.727 30.4305 260.877 31.9462Z" fill="#191847"/>
<path d="M299.295 11.1871C297.853 11.1871 296.206 12.2728 295.634 13.5945L288.091 31.0494C287.519 32.3711 286.585 34.5425 286.013 35.8642L284.256 39.9552C283.684 41.2821 284.398 42.3625 285.84 42.3625H287.724C289.166 42.3625 290.813 41.2821 291.39 39.9552L302.804 13.5893C303.376 12.2676 302.668 11.1819 301.226 11.1819H299.295V11.1871ZM278.591 13.5998C278.025 12.2728 276.383 11.1871 274.94 11.1871H272.391C270.948 11.1871 270.235 12.2728 270.807 13.5945L280.506 36.074C281.077 37.4009 282.011 37.3957 282.583 36.074L284.345 31.9777C284.917 30.6508 284.922 28.4847 284.356 27.1577L278.591 13.5998Z" fill="#191847"/>
<path d="M313.647 13.8094C313.647 12.3671 312.466 11.187 311.024 11.187H309.051C307.609 11.187 306.429 12.3671 306.429 13.8094V14.3549C306.429 15.7972 307.609 16.9773 309.051 16.9773H311.024C312.466 16.9773 313.647 15.7972 313.647 14.3549V13.8094ZM313.647 39.7453C313.647 41.1876 312.466 42.3677 311.024 42.3677H309.051C307.609 42.3677 306.429 41.1876 306.429 39.7453V21.7134C306.429 20.2711 307.609 19.091 309.051 19.091H311.024C312.466 19.091 313.647 20.2711 313.647 21.7134V39.7453Z" fill="#191847"/>
<path d="M332.227 17.1191C333.669 17.1191 336.014 17.2974 337.441 17.5177C337.441 17.5177 340.452 17.9845 342.308 19.7205C344.165 21.4566 345.094 23.8115 345.094 26.7801C345.094 29.7487 344.165 32.1036 342.308 33.8397C340.452 35.5757 337.441 36.0425 337.441 36.0425C336.014 36.2628 333.669 36.4464 332.227 36.4464H330.879C329.436 36.4464 328.256 35.2663 328.256 33.8239V21.7136C328.256 20.2712 327.076 19.0911 325.633 19.0911H323.661C322.218 19.0911 321.038 20.2712 321.038 21.7136V39.7454C321.038 41.1877 322.218 42.3678 323.661 42.3678H332.583C334.026 42.3678 336.381 42.2472 337.813 42.1056C337.813 42.1056 341.579 41.7227 344.181 40.4325C346.778 39.1422 348.797 37.3223 350.24 34.9778C351.682 32.6333 352.401 29.9008 352.401 26.7801C352.401 23.6594 351.682 20.9321 350.24 18.5824C348.797 16.2379 346.783 14.418 344.181 13.1277C341.585 11.8375 337.813 11.4546 337.813 11.4546C336.376 11.3078 334.026 11.1924 332.583 11.1924H323.661C322.218 11.1924 321.038 12.3725 321.038 13.8148V14.5176C321.038 15.96 322.218 17.14 323.661 17.1348L332.227 17.1191Z" fill="#191847"/>
</g>
<defs>
<filter id="filter0_d" x="0" y="0.146729" width="356.401" height="60.4485" filterUnits="userSpaceOnUse" color-interpolation-filters="sRGB">
<feFlood flood-opacity="0" result="BackgroundImageFix"/>
<feColorMatrix in="SourceAlpha" type="matrix" values="0 0 0 0 0 0 0 0 0 0 0 0 0 0 0 0 0 0 127 0"/>
<feOffset dy="4"/>
<feGaussianBlur stdDeviation="2"/>
<feColorMatrix type="matrix" values="0 0 0 0 0 0 0 0 0 0 0 0 0 0 0 0 0 0 0.25 0"/>
<feBlend mode="normal" in2="BackgroundImageFix" result="effect1_dropShadow"/>
<feBlend mode="normal" in="SourceGraphic" in2="effect1_dropShadow" result="shape"/>
</filter>
</defs>
</svg>
