<svg width="66" height="57" viewBox="0 0 66 57" fill="none" xmlns="http://www.w3.org/2000/svg">
<path d="M32.125 14.7739L11.0009 33.9211V54.5863C11.0009 55.1214 11.194 55.6345 11.5378 56.0129C11.8816 56.3912 12.3479 56.6038 12.8341 56.6038L25.6733 56.5672C26.1579 56.5646 26.6218 56.3508 26.9636 55.9728C27.3054 55.5947 27.4973 55.0831 27.4973 54.5498V42.4815C27.4973 41.9464 27.6904 41.4332 28.0342 41.0549C28.378 40.6765 28.8443 40.464 29.3305 40.464H36.6633C37.1495 40.464 37.6157 40.6765 37.9595 41.0549C38.3033 41.4332 38.4965 41.9464 38.4965 42.4815V54.5409C38.4957 54.8064 38.5426 55.0694 38.6343 55.3149C38.7261 55.5604 38.8611 55.7836 39.0314 55.9716C39.2017 56.1596 39.404 56.3088 39.6268 56.4105C39.8496 56.5123 40.0884 56.5647 40.3296 56.5647L53.1643 56.6038C53.6505 56.6038 54.1168 56.3912 54.4605 56.0129C54.8043 55.6345 54.9975 55.1214 54.9975 54.5863V33.9072L33.878 14.7739C33.6297 14.5537 33.3204 14.4336 33.0015 14.4336C32.6826 14.4336 32.3733 14.5537 32.125 14.7739ZM65.4925 27.7879L55.9141 19.0989V1.63387C55.9141 1.23256 55.7692 0.8477 55.5114 0.563937C55.2535 0.280175 54.9038 0.120758 54.5392 0.120758H48.123C47.7584 0.120758 47.4087 0.280175 47.1508 0.563937C46.893 0.8477 46.7481 1.23256 46.7481 1.63387V10.7894L36.4903 1.50147C35.5059 0.60997 34.2706 0.12254 32.9957 0.12254C31.7209 0.12254 30.4856 0.60997 29.5012 1.50147L0.49897 27.7879C0.359748 27.9146 0.244564 28.0702 0.159999 28.2458C0.0754334 28.4214 0.0231449 28.6137 0.00612075 28.8116C-0.0109034 29.0095 0.00767038 29.2091 0.0607809 29.3991C0.113891 29.5891 0.200498 29.7657 0.315651 29.9189L3.2373 33.8278C3.35214 33.9814 3.49339 34.1087 3.65297 34.2022C3.81256 34.2957 3.98733 34.3537 4.16729 34.3728C4.34726 34.3919 4.52887 34.3717 4.70175 34.3134C4.87462 34.2552 5.03536 34.16 5.17476 34.0333L32.125 9.60416C32.3733 9.38391 32.6826 9.2638 33.0015 9.2638C33.3204 9.2638 33.6297 9.38391 33.878 9.60416L60.8293 34.0333C60.9685 34.16 61.129 34.2553 61.3016 34.3138C61.4742 34.3722 61.6556 34.3927 61.8355 34.3739C62.0153 34.3552 62.19 34.2976 62.3496 34.2046C62.5092 34.1115 62.6506 33.9847 62.7656 33.8315L65.6873 29.9227C65.8023 29.7686 65.8885 29.5911 65.941 29.4003C65.9935 29.2095 66.0112 29.0091 65.9931 28.8107C65.975 28.6124 65.9215 28.4199 65.8356 28.2444C65.7496 28.0688 65.6331 27.9137 65.4925 27.7879Z" fill="#FF604E"/>
</svg>
