<svg width="150" height="126" viewBox="0 0 150 126" fill="none" xmlns="http://www.w3.org/2000/svg">
<path d="M93.3001 45.87H56.7001V79.47H93.3001V45.87Z" fill="#F4B884"/>
<path d="M76.48 60.77H73.53V64.58H76.48V60.77Z" fill="#E7774E"/>
<path d="M76.61 61.5H73.39V63.85H76.61V61.5Z" fill="#F0914E"/>
<path d="M52.45 0.550014C64.1 0.620014 75.55 0.440014 87 0.140014C89.72 0.310014 93 -0.619986 95.46 0.830014C97.12 2.14001 99.7201 3.12001 99.3701 5.64001C99.9601 13.64 99.7901 21.74 99.8001 29.79C99.6701 31 100.07 32.62 99.03 33.48C97.96 33.17 97.89 33.05 97.63 31.37C97.55 32.37 97.0801 33.31 96.1101 31.67C92.8501 37.15 95.05 15.54 94.45 13.79C94.73 7.21001 85.86 10.79 81.78 9.90001C77.11 11 50.47 7.22001 51.61 12.49C51.61 21.05 51.61 29.59 51.61 38.15C51.84 41.63 50.82 43.89 46.93 42.38C46.6304 42.1321 46.3988 41.812 46.257 41.4499C46.1153 41.0877 46.0682 40.6954 46.12 40.31C46.25 31.43 45.6801 22.45 46.4901 13.65C46.6201 9.00001 44.86 -0.609986 52.45 0.550014Z" fill="#F0914E"/>
<path d="M73.68 124.69C60.6288 125.485 47.5413 125.485 34.49 124.69C28.94 126 22.83 124.94 17.08 125.15C12.77 124.94 8.08003 126.02 4.01003 124.64C-0.289969 124.16 -1.14997 118.71 1.52003 115.87C4.71003 113.66 9.04003 114.76 12.71 114.63C21.25 114.42 29.77 114.63 38.31 114.58C42.53 114.47 43.43 109.74 41.38 106.77C41.09 105.09 39.38 105.67 38.17 105.64C31.35 104.64 9.70003 110.17 14.63 97.3C18.09 93.99 22.48 96.94 26.36 95.61C28.36 94.44 27.46 97.17 28.72 96.46C31.17 95.59 33.79 96.71 36.3 95.87C38.3 95.04 39.44 97.53 40.82 96.61C43.28 95.38 45.27 99.61 48.28 98C60.58 95.88 60.81 106.56 74.15 107C76.32 107.2 76.43 107.39 76.43 109.63C75.66 112.15 78.67 128.16 73.68 124.69Z" fill="#F19450"/>
<path d="M82.34 124.64C79.79 124.28 74.88 126.15 76.24 121.98C76.24 114.56 76.36 107.19 76.07 99.76C75.22 84.31 80.7 75.76 95.74 71.47C97.41 61.72 95.8 50.79 96.34 40.65C96.2699 38.2477 96.9288 35.8805 98.23 33.86C100.38 29.95 104.32 28.12 108.68 28.11C113.68 28.35 110.68 41.47 111.36 45.21C112.2 59.93 117.7 74.35 114.05 89.09C113.19 92.38 112.84 95.87 110.7 98.68C109.37 100.5 109.63 102.68 109.39 104.68C107.98 113.9 112.12 113.99 102.16 118.16C100.77 118.49 100.41 119.8 99.54 120.64C96.6286 120.873 93.7728 121.569 91.08 122.7C87.91 122.8 85.48 126.75 82.34 124.64Z" fill="#F9D5B6"/>
<path d="M114.91 78.4701C114.2 62.4701 109.2 46.7501 110.76 30.4701C108.9 26.0001 102 30.4001 99.2601 32.3101C99.1601 23.3101 99.0567 14.3101 98.9501 5.31006C100.95 10.0901 105.02 6.43006 107.95 7.48006C109.38 7.99006 111.18 7.48006 112.81 7.38006C124.43 7.92006 136.35 6.20006 147.74 8.38006C151.15 9.51006 150.36 15.3801 147.45 16.6801C135.26 18.7701 122.45 16.1901 110.19 17.7901C104.81 19.5001 107.37 27.2601 113.02 26.2801C120.11 26.6801 127.88 24.9701 134.62 27.1801C137.73 28.9601 137.48 34.1201 134.4 35.8701C131.76 37.4901 128.45 36.6701 125.5 36.8701C119.24 36.2901 120.04 45.7601 125.7 45.7001C127.93 45.7001 130.16 45.8401 132.4 45.8101C136.4 45.3901 138.67 52.3401 135.21 54.4601C132.64 55.9101 133.21 58.0801 133.41 60.2501C133.95 67.7801 134.29 76.8001 130.72 83.4901C129.72 83.3001 130.19 81.6301 129.43 81.6901C128.79 83.5501 127.43 83.3001 127.43 81.3001C127.59 78.9501 124.43 78.5401 122.92 80.0101C121.4 81.7001 119.3 82.1601 117.18 82.4001C115.09 82.2301 116.69 79.1601 114.91 78.4701Z" fill="#F5BC68"/>
<path d="M38.87 19.54C41.58 17.54 45.31 16.86 46.92 13.42C45.92 17.97 49.34 43.3 45.12 42.67C40.38 42.58 33.63 41.86 33.84 48.67C33.59 55.12 40.2 54.67 44.79 54.48C47.57 53.76 48.29 58.38 45.19 57.8C40.26 57.66 33.82 57.21 34.48 64.2C34.11 69.63 41.39 69.72 45.57 69.8C50.03 77.15 34.57 68.5 36.57 80.17C37.12 81.27 36.49 83.03 35.49 81.35C34.25 79.82 34.7 76.72 32.49 76.2C28.19 74.74 28.02 79.2 24.39 78.7C21.09 78.7 22.68 68.94 20.08 70.85C19.9753 70.9877 19.8312 71.0901 19.6668 71.1437C19.5025 71.1973 19.3256 71.1995 19.16 71.15C16.93 70.35 18.16 73.88 18.24 74.97C18.89 76.69 16.24 78.3 15.61 76.71C15.9789 76.4858 16.2615 76.1437 16.4121 75.7391C16.5627 75.3345 16.5725 74.8909 16.44 74.48C13.57 54 22 31.8 38.87 19.54Z" fill="#F5B966"/>
<path d="M51.07 27.6401C51.92 23.8601 48.57 8.81007 53.8 9.33007C60.89 10.4901 92.8 6.62007 94.64 11.3301C94.25 13.7201 96.07 28.7601 93.51 28.0601C91.51 28.5101 88.39 27.1101 87.21 29.2701C86.08 31.6101 82.87 29.8401 80.85 30.9201C80.0343 31.1288 79.1765 31.1045 78.3739 30.85C77.5713 30.5954 76.8563 30.1208 76.31 29.4801C76.55 32.3501 70.65 30.6501 68.79 31.0601C67.18 30.6501 64.79 31.9301 65.13 29.3701C61.82 31.3701 57.97 29.6801 54.36 30.1501C51.71 30.1501 51.69 30.1401 51.07 27.6401Z" fill="#FCE9D3"/>
<path d="M45.81 70.06L39.13 69.78C44.13 67.33 56.47 72.24 59.55 66.65C61.6 63.2 59.7 57.73 55.23 57.77C53.8 57.77 52.32 58.12 50.96 57.37C48.81 53.8 54.15 54.07 56.28 54.86C56.4278 55.2396 56.6799 55.5696 57.0073 55.812C57.3346 56.0544 57.7238 56.1994 58.13 56.23C63.78 56.89 99.19 60.92 90.63 48.62C89 47.5 90.46 46.31 92 46.75C93.66 46.95 94.09 46.56 94 44.88C93.81 39.69 94.19 34.5 94.06 29.31C94.15 28.82 94.11 27.74 94.84 27.92C95.84 41.38 95.35 55.05 95.44 68.66C96.77 73.99 89.95 73.72 86.44 75.87C82.17 76.43 77.89 76.09 73.62 76.13C69.35 76.17 65.14 76.23 60.91 76.13C58.75 75.13 57.38 72.82 54.56 73.2C48.56 74.2 52.22 70.35 47.56 70.59C47 70.47 46.28 70.58 45.81 70.06Z" fill="#F4B884"/>
<path d="M59.1301 43.4301C59.4801 45.9901 61.4901 47.7401 60.8401 50.4301C60.2701 52.7301 58.0601 54.1801 56.2801 55.0501C52.9901 54.4301 49.7201 56.2501 46.7101 55.0501C43.1201 54.5401 39.2801 56.0501 35.9101 54.0501C30.8401 51.0501 33.16 41.6201 39.4401 42.1801C56.17 42.7801 49.8901 42.5101 51.0701 27.6801C54.9301 31.8101 62.0701 29.6801 66.5801 28.3901C64.0901 32.5501 68.0401 29.7101 68.4801 30.6001C68.4801 31.2601 67.8901 31.3301 67.4801 31.4501C60.0901 36.9201 58.7701 40.8001 59.1301 43.4301Z" fill="#F9D5B4"/>
<path d="M95.48 72.14C94.55 58.81 93.84 43.68 95.88 30.46L97.06 32.27L97.55 30C98.22 32.37 99.2 33.15 97.78 35.17C96.18 46.58 97.43 58.65 96.9 70.28C96.9 71.42 96.65 72.08 95.48 72.14Z" fill="#E7774E"/>
<path d="M15.71 77C19.45 77.12 16.85 72.06 18.04 69.66C19.78 70.34 22.29 69.47 22.4 72.97C22.51 76.47 22.65 81.16 28.4 76.12C33 72.65 34.7 77.93 36.6 81.92C36.7834 81.8943 36.9703 81.9136 37.1445 81.9764C37.3187 82.0391 37.4751 82.1433 37.6 82.28C40.17 84.91 43.72 83.36 46.75 84.44C48.05 86.26 46.95 87.9 44.92 88.06C44.2138 88.3559 43.5898 88.8185 43.1014 89.4082C42.613 89.9979 42.2748 90.6971 42.1155 91.446C41.9563 92.1949 41.9809 92.9713 42.1872 93.7087C42.3934 94.446 42.7753 95.1224 43.3 95.68C46.15 99.35 55.6 94.79 56.87 98.77C52.2008 99.4629 47.4401 99.2113 42.87 98.03C39.78 97.19 38.35 96.27 35.58 96.6C32.36 96.98 29.5 98.8 28 97.47C27.48 97.01 27.59 96.58 26.94 96.14C25.67 95.27 23.85 96.57 22.75 96.34C20.15 95.81 17.23 95.61 14.75 97.34C15.26 92.41 28.95 98.87 28.69 90.8C28.76 84.8 21.08 86.97 17.23 86.42C12.59 86 10.91 78.45 15.71 77Z" fill="#F2A559"/>
<path d="M56.86 98.8001C53.45 96.0701 49.37 98.6501 45.77 97.3801C50.24 95.5901 55.77 98.1301 60.41 96.3801C63.23 95.6101 62.2 92.8101 63.22 90.8901C66.77 92.3601 70.83 91.2401 74.59 91.5801C76.79 91.8601 75.48 89.1101 77.13 88.5801C76.85 100.58 76.5667 112.58 76.28 124.58H75.96C77.49 94.1201 73.43 116.56 56.86 98.8001Z" fill="#F6CBA2"/>
<path d="M112 111.33C110.55 112.45 109.35 113.25 108.76 113.63C106.88 104.38 111.76 96.56 113.76 88.05C114.59 86.35 114.2 77.52 115.68 77.89C115.755 78.6766 115.933 79.4499 116.21 80.19C116.421 80.7539 116.686 81.2964 117 81.81C122.38 78.06 124.76 77.89 125.89 78.69C127.02 79.49 127.26 81.17 128.79 81.46C129.91 81.68 130.46 80.9 130.79 81.11C132.36 82.05 126.78 99.92 112 111.33Z" fill="#F29F55"/>
<path d="M77.1301 88.6C76.0101 89.49 77.7701 92.22 75.4301 91.99C71.1001 91.56 65.0301 94.16 62.1201 89.43C58.0001 85.66 51.5401 89.23 47.0001 87.18C45.1801 81.51 53.4501 85.18 56.5601 83.81C57.2268 83.6733 57.8599 83.4058 58.4227 83.0229C58.9854 82.64 59.4667 82.1494 59.8386 81.5793C60.2106 81.0093 60.4659 80.3712 60.5897 79.7019C60.7135 79.0326 60.7035 78.3454 60.5601 77.68C58.5601 73.68 82.8401 76.82 86.5601 75.87C81.8501 79 78.2401 82.88 77.1301 88.6Z" fill="#EB6449"/>
<path d="M51 57.22C54.61 57.37 58.81 56.22 60.5 60.95C61.56 63.89 61.14 66.95 58.43 68.77C55 71 51 69.43 47.24 69.71C41.88 70 33 71 34 63.05C34.25 58.28 37.23 57.05 41.36 57.25C44.63 57.94 48 56 51 57.22Z" fill="#F9D5B4"/>
<path d="M60.6001 75.87C63.2601 86.62 53.2601 84.21 46.6801 84.58C43.1201 84.39 39.2601 85.4 36.5501 81.95C33.6301 71.53 41.0701 73.28 47.3401 72.19C48.4901 72.19 49.6901 71.81 50.7201 72.64C54.3101 72.83 58.3001 71.76 60.6001 75.87Z" fill="#F9D5B4"/>
<path d="M51.0001 57.22H47.0001L46.7101 55H50.7101C50.8001 55.73 50.8901 56.47 51.0001 57.22Z" fill="#E6744E"/>
<path d="M47.2401 72.62C45.8001 72.98 46.2401 71 45.8101 70.06C47.6601 69.61 47.3501 71.44 47.2401 72.62Z" fill="#F2A559"/>
<path d="M94.56 27.62C95.01 29.39 92.56 29.24 91.43 29.13C85.43 28.07 90.35 38.44 87.03 40.47C80.03 42.54 88.2 33.6 77.58 31.65C76.27 31.54 73.29 30.8 76.11 30.14C75.63 29.82 75.11 29.61 74.87 29.01C87.63 33.18 83 26.51 94.56 27.62Z" fill="#F7D5B2"/>
<path d="M86.74 40.15C91 33.31 82.58 27.86 94.58 28.5C94.58 34.12 94.58 39.73 94.58 45.35C94.58 49.35 91.33 46.23 90.02 47.35C89.68 47.63 89.35 47.47 89.02 47.35C87.83 46.21 87.3 44.61 86.25 43.35C85.64 42.62 86.77 42.12 86.84 41.43C87 41 86.47 40.6 86.74 40.15Z" fill="#F6C78D"/>
<path d="M47.2401 72.6201C47.1301 71.7701 47.0301 70.9101 46.9301 70.0501C48.2701 70.8001 52.0501 67.98 50.7201 72.64L47.2401 72.6201Z" fill="#E66A48"/>
<path d="M63.17 90.38C64.71 101.52 52.09 96.17 45.77 97.38C39.25 96.77 40.72 86.71 46.96 87.18C51.96 88.1 57.96 85.18 62.37 89.18C62.5306 89.4953 62.7324 89.7878 62.97 90.05V90.05C63 90.17 63.1 90.28 63.17 90.38Z" fill="#F9D6AD"/>
<path d="M4.00008 105.19C-2.46992 101.57 1.62008 92.98 8.33008 96.19C13.5901 99.05 9.46008 108 4.00008 105.19Z" fill="#F19B54"/>
<path d="M73 80.12C77.68 79.89 77.58 87.27 73 86.9C68.52 87.18 68.63 79.86 73 80.12Z" fill="#FBEBD4"/>
<path d="M149.15 30.8C149.258 31.8547 149.042 32.9171 148.531 33.846C148.02 34.7749 147.238 35.5262 146.29 36C145.191 36.4948 143.951 36.5763 142.797 36.2295C141.643 35.8827 140.654 35.1309 140.01 34.1124C139.366 33.094 139.112 31.8773 139.294 30.6863C139.476 29.4952 140.082 28.4099 141 27.63C141.956 26.7743 143.208 26.3257 144.49 26.38C145.631 26.5385 146.693 27.0499 147.529 27.8425C148.365 28.6351 148.931 29.6692 149.15 30.8V30.8Z" fill="#F4BB68"/>
<path d="M50.86 64.59C49.08 57.37 58.43 57.78 58.21 63.24C58.65 68.56 50 70.05 50.86 64.59Z" fill="#FBE6D1"/>
<path d="M54 82.87C52.08 82.81 50.58 81.96 50.9 80.35C51.33 78.2 49.01 74.67 53.31 74.16C59.59 72.87 59.72 82.54 54 82.87Z" fill="#FBE6D2"/>
<path d="M57.7601 95.9101C56.0001 96.0001 55.4901 95.0001 55.6901 93.5501C55.9301 91.8501 54.1501 89.1101 57.6901 88.9701C62.5001 88.5701 62.6001 96.1201 57.7601 95.9101Z" fill="#FAE5CC"/>
<path d="M78.6801 37.87V32.88H73.6901V52.85H68.6901V42.86H63.7001V32.88H58.7101V57.84H88.6601V37.87H78.6801Z" fill="#6767AD"/>
<path d="M78.68 38.32H73.68C73.6209 38.32 73.5624 38.3084 73.5078 38.2858C73.4532 38.2632 73.4036 38.23 73.3618 38.1882C73.32 38.1465 73.2868 38.0968 73.2642 38.0423C73.2416 37.9877 73.23 37.9291 73.23 37.87V32.87C73.23 32.7507 73.2774 32.6362 73.3618 32.5518C73.4462 32.4675 73.5606 32.42 73.68 32.42H78.68C78.7993 32.42 78.9138 32.4675 78.9982 32.5518C79.0826 32.6362 79.13 32.7507 79.13 32.87V34.07C79.13 34.1903 79.0829 34.3058 78.9988 34.3918C78.9147 34.4778 78.8002 34.5274 78.68 34.53C78.5588 34.5275 78.4433 34.4782 78.3575 34.3925C78.2718 34.3068 78.2225 34.1912 78.22 34.07V33.32H74.14V37.41H78.22V36.14C78.2226 36.0198 78.2722 35.9053 78.3582 35.8212C78.4442 35.7371 78.5597 35.69 78.68 35.69C78.7391 35.69 78.7976 35.7017 78.8522 35.7243C78.9068 35.7469 78.9564 35.7801 78.9982 35.8218C79.04 35.8636 79.0731 35.9132 79.0957 35.9678C79.1183 36.0224 79.13 36.081 79.13 36.14V37.87C79.13 37.9894 79.0826 38.1039 78.9982 38.1882C78.9138 38.2726 78.7993 38.32 78.68 38.32V38.32Z" fill="#444D9C"/>
<path d="M78.68 43.32H73.68C73.5597 43.3174 73.4453 43.2678 73.3612 43.1818C73.277 43.0958 73.23 42.9803 73.23 42.86V37.86C73.23 37.8009 73.2416 37.7424 73.2642 37.6878C73.2868 37.6332 73.32 37.5836 73.3618 37.5418C73.4036 37.5 73.4532 37.4669 73.5078 37.4443C73.5624 37.4217 73.6209 37.41 73.68 37.41H78.68C78.7391 37.41 78.7976 37.4217 78.8522 37.4443C78.9068 37.4669 78.9564 37.5 78.9982 37.5418C79.04 37.5836 79.0731 37.6332 79.0957 37.6878C79.1183 37.7424 79.13 37.8009 79.13 37.86V42.86C79.13 42.9803 79.0829 43.0958 78.9988 43.1818C78.9147 43.2678 78.8002 43.3174 78.68 43.32ZM74.14 42.41H78.22V38.32H74.14V42.41Z" fill="#444D9C"/>
<path d="M63.7001 52.85H58.7101V57.84H63.7001V52.85Z" fill="#E4EBF7"/>
<path d="M68.6901 52.85H63.7001V57.84H68.6901V52.85Z" fill="#E4EBF7"/>
<path d="M73.6801 52.85H68.6901V57.84H73.6801V52.85Z" fill="#E4EBF7"/>
<path d="M78.6701 52.85H73.6801V57.84H78.6701V52.85Z" fill="#E4EBF7"/>
<path d="M83.6701 52.85H78.6801V57.84H83.6701V52.85Z" fill="#E4EBF7"/>
<path d="M88.66 52.85H83.67V57.84H88.66V52.85Z" fill="#E4EBF7"/>
<path d="M63.7001 47.86H58.7101V52.85H63.7001V47.86Z" fill="#E84141"/>
<path d="M68.6901 47.86H63.7001V52.85H68.6901V47.86Z" fill="#E84141"/>
<path d="M78.6701 47.86H73.6801V52.85H78.6701V47.86Z" fill="#F6A322"/>
<path d="M83.6701 47.86H78.6801V52.85H83.6701V47.86Z" fill="#F6A322"/>
<path d="M88.66 47.86H83.67V52.85H88.66V47.86Z" fill="#F6A322"/>
<path d="M63.7001 42.86H58.7101V47.85H63.7001V42.86Z" fill="#E84141"/>
<path d="M68.6901 42.86H63.7001V47.85H68.6901V42.86Z" fill="#E84141"/>
<path d="M78.6701 42.86H73.6801V47.85H78.6701V42.86Z" fill="#66C4D8"/>
<path d="M83.6701 42.86H78.6801V47.85H83.6701V42.86Z" fill="#66C4D8"/>
<path d="M88.66 42.86H83.67V47.85H88.66V42.86Z" fill="#F6A322"/>
<path d="M78.68 48.31H73.68C73.5597 48.3074 73.4453 48.2578 73.3612 48.1718C73.277 48.0858 73.23 47.9703 73.23 47.85V42.85C73.23 42.7307 73.2774 42.6162 73.3618 42.5318C73.4462 42.4474 73.5606 42.4 73.68 42.4H78.68C78.7993 42.4 78.9138 42.4474 78.9982 42.5318C79.0826 42.6162 79.13 42.7307 79.13 42.85V47.85C79.13 47.9703 79.0829 48.0858 78.9988 48.1718C78.9147 48.2578 78.8002 48.3074 78.68 48.31V48.31ZM74.14 47.4H78.22V43.32H74.14V47.4Z" fill="#03B3C0"/>
<path d="M83.6701 48.31H78.6701C78.5489 48.3075 78.4334 48.2582 78.3476 48.1725C78.2619 48.0867 78.2126 47.9712 78.2101 47.85V42.85C78.2127 42.7298 78.2623 42.6153 78.3483 42.5312C78.4343 42.4471 78.5498 42.4 78.6701 42.4H83.6701C83.7894 42.4 83.9039 42.4474 83.9883 42.5318C84.0727 42.6162 84.1201 42.7307 84.1201 42.85V47.85C84.1201 47.9703 84.073 48.0858 83.9889 48.1718C83.9048 48.2578 83.7903 48.3074 83.6701 48.31V48.31ZM79.1301 47.4H83.2201V43.32H79.1301V47.4Z" fill="#03B3C0"/>
<path d="M83.6701 37.87H78.6801V42.86H83.6701V37.87Z" fill="#66C4D8"/>
<path d="M88.66 37.87H83.67V42.86H88.66V37.87Z" fill="#66C4D8"/>
<path d="M63.7 58.29H58.7C58.5807 58.29 58.4662 58.2426 58.3818 58.1582C58.2974 58.0738 58.25 57.9594 58.25 57.84V52.84C58.25 52.7197 58.2971 52.6042 58.3812 52.5182C58.4653 52.4322 58.5797 52.3826 58.7 52.38H63.7C63.8203 52.3826 63.9347 52.4322 64.0188 52.5182C64.1029 52.6042 64.15 52.7197 64.15 52.84V57.84C64.15 57.9594 64.1026 58.0738 64.0182 58.1582C63.9338 58.2426 63.8193 58.29 63.7 58.29V58.29ZM59.16 57.39H63.25V53.3H59.16V57.39Z" fill="#B0B9D2"/>
<path d="M68.69 58.29H63.69C63.5706 58.29 63.4562 58.2426 63.3718 58.1582C63.2874 58.0738 63.24 57.9594 63.24 57.84V52.84C63.24 52.7197 63.2871 52.6042 63.3712 52.5182C63.4553 52.4322 63.5697 52.3826 63.69 52.38H68.69C68.8102 52.3826 68.9247 52.4322 69.0088 52.5182C69.0929 52.6042 69.14 52.7197 69.14 52.84V57.84C69.14 57.9594 69.0926 58.0738 69.0082 58.1582C68.9238 58.2426 68.8093 58.29 68.69 58.29ZM64.15 57.39H68.24V53.3H64.15V57.39Z" fill="#B0B9D2"/>
<path d="M73.68 58.29H68.68C68.5606 58.29 68.4462 58.2426 68.3618 58.1582C68.2774 58.0738 68.23 57.9594 68.23 57.84V52.84C68.23 52.7197 68.277 52.6042 68.3612 52.5182C68.4453 52.4322 68.5597 52.3826 68.68 52.38H73.68C73.8012 52.3826 73.9167 52.4318 74.0024 52.5176C74.0881 52.6033 74.1374 52.7188 74.14 52.84V57.84C74.1374 57.9603 74.0877 58.0747 74.0018 58.1588C73.9158 58.2429 73.8003 58.29 73.68 58.29V58.29ZM69.14 57.39H73.23V53.3H69.14V57.39Z" fill="#B0B9D2"/>
<path d="M78.68 58.29H73.68C73.5606 58.29 73.4462 58.2426 73.3618 58.1582C73.2774 58.0738 73.23 57.9594 73.23 57.84V52.84C73.23 52.7197 73.277 52.6042 73.3612 52.5182C73.4453 52.4322 73.5597 52.3826 73.68 52.38H78.68C78.8002 52.3826 78.9147 52.4322 78.9988 52.5182C79.0829 52.6042 79.13 52.7197 79.13 52.84V57.84C79.13 57.9594 79.0826 58.0738 78.9982 58.1582C78.9138 58.2426 78.7993 58.29 78.68 58.29ZM74.14 57.39H78.22V53.3H74.14V57.39Z" fill="#B0B9D2"/>
<path d="M83.67 58.29H82.31C82.2509 58.29 82.1924 58.2784 82.1378 58.2557C82.0832 58.2331 82.0336 58.2 81.9918 58.1582C81.95 58.1164 81.9168 58.0668 81.8942 58.0122C81.8716 57.9576 81.86 57.8991 81.86 57.84C81.86 57.7809 81.8716 57.7224 81.8942 57.6678C81.9168 57.6132 81.95 57.5636 81.9918 57.5218C82.0336 57.48 82.0832 57.4469 82.1378 57.4243C82.1924 57.4016 82.2509 57.39 82.31 57.39H83.22V53.3H79.13V57.39H80.25C80.3091 57.39 80.3676 57.4016 80.4222 57.4243C80.4768 57.4469 80.5264 57.48 80.5682 57.5218C80.61 57.5636 80.6431 57.6132 80.6657 57.6678C80.6883 57.7224 80.7 57.7809 80.7 57.84C80.7 57.8991 80.6883 57.9576 80.6657 58.0122C80.6431 58.0668 80.61 58.1164 80.5682 58.1582C80.5264 58.2 80.4768 58.2331 80.4222 58.2557C80.3676 58.2784 80.3091 58.29 80.25 58.29H78.68C78.5597 58.29 78.4442 58.2429 78.3582 58.1588C78.2722 58.0747 78.2226 57.9603 78.22 57.84V52.84C78.2225 52.7188 78.2718 52.6033 78.3575 52.5176C78.4432 52.4318 78.5588 52.3826 78.68 52.38H83.68C83.8002 52.3826 83.9147 52.4322 83.9988 52.5182C84.0829 52.6042 84.13 52.7197 84.13 52.84V57.84C84.13 57.8999 84.118 57.9593 84.0948 58.0146C84.0716 58.0698 84.0375 58.1199 83.9947 58.1618C83.9518 58.2037 83.901 58.2366 83.8453 58.2587C83.7895 58.2807 83.7299 58.2913 83.67 58.29V58.29Z" fill="#B0B9D2"/>
<path d="M88.6601 58.29H83.6601C83.601 58.29 83.5425 58.2784 83.4879 58.2557C83.4333 58.2331 83.3837 58.2 83.3419 58.1582C83.3001 58.1164 83.267 58.0668 83.2443 58.0122C83.2217 57.9576 83.2101 57.8991 83.2101 57.84V52.84C83.2101 52.7197 83.2571 52.6042 83.3413 52.5182C83.4254 52.4322 83.5398 52.3826 83.6601 52.38H88.6601C88.7803 52.3826 88.8948 52.4322 88.9789 52.5182C89.063 52.6042 89.1101 52.7197 89.1101 52.84V57.84C89.1101 57.8991 89.0984 57.9576 89.0758 58.0122C89.0532 58.0668 89.0201 58.1164 88.9783 58.1582C88.9365 58.2 88.8869 58.2331 88.8323 58.2557C88.7777 58.2784 88.7192 58.29 88.6601 58.29V58.29ZM84.1201 57.39H88.2101V53.3H84.1201V57.39Z" fill="#B0B9D2"/>
<path d="M59.16 52.39H63.25V48.31H59.16V52.39ZM63.7 53.3H58.7C58.5807 53.3 58.4662 53.2526 58.3818 53.1682C58.2974 53.0838 58.25 52.9694 58.25 52.85V47.85C58.25 47.7909 58.2616 47.7324 58.2843 47.6778C58.3069 47.6232 58.34 47.5736 58.3818 47.5318C58.4236 47.49 58.4732 47.4569 58.5278 47.4343C58.5824 47.4117 58.6409 47.4 58.7 47.4H63.7C63.7591 47.4 63.8176 47.4117 63.8722 47.4343C63.9268 47.4569 63.9764 47.49 64.0182 47.5318C64.06 47.5736 64.0931 47.6232 64.1157 47.6778C64.1384 47.7324 64.15 47.7909 64.15 47.85V52.85C64.15 52.9694 64.1026 53.0838 64.0182 53.1682C63.9338 53.2526 63.8193 53.3 63.7 53.3V53.3Z" fill="#C72625"/>
<path d="M78.68 53.3H73.68C73.5606 53.3 73.4462 53.2526 73.3618 53.1682C73.2774 53.0838 73.23 52.9694 73.23 52.85V47.85C73.23 47.7909 73.2416 47.7324 73.2642 47.6778C73.2868 47.6232 73.32 47.5736 73.3618 47.5318C73.4036 47.49 73.4532 47.4569 73.5078 47.4343C73.5624 47.4117 73.6209 47.4 73.68 47.4H78.68C78.7391 47.4 78.7976 47.4117 78.8522 47.4343C78.9068 47.4569 78.9564 47.49 78.9982 47.5318C79.04 47.5736 79.0731 47.6232 79.0957 47.6778C79.1183 47.7324 79.13 47.7909 79.13 47.85V52.85C79.13 52.9694 79.0826 53.0838 78.9982 53.1682C78.9138 53.2526 78.7993 53.3 78.68 53.3ZM74.14 52.39H78.22V48.31H74.14V52.39Z" fill="#EB6C26"/>
<path d="M83.6701 53.3H78.6701C78.5498 53.3001 78.4343 53.253 78.3483 53.1688C78.2623 53.0847 78.2127 52.9703 78.2101 52.85V47.85C78.2127 47.7298 78.2623 47.6153 78.3483 47.5312C78.4343 47.4471 78.5498 47.4 78.6701 47.4H83.6701C83.7292 47.4 83.7877 47.4117 83.8423 47.4343C83.8969 47.4569 83.9465 47.49 83.9883 47.5318C84.0301 47.5736 84.0632 47.6232 84.0858 47.6778C84.1084 47.7324 84.1201 47.7909 84.1201 47.85V52.85C84.1201 52.9694 84.0727 53.0838 83.9883 53.1682C83.9039 53.2526 83.7894 53.3 83.6701 53.3ZM79.1301 52.39H83.2201V48.31H79.1301V52.39Z" fill="#EB6C26"/>
<path d="M88.6601 53.3H83.6601C83.601 53.3 83.5425 53.2884 83.4879 53.2658C83.4333 53.2432 83.3837 53.21 83.3419 53.1682C83.3001 53.1264 83.267 53.0768 83.2443 53.0222C83.2217 52.9676 83.2101 52.9091 83.2101 52.85V47.85C83.2101 47.7909 83.2217 47.7324 83.2443 47.6778C83.267 47.6232 83.3001 47.5736 83.3419 47.5318C83.3837 47.49 83.4333 47.4569 83.4879 47.4343C83.5425 47.4117 83.601 47.4 83.6601 47.4H88.6601C88.7192 47.4 88.7777 47.4117 88.8323 47.4343C88.8869 47.4569 88.9365 47.49 88.9783 47.5318C89.0201 47.5736 89.0532 47.6232 89.0758 47.6778C89.0984 47.7324 89.1101 47.7909 89.1101 47.85V52.85C89.1101 52.9091 89.0984 52.9676 89.0758 53.0222C89.0532 53.0768 89.0201 53.1264 88.9783 53.1682C88.9365 53.21 88.8869 53.2432 88.8323 53.2658C88.7777 53.2884 88.7192 53.3 88.6601 53.3V53.3ZM84.1201 52.39H88.2101V48.31H84.1201V52.39Z" fill="#EB6C26"/>
<path d="M68.69 53.3H63.69C63.5706 53.3 63.4562 53.2526 63.3718 53.1682C63.2874 53.0838 63.24 52.9694 63.24 52.85V47.85C63.24 47.7909 63.2516 47.7324 63.2742 47.6778C63.2969 47.6232 63.33 47.5736 63.3718 47.5318C63.4136 47.49 63.4632 47.4569 63.5178 47.4343C63.5724 47.4117 63.6309 47.4 63.69 47.4H68.69C68.7491 47.4 68.8076 47.4117 68.8622 47.4343C68.9168 47.4569 68.9664 47.49 69.0082 47.5318C69.05 47.5736 69.0831 47.6232 69.1057 47.6778C69.1283 47.7324 69.14 47.7909 69.14 47.85V52.85C69.14 52.9694 69.0926 53.0838 69.0082 53.1682C68.9238 53.2526 68.8093 53.3 68.69 53.3ZM64.15 52.39H68.24V48.31H64.15V52.39Z" fill="#C72625"/>
<path d="M63.7 43.32H58.7C58.5797 43.3174 58.4653 43.2678 58.3812 43.1818C58.2971 43.0958 58.25 42.9803 58.25 42.86V37.86C58.25 37.8009 58.2616 37.7424 58.2843 37.6878C58.3069 37.6332 58.34 37.5836 58.3818 37.5418C58.4236 37.5 58.4732 37.4669 58.5278 37.4443C58.5824 37.4217 58.6409 37.41 58.7 37.41H63.7C63.7591 37.41 63.8176 37.4217 63.8722 37.4443C63.9268 37.4669 63.9764 37.5 64.0182 37.5418C64.06 37.5836 64.0931 37.6332 64.1157 37.6878C64.1384 37.7424 64.15 37.8009 64.15 37.86V42.86C64.15 42.9803 64.1029 43.0958 64.0188 43.1818C63.9347 43.2678 63.8203 43.3174 63.7 43.32V43.32ZM59.16 42.41H63.25V38.32H59.16V42.41Z" fill="#444D9C"/>
<path d="M83.6701 43.32H78.6701C78.5489 43.3175 78.4334 43.2682 78.3476 43.1825C78.2619 43.0968 78.2126 42.9812 78.2101 42.86V37.86C78.2127 37.7398 78.2623 37.6253 78.3483 37.5412C78.4343 37.4571 78.5498 37.41 78.6701 37.41H83.6701C83.7292 37.41 83.7877 37.4217 83.8423 37.4443C83.8969 37.4669 83.9465 37.5 83.9883 37.5418C84.0301 37.5836 84.0632 37.6332 84.0858 37.6878C84.1084 37.7424 84.1201 37.8009 84.1201 37.86V42.86C84.1201 42.9803 84.073 43.0958 83.9889 43.1818C83.9048 43.2678 83.7903 43.3174 83.6701 43.32V43.32ZM79.1301 42.41H83.2201V38.32H79.1301V42.41Z" fill="#03B3C0"/>
<path d="M88.6601 43.32H83.6601C83.5398 43.3174 83.4254 43.2678 83.3413 43.1818C83.2571 43.0958 83.2101 42.9803 83.2101 42.86V37.86C83.2101 37.8009 83.2217 37.7424 83.2443 37.6878C83.267 37.6332 83.3001 37.5836 83.3419 37.5418C83.3837 37.5 83.4333 37.4669 83.4879 37.4443C83.5425 37.4217 83.601 37.41 83.6601 37.41H88.6601C88.7192 37.41 88.7777 37.4217 88.8323 37.4443C88.8869 37.4669 88.9365 37.5 88.9783 37.5418C89.0201 37.5836 89.0532 37.6332 89.0758 37.6878C89.0984 37.7424 89.1101 37.8009 89.1101 37.86V42.86C89.1101 42.9803 89.063 43.0958 88.9789 43.1818C88.8948 43.2678 88.7803 43.3174 88.6601 43.32V43.32ZM84.1201 42.41H88.2101V38.32H84.1201V42.41Z" fill="#03B3C0"/>
<path d="M63.7 38.32H58.7C58.6409 38.32 58.5824 38.3084 58.5278 38.2858C58.4732 38.2632 58.4236 38.23 58.3818 38.1882C58.34 38.1465 58.3069 38.0968 58.2843 38.0423C58.2616 37.9877 58.25 37.9291 58.25 37.87V32.87C58.25 32.7507 58.2974 32.6362 58.3818 32.5518C58.4662 32.4675 58.5807 32.42 58.7 32.42H63.7C63.8193 32.42 63.9338 32.4675 64.0182 32.5518C64.1026 32.6362 64.15 32.7507 64.15 32.87V37.87C64.15 37.9291 64.1384 37.9877 64.1157 38.0423C64.0931 38.0968 64.06 38.1465 64.0182 38.1882C63.9764 38.23 63.9268 38.2632 63.8722 38.2858C63.8176 38.3084 63.7591 38.32 63.7 38.32V38.32ZM59.16 37.42H63.25V33.33H59.16V37.42Z" fill="#444D9C"/>
<path d="M63.7 48.31H58.7C58.5797 48.3074 58.4653 48.2578 58.3812 48.1718C58.2971 48.0858 58.25 47.9703 58.25 47.85V46.57C58.25 46.4507 58.2974 46.3362 58.3818 46.2518C58.4662 46.1674 58.5807 46.12 58.7 46.12C58.8193 46.12 58.9338 46.1674 59.0182 46.2518C59.1026 46.3362 59.15 46.4507 59.15 46.57V47.4H63.24V43.32H59.16V44.51C59.16 44.6294 59.1126 44.7438 59.0282 44.8282C58.9438 44.9126 58.8293 44.96 58.71 44.96C58.5907 44.96 58.4762 44.9126 58.3918 44.8282C58.3074 44.7438 58.26 44.6294 58.26 44.51V42.86C58.26 42.8009 58.2716 42.7424 58.2943 42.6878C58.3169 42.6332 58.35 42.5836 58.3918 42.5418C58.4336 42.5 58.4832 42.4669 58.5378 42.4443C58.5924 42.4217 58.6509 42.41 58.71 42.41H63.71C63.7691 42.41 63.8276 42.4217 63.8822 42.4443C63.9368 42.4669 63.9864 42.5 64.0282 42.5418C64.07 42.5836 64.1031 42.6332 64.1257 42.6878C64.1484 42.7424 64.16 42.8009 64.16 42.86V47.86C64.1574 47.9803 64.1078 48.0947 64.0218 48.1789C63.9358 48.263 63.8203 48.3101 63.7 48.31V48.31Z" fill="#C72625"/>
<path d="M68.69 48.31H63.69C63.5697 48.3074 63.4553 48.2578 63.3712 48.1718C63.2871 48.0858 63.24 47.9703 63.24 47.85V42.85C63.24 42.7307 63.2874 42.6162 63.3718 42.5318C63.4562 42.4474 63.5706 42.4 63.69 42.4H68.69C68.8093 42.4 68.9238 42.4474 69.0082 42.5318C69.0926 42.6162 69.14 42.7307 69.14 42.85V47.85C69.14 47.9703 69.0929 48.0858 69.0088 48.1718C68.9247 48.2578 68.8102 48.3074 68.69 48.31V48.31ZM64.15 47.4H68.24V43.32H64.15V47.4Z" fill="#C72625"/>
<path d="M88.6601 48.31H83.6601C83.5398 48.3074 83.4254 48.2578 83.3413 48.1718C83.2571 48.0858 83.2101 47.9703 83.2101 47.85V42.85C83.2101 42.7909 83.2217 42.7324 83.2443 42.6778C83.267 42.6232 83.3001 42.5736 83.3419 42.5318C83.3837 42.49 83.4333 42.4569 83.4879 42.4343C83.5425 42.4117 83.601 42.4 83.6601 42.4H88.6601C88.7192 42.4 88.7777 42.4117 88.8323 42.4343C88.8869 42.4569 88.9365 42.49 88.9783 42.5318C89.0201 42.5736 89.0532 42.6232 89.0758 42.6778C89.0984 42.7324 89.1101 42.7909 89.1101 42.85V47.85C89.1101 47.9703 89.063 48.0858 88.9789 48.1718C88.8948 48.2578 88.7803 48.3074 88.6601 48.31V48.31ZM84.1201 47.4H88.2101V43.32H84.1201V47.4Z" fill="#EB6C26"/>
<path d="M59.1301 43.43C59.4801 45.99 61.4901 47.74 60.8401 50.43C60.2701 52.73 58.0601 54.18 56.2801 55.05C52.9901 54.43 49.7201 56.25 46.7101 55.05C43.1201 54.54 39.2801 56.05 35.9101 54.05C30.8401 51.05 33.16 41.62 39.4401 42.18C56.17 42.74 58.7701 40.8 59.1301 43.43Z" fill="#F9D5B4"/>
<path d="M50.7501 48.25C49.2901 43 58.4801 42.87 58.2301 48C58.8701 53.91 49.3301 55.06 50.7501 48.25Z" fill="#FBE6D1"/>
</svg>
