<svg width="56" height="57" viewBox="0 0 56 57" fill="none" xmlns="http://www.w3.org/2000/svg">
<path d="M50 7.18114H44V1.44458C44 0.716478 43.325 0.120758 42.5 0.120758H37.5C36.675 0.120758 36 0.716478 36 1.44458V7.18114H20V1.44458C20 0.716478 19.325 0.120758 18.5 0.120758H13.5C12.675 0.120758 12 0.716478 12 1.44458V7.18114H6C2.6875 7.18114 0 9.55298 0 12.4764V51.3085C0 54.2319 2.6875 56.6038 6 56.6038H50C53.3125 56.6038 56 54.2319 56 51.3085V12.4764C56 9.55298 53.3125 7.18114 50 7.18114ZM49.25 51.3085H6.75C6.3375 51.3085 6 51.0107 6 50.6466V17.7717H50V50.6466C50 51.0107 49.6625 51.3085 49.25 51.3085Z" fill="#FF604E"/>
</svg>
