<svg width="150" height="150" viewBox="0 0 150 150" fill="none" xmlns="http://www.w3.org/2000/svg">
<g clip-path="url(#clip0)">
<path d="M51.08 133.19C47.33 132.5 46.78 131.19 48.92 126.85C46.06 126.85 43.4 126.67 40.77 126.85C33.05 127.5 27.07 124.05 21.67 118.66C14.2194 111.41 8.38825 102.665 4.56005 92.9999C0.460045 82.4799 -0.459955 71.4799 0.190045 60.2399C0.175549 59.0787 0.584341 57.9518 1.34005 57.0699C2.34005 58.1399 1.95005 59.4299 1.87005 60.6799C1.6034 65.2087 1.5767 69.7484 1.79005 74.2799C2.00005 78.4399 3.07005 79.4599 7.00005 79.4999C12.64 79.5599 18.29 79.4999 23.93 79.4999C25.5413 79.3687 27.1628 79.5417 28.71 80.0099C30.2017 80.7522 31.4148 81.9548 32.17 83.4399C36.24 90.1699 41.8 95.5899 46.57 101.71C48.75 104.5 49.92 107.94 51.5 111.1C52.57 113.23 53.61 115.15 56.23 115.43C57.54 115.56 58.29 116.65 58.72 117.92C58.89 121.02 56.79 123.47 56.5 126.44C56.4188 126.739 56.3118 127.03 56.18 127.31C55 130.19 52.18 129.1 50.24 129.97C49.56 131.34 52.15 131.76 51.08 133.19Z" fill="#BFE3EE"/>
<path d="M127.38 90.69C126.59 93.32 127.48 94.14 130.09 93.93C133.4 93.68 136.74 93.85 140.09 93.93C141.23 93.93 142.93 93.57 142.92 95.36C142.91 97.15 141.22 96.36 140.27 96.41C136.14 96.5 132 96.49 127.87 96.41C127.206 96.3449 126.536 96.4578 125.929 96.7373C125.323 97.0167 124.802 97.4525 124.42 98C123.15 99.77 123.75 101.31 125.87 101.47C127.57 101.6 129.3 101.47 131.01 101.53C132.01 101.53 133.68 101.14 133.69 102.71C133.69 104.54 131.94 103.99 130.84 104.02C128.32 104.09 125.84 104.02 123.27 104.02C120.54 104.11 119.62 106.02 121.07 108.32C122.34 110.32 120.71 110.39 119.63 110.32C116.92 110.04 115.63 112.05 114.3 113.83C113.3 115.11 113.37 116.15 115.39 116.11C117.81 116.05 120.23 116.11 122.65 116.11C123.65 116.11 125.06 116.11 125.09 117.32C125.12 118.53 123.71 118.58 122.72 118.59C119.39 118.59 116.06 118.59 112.72 118.59C109.38 118.59 107.13 119.97 106.14 123.35C106.077 123.756 105.883 124.131 105.587 124.417C105.29 124.702 104.909 124.882 104.5 124.93C98.3501 125.71 93.3701 129.65 87.7101 131.78C87.2574 131.916 86.8601 132.193 86.5759 132.571C86.2918 132.949 86.1355 133.407 86.1301 133.88C83.4001 135.51 80.4601 134.53 77.6101 134.6C74.4001 133.11 76.9701 131.74 77.7301 130.41C77.5901 130.14 77.4401 129.93 77.2501 129.94C73.2501 130.05 71.6301 127.46 70.8801 123.83C70.5101 122.09 69.7101 120.46 69.4801 118.7C69.4502 118.115 69.5705 117.532 69.8295 117.007C70.0886 116.482 70.4778 116.032 70.9601 115.7C73.8101 114.64 76.7101 115.17 79.5101 115.33C79.9601 115.59 79.8501 115.2 79.7401 115.22C79.3348 115.264 78.9284 115.15 78.6046 114.902C78.2808 114.655 78.0644 114.292 78.0001 113.89C77.5701 111.5 78.1901 109.53 80.4401 108.38C86.3801 107.95 92.3301 108.28 98.2801 108.2C99.9401 108.2 101.48 108.2 102.07 106.02C102.45 104.56 103.8 104.44 105.07 104.4C107.29 104.33 109.51 104.4 111.72 104.32C112.65 104.32 113.79 104.03 113.8 102.92C113.8 101.61 112.55 101.78 111.7 101.77C105.14 101.77 98.5901 101.77 92.0401 101.71C90.3801 101.71 87.7701 102.43 87.7101 99.71C87.6301 96.71 90.3601 97.55 92.1001 97.45C94.8801 97.31 97.6801 97.77 100.1 95.45C101.1 94.45 102.79 94.75 104.2 94.75C109.14 94.75 114.08 94.75 119.02 94.75C121.74 94.75 124.3 94.67 125.7 91.61C125.826 91.2824 126.063 91.0101 126.371 90.8416C126.679 90.6731 127.036 90.6193 127.38 90.69V90.69Z" fill="#CDE7EF"/>
<path d="M29.1999 11.9999C36.9999 5.99994 45.7399 2.74994 55.1199 0.999944C66.7299 -1.23006 77.9999 0.439944 88.8999 4.59994C93.3965 6.19868 97.5993 8.52644 101.34 11.4899C102.467 12.4914 103.792 13.2456 105.228 13.7037C106.665 14.1619 108.181 14.3139 109.68 14.1499C111.13 14.0099 112.68 13.7299 114.13 14.4699C114.27 15.4099 113.63 15.3999 113.03 15.4699C105.449 16.6371 97.7764 17.1024 90.1099 16.8599C87.8699 16.8599 85.4699 16.1899 83.4299 17.8599C81.7399 18.8599 80.3099 17.9299 78.9399 17.0799C69.6199 11.2899 60.3299 11.4699 51.0099 17.0799C49.8099 17.7999 48.5799 18.6599 47.0799 17.8299C46.3099 16.7799 45.2399 16.8299 44.0799 16.8299C39.6799 16.8299 35.2799 16.8299 30.8799 16.8299C30.0777 16.8567 29.2746 16.8133 28.4799 16.6999C27.4799 16.5299 26.3699 16.3099 26.1599 15.0899C25.9499 13.8699 26.9199 13.5099 27.6899 13.0399C28.2194 12.7328 28.7242 12.3851 29.1999 11.9999V11.9999Z" fill="#346EB5"/>
<path d="M29.32 81.14C27.5 80.22 25.56 80.56 23.66 80.55C17.92 80.55 12.18 80.55 6.43003 80.55C2.18003 80.53 0.840034 79.3 0.790034 74.71C0.730034 68.83 0.350034 62.92 1.34003 57.07C1.54804 52.4184 2.79886 47.8731 5.00003 43.77C6.36003 48.77 5.81003 47.57 10.57 47.83C12.48 47.94 14.4 47.83 16.32 47.83C20.11 47.96 21 48.83 20.97 52.75C20.97 57.85 21.1 62.88 23.46 67.52C25.56 71.27 27.26 75.24 29.26 79.05C29.4758 79.3533 29.5967 79.7138 29.6074 80.0859C29.6181 80.458 29.5181 80.8248 29.32 81.14V81.14Z" fill="#8BD1E9"/>
<path d="M131.61 64H131.08C130.22 67.86 130.79 71.86 129.63 75.76C128.84 78.38 127.63 79.5 125.25 79.54C120.01 79.63 114.77 79.54 109.53 79.54C106.812 79.4774 104.094 79.6614 101.41 80.09C100 79.83 100.41 78.84 100.67 77.95C101.82 74.46 103.97 72.87 107.56 72.82C106.866 72.9213 106.158 72.7763 105.56 72.41C105.71 70.66 105.71 70.66 108.02 69.58C106.71 68.65 105.97 67.51 106.85 65.91C107.43 63.21 108.6 60.66 108.48 57.8C108.466 57.3361 108.564 56.8756 108.766 56.4577C108.968 56.0398 109.268 55.677 109.64 55.4C110.762 54.8736 112.008 54.6694 113.24 54.81C113.47 54.61 114.04 55.18 114 54.42C113.64 54.3 113.29 54.23 112.94 54.12C108.45 53.78 107.7 52.77 109.2 49.12C112.84 47.71 116.62 48.78 120.32 48.44C122.64 48.31 124.6 47.14 126.6 46.04C126.74 45.9909 126.891 45.9799 127.037 46.008C127.182 46.0361 127.318 46.1023 127.43 46.2C131.69 47.43 136.03 46.5 140.33 46.76C142.019 46.7045 143.707 46.9172 145.33 47.39C139.88 49.46 134.21 48.29 128.67 48.77C128.288 49.6206 128.179 50.5688 128.358 51.4839C128.537 52.399 128.995 53.2361 129.67 53.88C130.73 54.98 131 55.88 129.87 57.02C129.17 58.26 130.2 59.15 130.47 60.18C130.35 61.65 132.53 62.3 131.61 64Z" fill="#72C9E9"/>
<path d="M100.79 79.9199C102.232 78.9733 103.938 78.5109 105.66 78.5999C112.21 78.6799 118.76 78.5999 125.31 78.6699C127.52 78.6699 128.12 77.9199 128.78 75.5799C129.87 71.7799 129.5 67.7099 131.08 64.0699C131.08 64.8099 131.08 65.5599 130.99 66.2799C130.72 68.4999 131.61 69.2799 133.73 69.1699C137.14 69.0199 140.57 69.1099 144 69.1699C145 69.1699 146.37 69.2599 146.4 70.4599C146.4 71.8699 145.01 71.6199 144.06 71.6299C140.43 71.6299 136.8 71.7499 133.18 71.6299C130.08 71.4999 130.95 74.1299 130.66 75.6299C130.31 77.4299 131.95 77.3699 133.16 77.3899C134.67 77.3899 136.16 77.3899 137.69 77.3899C138.69 77.3899 139.69 77.9399 139.61 78.9799C139.53 80.0199 138.42 79.8699 137.61 79.8799C135.998 79.98 134.382 79.98 132.77 79.8799C130.41 79.6399 129.33 80.4799 129.77 83.0399C130.49 84.1599 129.77 84.8899 129.11 85.6199L128.51 86.2599C128.423 86.3413 128.354 86.4397 128.306 86.5489C128.259 86.6581 128.235 86.7759 128.235 86.8949C128.235 87.014 128.259 87.1318 128.306 87.241C128.354 87.3502 128.423 87.4486 128.51 87.5299V87.5299C128.71 87.7399 128.91 87.96 129.13 88.16C129.6 89.86 128.07 89.9799 127.3 90.7099C127.21 90.7099 127.06 90.7899 127.04 90.8599C125.43 96.3099 121.26 95.9499 117.04 95.8599C112.82 95.7699 108.77 95.8599 104.63 95.8599C102.33 95.8599 100.2 95.7299 98.2299 97.7599C96.6899 99.3399 94.1599 98.1899 92.0799 98.3899C91.1799 98.4699 90.2599 98.3899 89.3599 98.3899C88.4599 98.3899 87.9599 98.6899 87.9899 99.6699C88.0199 100.65 88.6799 100.85 89.4499 100.85C91.2599 100.85 93.0799 100.85 94.8999 100.85C100.75 100.85 106.6 100.85 112.45 100.85C113.57 100.85 115.04 100.39 115.13 102.43C115.165 102.77 115.128 103.113 115.022 103.438C114.916 103.763 114.743 104.062 114.513 104.316C114.284 104.569 114.005 104.772 113.692 104.91C113.38 105.049 113.042 105.12 112.7 105.12C110.1 105.37 107.46 105.24 104.84 105.3C103.69 105.3 102.44 104.93 102.56 107.15C102.67 109.15 100.89 109.15 99.4599 109.15H80.1899C79.9999 108.04 80.8299 107.96 81.4899 107.7C86.9099 107.5 92.3399 107.51 97.7099 107.7C93.5199 107.26 89.3699 107.7 85.2299 107.44C84.2299 107.38 82.4799 107.89 82.7399 105.64C84.8299 104.5 87.0699 105.12 89.2399 105.04C92.1399 104.94 95.0399 105.04 97.9399 105.04C99.1799 105.04 100.34 104.97 101.13 103.79C104.38 102.3 107.88 103.58 111.21 102.71C103.79 102.51 96.3699 102.59 88.9499 102.51C87.4199 102.51 85.6399 102.93 84.6599 101.02C84.6599 99.1599 85.9799 98.2999 87.1999 97.3799C89.8599 96.3099 92.7099 97.3199 95.8199 96.5399C93.8199 95.4499 91.5199 96.8499 90.1699 94.9399C90.075 94.6361 90.051 94.3145 90.0999 93.9999C90.1816 93.6889 90.3169 93.3944 90.4999 93.1299C90.5899 92.9899 90.6899 92.8699 90.7799 92.7299C90.984 92.4727 91.2045 92.2288 91.4399 91.9999C92.0185 91.3818 92.7445 90.9208 93.5499 90.66C98.6099 90.07 103.7 90.7499 108.75 90.2799C109.807 89.1359 111.069 88.1997 112.47 87.5199C108.41 86.8799 104.34 87.4299 100.3 87.2099C98.9799 87.1299 97.4199 87.4899 96.7399 85.6799C97.3799 83.1799 98.4599 81.0599 100.79 79.9199Z" fill="#AADBEA"/>
<path d="M29.2 12L29.09 12.3C28.61 13.58 26.16 13.61 26.72 15.1C27.28 16.59 29.24 15.81 30.57 15.83C35.38 15.91 40.18 15.83 44.99 15.83C46.23 15.83 47.52 15.71 47.37 17.67C47.2112 17.8953 47.0075 18.0853 46.7717 18.2281C46.536 18.371 46.2732 18.4635 46 18.5C45.1907 18.635 44.4527 19.0447 43.91 19.66C38.07 23.13 33.31 27.9 28.91 33.08C28.16 33.96 27.41 34.88 26.1 34.13C23.23 32.65 20.16 33.52 17.18 33.31C15.8745 33.3285 14.569 33.2717 13.27 33.14C12.19 32.93 11.02 32.72 11.13 31.09C15.2554 24.4926 20.3913 18.5839 26.35 13.58C27.1548 12.8258 28.134 12.2829 29.2 12Z" fill="#4893CF"/>
<path d="M83.1501 17.75C82.3801 15.47 84.0601 15.86 85.1501 15.85C89.2701 15.79 93.41 15.66 97.53 15.85C102.53 16.1 107.53 15.12 112.53 15.18C112.834 15.223 113.145 15.1769 113.423 15.0474C113.702 14.9178 113.937 14.7103 114.1 14.45C114.82 15.13 114.36 15.63 113.76 15.77C112.977 15.8635 112.188 15.897 111.4 15.87C110.4 15.93 109.09 15.41 108.67 16.28C108.11 17.42 109.6 17.85 110.21 18.59C110.66 19.14 111.15 19.65 111.62 20.18C112.79 20.73 114.29 20.79 114.27 22.8C114.27 23.86 115.37 24.44 115.86 25.31C117.07 26.99 118.29 28.66 119.5 30.31C120.5 32.79 118.76 33.04 117.24 33.16C113.92 33.43 110.58 33.24 107.24 33.27C105.8 33.27 104.39 33.2699 103.43 34.6699C102.36 35.4099 101.74 34.53 101.14 33.88C99.6939 32.261 98.3576 30.5471 97.14 28.75C95.78 26.75 96.14 26.07 98.59 25.96C100.19 25.89 101.8 25.96 102.9 25.96C101.15 25.96 98.9001 25.86 96.6201 26.03C95.8253 26.1638 95.0091 26.0774 94.2601 25.78C93.2601 25.31 92.45 24.61 92.59 23.41C92.73 22.21 93.79 22.2 94.71 22.17C95.41 22.17 96.12 22.17 96.84 22.08C91.61 23 87.0001 21.8 83.1501 17.75Z" fill="#4893CF"/>
<path d="M71.11 116.1C71.11 117.3 69.41 118.1 70.05 119.17C71.75 122 71.67 125.52 73.42 128.24C74.24 129.5 75.88 128.69 77.14 128.83C78.06 128.94 79.05 128.89 79.32 130.08C79.59 131.27 78.8 131.83 77.83 132C76.58 132.22 76.15 132.68 77.12 133.8C79.87 134.75 82.81 133.58 85.79 134.55C84.44 136.49 82.61 135.83 81.03 136.09C79.66 136.31 77.87 135.59 77.28 137.76C75.48 140.15 76.68 143.36 75.28 145.86C74.37 148.02 75.43 148.17 77.17 148.24C78.48 148.24 80.83 147.18 80.91 149.17C80.97 150.54 78.52 149.8 77.23 149.82C71.4 149.9 65.57 149.82 59.74 149.82C54.52 149.82 51.74 146.88 51.42 141.32C51.28 138.6 51.78 135.86 51.08 133.18C51.2 132.11 50.41 132.18 49.76 131.91C48.53 131.4 48.06 130.53 49.16 129.34C50.3813 128.95 51.6805 128.871 52.94 129.11C53.2859 129.172 53.6411 129.159 53.9814 129.071C54.3217 128.984 54.6392 128.824 54.9124 128.603C55.1855 128.382 55.408 128.105 55.5646 127.79C55.7212 127.476 55.8083 127.131 55.82 126.78V126.78C56.82 126.41 57.17 127.71 58.02 127.78C60.93 127.97 63.84 127.78 66.74 127.88C69.14 128 70.17 127.16 69.35 124.58C69.2598 124.168 69.2598 123.742 69.35 123.33C69.3857 123.138 69.4569 122.955 69.56 122.79C69.77 122.43 69.49 122.89 69.74 122.57C69.99 122.25 69.96 122.32 69.66 122.57C69.4918 122.569 69.3266 122.525 69.1798 122.443C69.0329 122.361 68.9092 122.243 68.82 122.1C68.5269 121.68 68.3635 121.182 68.35 120.67C68.4819 119.9 68.4581 119.111 68.28 118.35C68.2132 118.087 68.1664 117.82 68.14 117.55C68.1088 117.281 68.1344 117.008 68.2154 116.75C68.2964 116.492 68.4308 116.253 68.61 116.05C68.9968 115.846 69.4292 115.743 69.8665 115.752C70.3038 115.761 70.7317 115.88 71.11 116.1V116.1Z" fill="#253056"/>
<path d="M11.0699 31.09C11.7199 32.56 12.9999 32.33 14.1799 32.33C17.4799 32.33 20.7699 32.33 24.0599 32.33C25.4999 32.33 26.6699 32.57 26.8499 34.33C27.5399 35.86 26.4699 36.93 25.8499 38.07C21.4603 46.2844 20.4728 55.8944 23.0999 64.83C23.4399 66 23.9699 67.22 23.1699 68.45C20.5899 65.45 20.7099 61.57 20.0799 57.94C20.0298 57.311 20.0298 56.679 20.0799 56.05C20.0799 48.79 20.0799 48.79 12.9399 48.79H8.70995C4.06995 48.79 3.79995 48.41 4.97995 43.79C6.15995 39.17 8.70995 35.14 11.0699 31.09Z" fill="#5FB3E1"/>
<path d="M103.11 35C102.38 32.93 103.11 32.26 105.11 32.33C109.11 32.47 113.11 32.33 117.18 32.39C118.56 32.39 119.61 32.19 119.5 30.39C122.63 31.56 125.88 30.66 129.05 30.97C129.87 31.05 131.23 30.6 131.26 31.86C131.29 33.12 129.96 32.86 129.09 32.86C127.59 32.86 126.09 32.86 124.57 32.86C121.57 32.86 121.33 33.27 122.9 36C123.345 36.5838 123.631 37.2729 123.73 38C123.89 38.27 124 38.66 124.23 38.77C126.23 39.67 127.32 40.87 125.9 43.2C125.71 43.5 126.12 43.96 126.34 44.31C126.581 44.6826 126.769 45.0863 126.9 45.51C126.965 45.6383 126.985 45.7845 126.958 45.9256C126.931 46.0667 126.858 46.1949 126.75 46.29C125.67 48.87 122.94 48.18 121.17 49.39C120.53 48.22 119.44 48.52 118.47 48.5C115.97 48.5 113.47 48.5 110.95 48.5C110.024 48.5652 109.103 48.3206 108.332 47.8046C107.561 47.2885 106.983 46.5305 106.69 45.65C105.69 42.9 106.6 41.37 109.39 41.27C111.39 41.21 113.39 41.27 115.39 41.27C113 41.27 110.6 41.33 108.21 41.27C105.05 41.06 103 38.54 103.11 35Z" fill="#5BADDC"/>
<path d="M129.82 57.08C129.988 56.5452 130.011 55.9753 129.886 55.4288C129.762 54.8823 129.494 54.3788 129.11 53.97C127.9 52.51 127.32 50.7 128.61 48.83C128.7 53.51 129.09 53.92 133.4 53.93H147.26C148.26 53.93 149.52 53.83 149.63 55.22C149.76 56.85 148.34 56.95 147.29 56.97C141.47 57.06 135.64 57.06 129.82 57.08Z" fill="#A4D9EE"/>
<path d="M127.38 90.69L129.21 88.14C134.854 87.1836 140.617 87.1566 146.27 88.06C146.82 88.15 147.63 88.06 147.66 88.9C147.653 89.2655 147.522 89.6175 147.287 89.8977C147.052 90.1779 146.729 90.3693 146.37 90.44C145.589 90.6321 144.784 90.7096 143.98 90.67C138.453 90.69 132.92 90.6967 127.38 90.69Z" fill="#CFE8F1"/>
<path d="M76.51 137.58C76.11 135.64 77.14 135.22 78.7 135.25C80.8809 135.323 83.0642 135.226 85.23 134.96C82.63 133.64 79.7 135.11 77.12 133.8L86.12 133.87C86.3423 134.058 86.5435 134.269 86.72 134.5C86.72 134.71 86.72 134.91 86.72 135.11C85.95 136.93 87.28 136.62 88.2 136.7C90.53 136.89 92.9 136.32 95.2 137.02V137.71C93.51 138.71 91.66 138.21 89.89 138.25C86.47 138.34 83.05 138.25 79.63 138.25C78.59 138.25 77.43 138.48 76.51 137.58Z" fill="#98A2B5"/>
<path d="M76.51 137.58L95.24 137.7C95.36 139.7 93.85 139.1 92.94 139.11C88.63 139.19 84.31 139.28 80 139.11C77.56 139.01 76.11 139.43 76.49 142.44C76.5576 143.066 76.484 143.699 76.2746 144.292C76.0651 144.886 75.7253 145.425 75.28 145.87L76.51 137.58Z" fill="#323568"/>
<path d="M126.78 46.29C126.78 46.08 126.78 45.87 126.78 45.66C126.618 45.432 126.434 45.2209 126.23 45.03C126.23 44.94 126.11 44.84 126.11 44.75C126.05 42.23 125.6 39.87 123.81 38C125.81 40.1 128.34 39.09 130.66 39.33C131.66 39.43 133.22 38.97 133.21 40.67C133.21 42.04 131.93 42.37 130.74 42.39H130.44C126.6 42.62 126.6 42.62 127.44 46.25L126.78 46.29Z" fill="#98CCE7"/>
<path d="M115.89 25.33C113.49 24.52 113.81 21.24 111.65 20.21C114.55 20.21 117.45 20.16 120.35 20.21C121.03 20.21 122.2 19.87 122.15 21.21C122.096 21.6244 121.893 22.0048 121.578 22.2793C121.263 22.5539 120.858 22.7035 120.44 22.7C119.443 22.8158 118.437 22.8158 117.44 22.7C114.85 22.3 114.94 23.5 115.89 25.33Z" fill="#80AFDC"/>
<path d="M129.19 85.6101L129.85 83.0401C131.14 83.0401 132.44 83.0401 133.73 83.0401C134.55 83.0401 135.73 82.7501 135.73 84.2201C135.67 85.4101 134.67 85.5701 133.73 85.5801C132.18 85.6301 130.69 85.6101 129.19 85.6101Z" fill="#CFE8F1"/>
<path d="M131.61 64C131.61 62.6 129.97 61.76 130.43 60.2C131.24 61.45 132.19 62.3299 133.82 62.1199C134.74 62.0099 136.22 61.89 136.13 63.25C136.04 64.61 134.55 63.92 133.67 64.05C132.983 64.093 132.294 64.0763 131.61 64V64Z" fill="#AADBEA"/>
<path d="M95.24 137C92.57 137 89.91 137 87.24 136.94C85.24 136.94 85.4 136.15 86.75 135.09C87.09 136.78 88.39 136.23 89.41 136.37C91.35 136.64 93.4 135.74 95.24 137Z" fill="#CDE7EF"/>
<path d="M130.42 60.2299C129.7 59.2899 128.55 58.4299 129.82 57.0699L130.42 60.2299Z" fill="#A4D9EE"/>
<path d="M128.59 87.52C127.98 87.09 127.99 86.67 128.59 86.25V87.52Z" fill="#CFE8F1"/>
<path d="M129.21 88.15L128.59 87.52L129.21 88.15Z" fill="#CFE8F1"/>
<path d="M128.59 86.25L129.19 85.61L128.59 86.25Z" fill="#CFE8F1"/>
<path d="M86.75 134.49L86.15 133.86L86.75 134.49Z" fill="#CDE7EF"/>
<path d="M103.11 35C104.45 39.44 107.18 41.26 111.71 40.63C113.71 40.36 116.01 39.85 118.61 41.71C115.24 42.41 112.49 41.9 109.8 42.13C108.8 42.22 106.8 41.53 106.99 43.25C107.18 44.97 107.14 47.57 109.99 47.57C113.21 47.57 116.42 47.57 119.64 47.57C120.64 47.57 122.21 47.34 121.22 49.39L109.22 49.56C108.53 53.56 108.53 53.51 112.04 53.56C112.72 53.56 113.46 53.34 114.04 53.89H114.96C116.17 55.52 114.42 55.2 113.89 55.68H109.8C109.39 55.98 108.8 56.32 108.91 56.84C109.27 59.69 108.15 62.26 107.62 64.95C106.618 67.2334 105.944 69.6475 105.62 72.12H111C110.92 74.01 109.85 73.79 109.21 73.66C104.26 72.58 102.26 75.8 100.79 79.85L97.16 85C96.77 86.4 97.31 88.33 95.23 88.8C94.69 89.9 94.17 91.03 92.84 91.3L91.65 92.6C91.4129 92.7866 91.2185 93.0219 91.08 93.29V93.29C90.9418 93.3503 90.8173 93.4382 90.7141 93.5482C90.611 93.6582 90.5313 93.7881 90.48 93.93V93.93C89.57 95.55 90.81 95.4 91.67 95.45C93.339 95.4184 95.0083 95.4819 96.67 95.64C96 97.34 94.83 96.9 93.87 97C91.74 97.31 89.47 96.28 87.45 97.74L85.08 100.27C85.21 102.62 83.22 103.56 82.14 105.1C81.9445 105.325 81.8017 105.591 81.7222 105.878C81.6426 106.165 81.6282 106.467 81.68 106.76C81.7259 107.001 81.7527 107.245 81.76 107.49C81.7642 107.678 81.728 107.864 81.6538 108.037C81.5796 108.209 81.4692 108.364 81.33 108.49C80.95 108.7 80.33 108.49 80.19 109.12C79.9999 109.351 79.8261 109.595 79.67 109.85C77.5 114.05 77.5 114.05 82.04 114.6C82.3876 114.699 82.723 114.837 83.04 115.01V115.9L71.04 116.1C70.22 116.59 69.42 116.19 68.62 116.04H68.28C67.96 116.15 67.65 116.26 67.34 116.4C67.03 116.54 66.96 116.67 66.78 116.82C66.6432 116.989 66.4702 117.126 66.2738 117.219C66.0775 117.313 65.8626 117.362 65.645 117.362C65.4274 117.362 65.2126 117.313 65.0162 117.219C64.8198 117.126 64.6469 116.989 64.51 116.82C63.34 116.1 63.18 117.52 62.51 117.82C61.84 118.12 61.4 117.31 60.86 117.02C60.5394 116.89 60.1807 116.89 59.86 117.02C59.27 117.31 59.06 118.4 58.12 117.91C57.55 116.52 56.69 115.68 55.12 115.91C54.5144 116.068 53.8714 115.988 53.3228 115.687C52.7743 115.385 52.3618 114.886 52.17 114.29C48.48 103.47 40.17 96.06 33.77 87.29C32.25 85.23 30.77 83.13 29.28 81.05L23.2 68.48C19.14 56.48 20.2 45.09 26.85 34.36C31.69 28.26 37 22.69 43.77 18.91C44.3908 18.4996 45.0428 18.1384 45.72 17.83L47.37 17.66C49.95 17.53 51.53 15.29 53.75 14.36C62.75 10.56 71.48 10.87 79.75 16.59C80.2063 16.9978 80.7395 17.3104 81.3181 17.5096C81.8968 17.7088 82.5094 17.7905 83.12 17.75C87.7843 20.7903 93.3761 22.0767 98.9 21.38C99.2444 21.2913 99.6088 21.3245 99.9314 21.474C100.254 21.6235 100.515 21.88 100.67 22.2C98.28 23.65 95.59 22.2 93.17 23.2C93.37 25.2 94.8 25.2 96.17 25.2H107.17L107.22 26.31H96.22L103.11 35Z" fill="#222E55"/>
<path d="M65.13 116.55C65.93 117.55 66.28 116.17 66.89 116.19C67.64 116.53 67.89 117.34 68.48 117.9L68.74 118.04C68.74 118.35 68.74 118.71 68.47 118.84C67.22 119.51 67.77 120.02 68.57 120.53L69.19 121.83C67.63 123.21 65.73 122.72 63.99 122.66C61.28 122.56 59.24 123.15 58.74 126.38C58.5099 127.295 57.9779 128.105 57.23 128.68C56.28 128.44 56.63 127.13 55.81 126.78C55.64 123.59 57.75 121.07 58.17 118.05C59.1 117.74 58.72 116.47 59.5 116.05C60.13 116.88 60.75 116.83 61.36 116.05L62.36 117.83C62.615 117.862 62.8604 117.947 63.08 118.08C64.13 118.66 64.31 117.8 64.56 117.08C64.6093 116.955 64.6861 116.842 64.7848 116.75C64.8834 116.659 65.0014 116.59 65.13 116.55Z" fill="#34476E"/>
<path d="M55.82 126.79C56.09 128.54 55.37 129.41 53.69 129.41C52.18 129.41 50.69 129.41 49.16 129.35C50.05 128.43 51.16 128.72 52.21 128.79C52.9469 128.89 53.6965 128.75 54.3471 128.389C54.9976 128.029 55.5143 127.468 55.82 126.79V126.79Z" fill="#34476E"/>
<path d="M105.7 72.19C105.416 69.7626 105.977 67.3115 107.29 65.25C107.39 65.3215 107.474 65.414 107.535 65.521C107.596 65.628 107.633 65.7469 107.643 65.8696C107.653 65.9923 107.637 66.1158 107.595 66.2315C107.553 66.3473 107.487 66.4525 107.4 66.54C106.75 67.54 106.34 68.48 108.1 68.62C109.1 68.7 110 68.97 109.76 70.28C109.54 71.44 108.5 71.01 107.76 71.15C107.02 71.29 105.83 70.64 105.7 72.19Z" fill="#3F688D"/>
<path d="M107.4 66.54C107.4 66.11 107.32 65.68 107.29 65.25C107.71 62.44 109 59.82 108.77 56.88C108.77 56.19 109.03 55.65 109.84 55.75C108.93 59.33 109.15 63.18 107.4 66.54Z" fill="#5BADDC"/>
<path d="M114.08 53.9201C113.3 53.9201 112.52 54.0601 111.73 54.0601C108.42 54.0601 107.95 53.1901 109.23 49.5601C108.9 52.1601 109.51 53.8301 112.49 53.2801C112.789 53.2199 113.098 53.2484 113.381 53.3621C113.663 53.4759 113.906 53.6698 114.08 53.9201V53.9201Z" fill="#5BADDC"/>
<path d="M113.93 55.75C114.49 55.29 115.93 55.41 115 53.96C115.68 54.13 116 54.57 115.69 55.25C115.38 55.93 114.59 55.84 113.93 55.75Z" fill="#5BADDC"/>
<path d="M81.22 105.27C82.11 103.27 84.29 102.38 85.08 100.27C85.45 102.07 86.84 101.33 87.78 101.33C95.6 101.39 103.43 101.33 111.25 101.4C112.25 101.4 113.84 100.8 113.84 102.56C113.84 104.32 112.26 103.79 111.24 103.82C107.94 103.91 104.63 103.92 101.32 103.97C100.26 104.97 98.93 104.97 97.62 104.97H85.54C84.44 104.97 83.29 104.79 82.54 105.97C84.54 107.22 86.8 106.42 88.93 106.52C92.31 106.67 95.7 106.52 99.09 106.6C100.09 106.6 101.62 106.51 100.74 108.49C99.66 107.71 98.42 107.88 97.22 107.87C92.99 107.87 88.76 107.87 84.52 107.87C83.43 107.87 82.29 108.06 81.31 107.3C81.1361 106.993 81.0372 106.649 81.0216 106.296C81.006 105.943 81.074 105.592 81.22 105.27V105.27Z" fill="#53718F"/>
<path d="M94.62 88.08C96.89 88.34 95.57 85.36 97.16 85.01C97.39 86.68 98.6 86.45 99.7 86.45C103.93 86.45 108.16 86.45 112.38 86.45C113.38 86.45 114.91 86.09 114.06 88.16C107.944 89.179 101.721 89.3908 95.55 88.79C95.1762 88.6513 94.8523 88.4041 94.62 88.08V88.08Z" fill="#283E6C"/>
<path d="M82.52 105.92C81.9 103.92 83.18 103.92 84.44 103.92C90.07 103.92 95.7 103.98 101.32 104.01C101.47 106.19 99.99 105.91 98.7 105.91L82.52 105.92Z" fill="#CDE7EF"/>
<path d="M94.62 88.08H95.21C97.78 89.43 100.52 88.51 103.21 88.72C104.91 88.86 106.63 88.66 108.32 88.8C109.32 88.88 110.52 88.95 109.8 90.63C109.07 91.63 107.98 91.36 107.02 91.36C102.3 91.36 97.58 91.31 92.87 91.27C94 90.55 94 89.14 94.62 88.08Z" fill="#37577D"/>
<path d="M81.29 107.24C86.7167 107.24 92.1434 107.24 97.57 107.24C98.73 107.24 100.05 106.91 100.72 108.42C94.2613 108.765 87.7888 108.765 81.33 108.42C81.32 108.07 81.3 107.65 81.29 107.24Z" fill="#2A446D"/>
<path d="M109.77 90.67C109.43 88.99 108.13 89.43 107.1 89.41C103.89 89.41 100.67 89.41 97.46 89.41C96.56 89.41 95.3 89.86 95.21 88.16L114.06 88.22C112.76 89.26 110.34 88.2 109.77 90.67Z" fill="#73A1BE"/>
<path d="M87.45 97.77C88.05 95.98 89.54 96.43 90.78 96.39C92.4935 96.4343 94.2054 96.2493 95.87 95.84C94.2844 95.925 92.6955 95.925 91.11 95.84C90.03 95.72 88.7 95.31 90.49 93.96C91.19 96.52 93.17 94.73 94.49 95.21C95.42 95.56 97.16 94.61 97.2 96.21C97.24 97.81 95.52 97.61 94.34 97.65C92 97.65 89.74 97.7 87.45 97.77Z" fill="#4A678A"/>
<path d="M90.48 93.93C90.4696 93.8469 90.4776 93.7625 90.5035 93.6828C90.5293 93.6032 90.5725 93.5302 90.6298 93.4691C90.687 93.408 90.7571 93.3603 90.8349 93.3293C90.9127 93.2983 90.9964 93.2849 91.08 93.29C91.0855 93.3721 91.0741 93.4544 91.0464 93.5319C91.0187 93.6094 90.9754 93.6803 90.9191 93.7403C90.8628 93.8004 90.7948 93.8482 90.7193 93.8808C90.6437 93.9134 90.5623 93.9302 90.48 93.93V93.93Z" fill="#4A678A"/>
<path d="M91.08 93.29C91.0718 93.2072 91.08 93.1236 91.1042 93.0439C91.1284 92.9643 91.1682 92.8903 91.2212 92.8262C91.2742 92.762 91.3394 92.709 91.413 92.6702C91.4866 92.6314 91.5671 92.6075 91.65 92.6C91.6597 92.683 91.6525 92.7672 91.6288 92.8473C91.6051 92.9275 91.5654 93.0021 91.5122 93.0665C91.4589 93.131 91.3932 93.184 91.3189 93.2224C91.2447 93.2608 91.1634 93.2838 91.08 93.29V93.29Z" fill="#4A678A"/>
<path d="M45.72 17.83C45.22 18.49 44.72 19.12 43.77 18.91C43.9031 18.5201 44.1764 18.1936 44.5368 17.994C44.8972 17.7944 45.3189 17.7359 45.72 17.83V17.83Z" fill="#346EB5"/>
<path d="M54.72 137.63C54.7267 137.439 54.7434 137.249 54.77 137.06C59.29 134.15 64.21 134.18 69.12 135.31C70.3865 135.535 71.6264 135.89 72.82 136.37C73.34 138.72 72.82 140.07 70.15 139.73C69.38 139.63 68.34 139.63 68.34 140.81C68.34 141.99 69.34 141.81 70.16 141.96C71.16 142.13 72.7 141.35 72.8 143.13C72.8618 143.871 72.6318 144.606 72.1592 145.179C71.6866 145.753 71.0087 146.119 70.27 146.2C65.89 146.32 61.47 146.95 57.11 145.87C58.48 144.61 60.11 145.15 61.71 145.02C64.33 144.81 67.02 145.49 69.64 144.51C65.1 142.08 60.89 142.13 57.1 145.86C55.84 145.15 55.02 144.03 55.45 142.57C55.88 141.11 57.32 141.84 58.3 141.57C58.89 141.39 60.56 141.92 59.52 140.13C58.7824 139.786 57.9484 139.708 57.16 139.91C55.41 140.15 54.9 139.12 54.72 137.63Z" fill="#B4A27E"/>
<path d="M57.23 128.68C58.82 121.74 58.82 121.74 65.56 121.78H69.19L69.77 122.41C69.76 122.513 69.76 122.617 69.77 122.72C71.02 128.79 71.02 128.8 65.11 128.78C62.48 128.83 59.85 128.74 57.23 128.68Z" fill="#D2E5EC"/>
<path d="M72.82 136.37C68.94 136.11 65.08 135.47 61.17 135.71C58.9784 135.816 56.8179 136.272 54.77 137.06C54.77 136.75 54.77 136.29 54.94 136.17C55.99 135.43 56.16 134.38 55.32 133.64C55.2144 133.542 55.1312 133.423 55.0759 133.29C55.0207 133.157 54.9948 133.014 55 132.87C55.071 132.622 55.2227 132.405 55.4309 132.253C55.6392 132.101 55.8922 132.022 56.15 132.03C58.15 132.03 60.15 131.98 62.15 131.98H71.15C71.74 131.98 72.43 131.98 72.62 132.73C72.81 133.48 72.35 133.62 71.82 133.8C71.29 133.98 69.9 133.44 70.11 134.8C70.26 135.8 71.42 135.5 72.11 135.8C72.42 135.86 72.6 136.16 72.82 136.37Z" fill="#6D645A"/>
<path d="M68.5699 120.53C67.7499 120.38 66.8299 120.83 66.0699 120.18C66.2799 118.49 67.9799 118.91 68.7399 118.04C68.908 118.207 69.0383 118.408 69.1218 118.629C69.2054 118.851 69.2403 119.088 69.2242 119.324C69.208 119.56 69.1413 119.79 69.0284 119.998C68.9155 120.206 68.7591 120.388 68.5699 120.53V120.53Z" fill="#222E55"/>
<path d="M54.7201 137.63C55.3801 140.45 58.1201 138.84 59.5201 140.1C58.5201 140.1 57.5201 140.1 56.6001 140.15C54.8001 140.24 54.4001 139.24 54.7201 137.63Z" fill="#6D645A"/>
<path d="M68.48 117.9C67.23 118.06 67.02 117.16 66.89 116.19C67.44 115.52 68.03 115.7 68.64 116.06H68.73L68.48 117.9Z" fill="#84A2BB"/>
<path d="M69.77 122.46L70.05 121.07C70.13 121.12 70.26 121.16 70.28 121.23C70.3509 121.464 70.3389 121.715 70.246 121.941C70.153 122.167 69.9849 122.354 69.77 122.47V122.46Z" fill="#222E55"/>
<path d="M126.18 45L126.73 45.63L126.18 45Z" fill="#72C9E9"/>
<path d="M74.1301 29.17C76.4701 36.32 76.2601 43.68 75.7301 51.06C75.0001 61.68 73.1101 72.15 71.6501 82.67C71.0001 87.35 70.0001 92 69.2601 96.64C68.6301 100.64 65.7001 99.4 63.3701 99.64C61.0401 99.88 60.7501 98.38 60.3701 96.41C57.5801 81.63 55.2701 66.77 53.8701 51.78C53.2801 45.5 52.8101 39.15 54.6001 32.94C55.215 29.142 56.8616 25.5859 59.3601 22.66C63.9101 17.37 68.1001 19.26 71.7501 23.79C73.0001 25.35 73.4301 27.34 74.1301 29.17Z" fill="#DC4134"/>
<path d="M74.17 18.1299C75.98 17.5499 76.87 18.4999 77.85 19.1999C85.64 24.6999 88.57 32.7699 89.01 42.1999C89.57 53.9599 87.35 65.1999 83.87 76.3599C81.6038 83.6198 78.758 90.6859 75.36 97.4899C75.205 97.8765 75.0212 98.2509 74.81 98.6099C74.38 99.1899 73.89 99.9199 73.1 99.6099C71.99 99.2399 72.45 98.2799 72.58 97.4799C73.79 89.99 75.12 82.4799 76.19 75.0099C77.82 63.5299 79.88 52.0699 79.48 40.3899C79.3603 32.6708 77.5476 25.072 74.17 18.1299V18.1299Z" fill="#70C7E3"/>
<path d="M54.85 18.17C55.18 19.89 53.96 21.09 53.46 22.49C50.07 31.89 49.41 41.59 50.32 51.49C51.6 65.34 54 79.05 56 92.79C56.24 94.34 56.66 95.86 56.92 97.41C57.05 98.2 57.42 99.24 56.34 99.57C55.26 99.9 55 99 54.63 98.2C52.1898 93.6278 50.0907 88.8816 48.35 84C43.3174 70.3651 40.915 55.8997 41.27 41.37C41.5 31.65 45.03 23.86 53.17 18.7C53.4819 18.4745 53.8171 18.2834 54.17 18.13C54.38 18 54.59 18.13 54.85 18.17Z" fill="#74C7E0"/>
<path d="M39.5999 29.87C36.5999 40.92 37.5999 51.98 39.3099 63.09C40.6267 71.6629 42.939 80.053 46.1999 88.09C46.6599 89.09 46.4199 90.46 47.4499 91.25C47.9299 91.78 47.3699 92.7 48.0999 93.13C48.2033 93.4135 48.3833 93.6628 48.6199 93.85V93.85C48.9399 94.85 49.6199 95.91 48.0199 96.38C47.9453 96.2307 47.9043 96.0669 47.8999 95.9C47.8442 95.5835 47.6688 95.3006 47.4099 95.11C47.2082 94.9025 47.0242 94.6784 46.8599 94.44V94.44C46.4029 93.8545 45.9949 93.2324 45.6399 92.58C38.3399 80.58 32.6399 67.95 30.8899 53.69C29.7299 44.16 30.8899 35.16 37.7399 27.89C37.9316 27.672 38.1388 27.4681 38.3599 27.28V27.28C38.5303 27.0498 38.7284 26.8416 38.9499 26.66C39.1098 26.4256 39.3178 26.2279 39.5599 26.08V26.08C39.8799 25.78 40.2399 25.64 40.5599 25.94C40.7486 26.1093 40.8659 26.3439 40.8881 26.5964C40.9104 26.8488 40.836 27.1003 40.6799 27.3V27.3C40.0999 28 40.0499 29 39.5999 29.87Z" fill="#CF3D31"/>
<path d="M90.93 26.73C98.46 34.39 100.07 43.79 98.69 54.28C96.87 68.11 91.37 80.33 84.34 92C84.1112 92.1965 83.9357 92.4476 83.83 92.73C83.33 92.98 83.47 93.6 83.17 93.97C82.64 94.48 82.35 95.51 81.4 95.15C80.87 94.95 80.96 94.35 81.27 93.89C81.2623 93.695 81.2964 93.5007 81.37 93.32C81.8595 92.5165 82.2332 91.6479 82.48 90.74V90.74C83.48 89.91 83.29 88.6 83.69 87.53C89.19 73.85 92.85 59.72 92.6 44.77C92.5 38.77 91.9 32.77 89.18 27.32C89.43 25.82 90.13 26.1 90.93 26.73Z" fill="#D33E32"/>
<path d="M52.85 107.17C52.27 106.23 50.96 105.45 51.41 104.26C51.97 102.77 53.51 103.39 54.64 103.39C61.77 103.39 68.9 103.39 76.03 103.33C78.11 103.33 78.51 104.1 77.7 105.92C77.432 106.469 76.9977 106.918 76.4591 107.206C75.9204 107.493 75.3048 107.603 74.7 107.52C72.8765 107.362 71.0402 107.45 69.24 107.78C70.53 109.53 71.99 108.95 73.24 109.09C74.49 109.23 75.83 108.94 75.38 111.01L74.63 112.16C70.28 113.06 65.87 112.35 61.5 112.56C59.99 112.63 58.5 112.56 56.98 112.56C55.65 112.56 54.43 112.34 54.4 110.67C54.37 109 55.74 109.21 56.82 109.06C57.9 108.91 59.46 109.64 60.31 107.84C57.79 106.93 55.22 108.05 52.85 107.17Z" fill="#D54035"/>
<path d="M35.26 83.7401C31.4 77.6001 27.53 71.4601 25.37 64.3701C23.0291 57.2148 23.5892 49.4267 26.93 42.6801C26.3 56.1701 30 68.5501 35.24 80.5601C36.53 82.7001 36.53 82.8201 35.26 83.7401Z" fill="#73C4DC"/>
<path d="M95.85 77.35C97.61 72.11 99.79 67 100.85 61.51C102.01 55.2 103.24 48.9 101.85 41.65C104.96 44.33 104.91 47.54 105.32 50.35C106.6 58.95 104.2 66.77 100.12 74.13C99 76.12 97.75 78 96.58 80C96.08 80.25 96.21 80.86 95.92 81.23C95.4478 81.8108 95.0294 82.4334 94.67 83.09V83.09C93.05 82.61 93.67 81.59 94.13 80.63C94.2585 80.372 94.4311 80.1385 94.64 79.94V79.94C94.9525 79.0371 95.358 78.1691 95.85 77.35V77.35Z" fill="#68B4CE"/>
<path d="M74.13 29.17C73.1008 27.1761 71.9102 25.2697 70.57 23.47C66.38 18.65 61.92 19.4 58.33 25.25C56.8177 27.6936 55.5706 30.2917 54.61 33C54.7949 27.974 56.336 23.0915 59.07 18.8701C62.07 13.9601 67.88 14.3101 70.65 19.35C72.33 22.37 74.16 25.42 74.13 29.17Z" fill="#C3392F"/>
<path d="M52.85 107.17C55.06 107.17 57.28 107.17 59.49 107.17C60.14 107.17 61.1 107.02 61.12 108.06C61.0946 108.429 60.9371 108.777 60.6764 109.04C60.4156 109.302 60.069 109.462 59.7 109.49C58.7 109.65 57.7 109.57 56.7 109.67C55.9 109.76 54.64 109.31 54.77 110.87C54.87 112.06 55.84 112.25 56.77 112.26H60.39L74.58 112.16C74.4391 112.431 74.2167 112.652 73.944 112.79C73.6712 112.928 73.3621 112.977 73.06 112.93C67.53 112.93 62 112.93 56.48 112.93C56.0915 112.968 55.6994 112.92 55.3313 112.79C54.9633 112.66 54.6283 112.45 54.3499 112.177C54.0715 111.903 53.8565 111.572 53.72 111.206C53.5835 110.84 53.5289 110.449 53.56 110.06C53.56 108.06 55.34 108.53 56.56 108.46C57.56 108.4 58.5 108.46 60.35 108.46C57.37 107.17 54.92 108.66 52.85 107.17Z" fill="#61324B"/>
<path d="M75.3701 111C75.1401 109.3 73.8601 109.71 72.8301 109.62C71.8437 109.584 70.8611 109.477 69.8901 109.3C69.5927 109.222 69.331 109.045 69.149 108.797C68.9669 108.55 68.8755 108.247 68.8901 107.94C68.9701 107.14 69.7301 107.23 70.3001 107.14C72.7801 106.74 75.5201 108.02 77.7501 105.91C77.6601 107.68 76.4701 107.81 75.1901 107.81C73.6178 107.77 72.0447 107.83 70.4801 107.99C71.8301 108.74 73.2501 108.27 74.6101 108.48C76.3301 108.76 77.0501 109.48 75.3701 111Z" fill="#5F324B"/>
<path d="M81.29 93.8101C81.84 96.0201 82.57 93.5401 83.19 93.8901C82.2348 96.1695 80.7546 98.1911 78.87 99.7901C78.8826 97.5607 79.7485 95.4207 81.29 93.8101V93.8101Z" fill="#A93939"/>
<path d="M35.26 83.7401C36.76 82.6701 35.02 81.6201 35.26 80.5601C37.05 82.3101 37.82 84.5601 38.4 87.3401C37.658 86.987 36.9964 86.4853 36.4562 85.866C35.9161 85.2468 35.5089 84.5232 35.26 83.7401Z" fill="#3A698B"/>
<path d="M48 96.4C49 95.75 48.4 94.71 48.6 93.87C49.833 95.531 50.6554 97.4603 51 99.5C49.15 99.05 48.56 97.74 48 96.4Z" fill="#A13A3E"/>
<path d="M94.13 80.63C94.3 81.45 93.75 82.44 94.67 83.09C94.4476 83.8532 94.0649 84.5601 93.5476 85.1636C93.0303 85.7672 92.3902 86.2535 91.67 86.59C91.82 84.15 93 82.4 94.13 80.63Z" fill="#447B99"/>
<path d="M90.9299 26.73C90.2999 26.73 89.6299 26.54 89.1999 27.25C88.4099 26.76 87.4499 25.82 88.3399 25.2C89.4399 24.43 90.4099 25.53 90.9299 26.73Z" fill="#7B3341"/>
<path d="M40.74 27.26C40.64 26.55 40.36 26.03 39.58 26.04C40.1641 25.1516 41.0363 24.4913 42.05 24.17C42.09 25.57 41.88 26.6 40.74 27.26Z" fill="#96363B"/>
<path d="M62.38 117.83C62.82 116.27 63.05 114.22 65.13 116.55L64.93 116.73C64.26 117.36 63.77 118.35 62.62 118.03L62.38 117.83Z" fill="#34476E"/>
<path d="M61.36 116.05C61.29 116.72 61.56 117.67 60.59 117.78C59.37 117.91 59.59 116.85 59.5 116.06L61.36 116.05Z" fill="#6A86A1"/>
<path d="M47.45 91.29C46.02 90.68 46.08 89.42 46.2 88.13C46.62 89.18 47 90.24 47.45 91.29Z" fill="#A13A3E"/>
<path d="M83.71 87.46C83.88 88.77 83.92 90.02 82.5 90.67L83.71 87.46Z" fill="#A93939"/>
<path d="M39.6 29.87C39.4315 29.3697 39.4549 28.8246 39.6655 28.3405C39.8762 27.8564 40.2591 27.4678 40.74 27.25C40.8165 27.7498 40.75 28.261 40.5483 28.7246C40.3466 29.1882 40.0178 29.5853 39.6 29.87V29.87Z" fill="#96363B"/>
<path d="M82.5 90.66C82.653 91.1518 82.6252 91.682 82.4216 92.1551C82.2181 92.6281 81.8522 93.0129 81.39 93.24C81.25 92.14 82 91.44 82.5 90.66Z" fill="#A93939"/>
<path d="M95.8501 77.35C95.8446 77.8352 95.7356 78.3137 95.5304 78.7534C95.3251 79.1932 95.0284 79.5841 94.6601 79.9C94.5567 79.4034 94.6167 78.8868 94.8312 78.4272C95.0457 77.9676 95.4031 77.5897 95.8501 77.35V77.35Z" fill="#447B99"/>
<path d="M94.67 83.08C94.613 82.6705 94.7089 82.2543 94.9396 81.9111C95.1702 81.5679 95.5193 81.3218 95.92 81.22C95.8866 81.6106 95.7543 81.9863 95.5357 82.3117C95.317 82.6371 95.0191 82.9015 94.67 83.08V83.08Z" fill="#447B99"/>
<path d="M45.6101 92.58C45.9747 92.7344 46.2853 92.9936 46.5025 93.3247C46.7197 93.6558 46.8337 94.044 46.8301 94.44C46.4571 94.2974 46.1384 94.041 45.9194 93.7072C45.7004 93.3733 45.5922 92.9789 45.6101 92.58Z" fill="#A13A3E"/>
<path d="M48.09 93.16C47.23 92.78 47.38 92.02 47.44 91.28C47.6674 91.5348 47.8419 91.8322 47.9535 92.1549C48.0651 92.4776 48.1115 92.8192 48.09 93.16Z" fill="#A13A3E"/>
<path d="M81.2201 105.27L81.28 107.21C81.1217 107.105 80.9909 106.963 80.8985 106.797C80.8061 106.631 80.7549 106.445 80.749 106.256C80.7431 106.066 80.7828 105.877 80.8648 105.706C80.9467 105.534 81.0685 105.385 81.2201 105.27V105.27Z" fill="#2A446D"/>
<path d="M68.6 116.05L66.85 116.18C67.37 115.16 68 115.22 68.6 116.05Z" fill="#34476E"/>
<path d="M83.19 93.9C83.11 93.31 83.19 92.83 83.85 92.66L83.19 93.9Z" fill="#A93939"/>
<path d="M95.92 81.21C95.84 80.63 95.92 80.21 96.58 79.98C96.5872 80.2248 96.53 80.4673 96.4142 80.6831C96.2984 80.8989 96.128 81.0806 95.92 81.21V81.21Z" fill="#447B99"/>
<path d="M38.93 26.65C38.74 26.86 38.54 27.06 38.34 27.27C38.54 27.06 38.74 26.86 38.93 26.65Z" fill="#96363B"/>
<path d="M38.33 27.28L37.71 27.89L38.33 27.28Z" fill="#96363B"/>
<path d="M47.39 95.13C47.55 95.39 47.72 95.65 47.88 95.92C47.72 95.65 47.55 95.39 47.39 95.13Z" fill="#A13A3E"/>
<path d="M46.84 94.46L47.39 95.13L46.84 94.46Z" fill="#A13A3E"/>
<path d="M39.56 26.0601L38.95 26.6401L39.56 26.0601Z" fill="#96363B"/>
<path d="M48.6 93.86L48.08 93.14L48.6 93.86Z" fill="#A13A3E"/>
<path d="M83.83 92.68L84.34 91.95L83.83 92.68Z" fill="#A93939"/>
<path d="M94.66 79.91L94.15 80.6L94.66 79.91Z" fill="#447B99"/>
<path d="M62.6199 118C63.2399 117.28 63.73 116.3 64.93 116.7C64.71 117.6 66.4799 118.7 64.8799 119.33C63.9399 119.75 62.5299 120 62.6199 118Z" fill="#B8D3DF"/>
<path d="M57.1 145.86C56.77 144.51 56.6101 143.26 58.5501 143.35C59.0532 143.407 59.5626 143.353 60.0428 143.192C60.5229 143.031 60.9622 142.768 61.3301 142.42C62.7901 141 64.39 141.09 66.02 142.19C66.94 142.81 67.84 143.59 69.02 143.08C69.95 142.69 71.02 142.55 71.27 143.73C71.51 145.14 70.36 145.73 69.17 145.83C67.26 145.93 65.34 145.83 63.42 145.83H57.1V145.86Z" fill="#BCAC8D"/>
</g>
<defs>
<clipPath id="clip0">
<rect width="150" height="150" fill="white"/>
</clipPath>
</defs>
</svg>
