<svg width="50" height="57" viewBox="0 0 50 57" fill="none" xmlns="http://www.w3.org/2000/svg">
<path d="M47.9167 7.18114H38.8889V2.7684C38.8889 1.30117 37.9601 0.120758 36.8056 0.120758H13.1944C12.0399 0.120758 11.1111 1.30117 11.1111 2.7684V7.18114H2.08333C0.928819 7.18114 0 8.36155 0 9.82878V16.0066C0 19.945 1.95312 23.9937 5.37326 27.1157C8.10764 29.6199 11.4323 31.2085 14.9219 31.716C17.6476 37.4635 20.8333 39.8354 20.8333 39.8354V47.7783H16.6667C13.6024 47.7783 11.1111 50.0619 11.1111 53.9562V55.28C11.1111 56.0081 11.5799 56.6038 12.1528 56.6038H37.8472C38.4201 56.6038 38.8889 56.0081 38.8889 55.28V53.9562C38.8889 50.0619 36.3976 47.7783 33.3333 47.7783H29.1667V39.8354C29.1667 39.8354 32.3524 37.4635 35.0781 31.716C38.5764 31.2085 41.901 29.6199 44.6267 27.1157C48.0382 23.9937 50 19.945 50 16.0066V9.82878C50 8.36155 49.0712 7.18114 47.9167 7.18114ZM8.61979 21.3902C6.50174 19.4485 5.55556 17.2863 5.55556 16.0066V14.2415H11.1285C11.2153 17.8379 11.6319 20.993 12.2396 23.751C10.9288 23.1773 9.70486 22.383 8.61979 21.3902ZM44.4444 16.0066C44.4444 17.7827 42.908 19.9891 41.3802 21.3902C40.2951 22.383 39.0625 23.1773 37.7517 23.751C38.3594 20.993 38.776 17.8379 38.8628 14.2415H44.4444V16.0066Z" fill="#FF604E"/>
</svg>
