<svg width="132" height="150" viewBox="0 0 132 150" fill="none" xmlns="http://www.w3.org/2000/svg">
<g clip-path="url(#clip0)">
<path d="M111.71 143.23C92.55 144.79 73.37 145.99 54.14 145.41C44.94 145.13 35.72 144.92 26.57 143.59C25.2598 143.477 23.9433 143.453 22.63 143.52C21.7683 143.918 20.8098 144.057 19.8707 143.92C18.9316 143.783 18.0525 143.377 17.34 142.75C13.22 142.56 9.33996 141.8 6.15996 138.81C2.97996 135.82 2.56996 131.57 2.15996 127.61C0.939961 114.16 -0.380039 100.7 0.0999608 87.16C0.451606 76.5264 1.54762 65.9305 3.37996 55.45C5.55996 48.85 10.97 47.29 17.02 46.45C26.02 45.28 35.02 46.18 44.02 45.03C53.02 43.88 62.25 44.71 71.36 44.51C85.73 44.8 100.08 45.68 114.42 46.51C119.78 46.8 124.95 47.83 128.25 52.78C130.13 57 130.15 61.62 130.56 66.02C132.056 82.3135 132.2 98.7029 130.99 115.02C130.65 119.73 130.33 124.42 129.77 129.11C128.77 137.8 125.99 141.11 117.46 142.64C115.67 144.36 113.64 143.34 111.71 143.23Z" fill="#52B6E3"/>
<path d="M71.39 45.5099C65.01 45.5099 58.57 44.99 52.26 45.65C39.51 46.99 26.64 46.17 13.94 48.11C11.7214 48.4005 9.60467 49.2186 7.76733 50.4957C5.92998 51.7728 4.42552 53.4716 3.38 55.45C4.77 49.45 8.99 46.21 15.12 45.45C28.12 43.91 41.02 42.53 54.12 42.72C55.2135 42.6445 56.2979 42.4704 57.36 42.2C63.08 43.46 68.84 43.04 74.6 42.61L75.4 42.81C75.73 46.25 72.51 44.3099 71.39 45.5099Z" fill="#93D3EB"/>
<path d="M71.39 45.51C71.5 44.81 71.7 44.2 72.62 44.51C74.19 45.03 74.71 43.83 75.36 42.84C85.8972 42.5357 96.4408 43.1548 106.87 44.69C110.32 45.25 113.87 45.05 117.35 45.6C121.99 46.33 126.2 48 128.23 52.8C123.73 48.4 118.05 47.71 112.13 47.46C98.55 46.9 85 46.17 71.39 45.51Z" fill="#93D3EB"/>
<path d="M60.0699 37.49C56.0699 30.8233 52.0699 24.1567 48.0699 17.49C47.4599 16.49 46.1599 15.11 47.3699 14.38C48.5799 13.65 49.4999 15.38 50.1499 16.43C53.9499 22.43 57.7399 28.43 61.3699 34.54C61.6447 35.0507 62.051 35.4786 62.5469 35.7793C63.0428 36.0799 63.6101 36.2425 64.1899 36.25C68.8999 36.93 72.2799 35.35 75.0099 31.33C77.2099 28.09 80.1599 25.33 82.8299 22.46C83.2799 21.97 83.8299 20.99 84.6999 21.72C85.5699 22.45 84.8099 23.13 84.3399 23.72C81.3399 27.36 78.3399 31.02 75.3399 34.6C74.2835 35.7126 73.379 36.9601 72.6499 38.31C68.4799 37.68 64.2199 38.5 60.0699 37.49Z" fill="#B6B5B2"/>
<path d="M60.07 37.49C64.33 36.74 68.6 35.83 72.66 38.29C73.43 39.68 74.66 40.88 74.57 42.64C68.77 44.64 63.01 45.38 57.33 42.23C57.8658 40.46 58.8036 38.8378 60.07 37.49V37.49Z" fill="#7A7B7B"/>
<path d="M111.71 143.23C113.53 142.14 115.52 142.77 117.44 142.7C117.789 143.939 118.047 145.203 118.21 146.48C118.29 147.65 119.08 149.26 117.35 149.87C115.83 150.4 114.99 149.25 114.35 148.04C113.47 146.43 112.58 144.83 111.71 143.23Z" fill="#999A99"/>
<path d="M17.34 142.75C19.2 142.34 20.88 143.17 22.63 143.52C21.63 145.32 20.63 147.14 19.63 148.93C19.4171 149.32 19.068 149.618 18.6494 149.768C18.2307 149.917 17.7718 149.907 17.36 149.74C16.42 149.45 16.36 148.65 16.45 147.88C16.71 146.16 17 144.46 17.34 142.75Z" fill="#9A9B9B"/>
<path d="M42.9999 3.23C42.6099 3.95 43.6299 5.69 41.7299 5.46C40.0799 5.26 37.9199 5.1 37.9299 2.79C37.9039 2.43544 37.9509 2.07931 38.068 1.74363C38.1851 1.40795 38.3698 1.09985 38.6106 0.838363C38.8515 0.576879 39.1434 0.36757 39.4684 0.223372C39.7934 0.0791741 40.1444 0.00315052 40.4999 0C42.3799 0.05 42.9999 1.4 42.9999 3.23Z" fill="#B1B1AF"/>
<path d="M93.22 9.15004C94.66 9.37004 95.82 10.15 95.66 11.66C95.5988 12.3849 95.2619 13.0587 94.7186 13.5425C94.1753 14.0263 93.4671 14.2831 92.74 14.26C92.4424 14.2836 92.1434 14.2403 91.8648 14.1332C91.5862 14.0262 91.3351 13.8581 91.1299 13.6414C90.9247 13.4247 90.7706 13.1648 90.6789 12.8808C90.5872 12.5968 90.5602 12.2958 90.6 12C90.568 11.6371 90.612 11.2716 90.7293 10.9267C90.8466 10.5817 91.0345 10.2651 91.281 9.99687C91.5276 9.72867 91.8274 9.51484 92.1612 9.36903C92.4951 9.22322 92.8557 9.14864 93.22 9.15004V9.15004Z" fill="#B0AFAE"/>
<path d="M60.57 135.24C46.71 136.35 33.07 134.39 19.4 133.34C14.33 133 11.25 129 10.48 124C8.48 111.12 8.48 98.1801 8.57 85.2101C8.80279 78.1973 9.50772 71.2081 10.68 64.2901C11.24 60.4901 15.55 57.0601 19.73 56.8701C38.06 56.0001 56.4 55.0001 74.76 55.5201C84.2 55.8001 93.65 56.0901 103.04 56.9301C108.04 57.3701 111.61 59.7601 112.41 66.0901C114.075 77.9495 114.694 89.9322 114.26 101.9C113.87 109.9 113.09 117.9 112.26 125.83C111.86 129.67 107.59 133.07 102.9 133.34C88.76 134.16 74.7 136.45 60.57 135.24Z" fill="#3981AA"/>
<path d="M127.54 90.7901C127.416 92.1602 126.773 93.4312 125.744 94.3437C124.714 95.2562 123.375 95.7413 122 95.7C119.27 95.39 119.36 92.76 119.15 90.92C118.88 88.47 122.31 85.5501 124.82 86.1501C127.33 86.7501 126.94 89.3001 127.54 90.7901Z" fill="#9EA0A1"/>
<path d="M126.24 75.6C125.54 76.98 126.46 79.76 124.09 80.21C123.367 80.3241 122.628 80.2802 121.923 80.0815C121.219 79.8828 120.566 79.5339 120.009 79.0588C119.452 78.5837 119.005 77.9937 118.698 77.3293C118.391 76.6649 118.231 75.9419 118.23 75.21C118.33 73.28 118.51 70.97 120.95 70.73C121.626 70.6621 122.308 70.7382 122.953 70.9531C123.597 71.1681 124.189 71.5171 124.689 71.9772C125.188 72.4373 125.585 72.998 125.852 73.6224C126.12 74.2468 126.252 74.9208 126.24 75.6V75.6Z" fill="#9D9FA1"/>
<path d="M117.75 117C118.15 115.68 116.86 114.12 118.33 112.94C119.516 112.183 120.893 111.781 122.3 111.781C123.707 111.781 125.084 112.183 126.27 112.94C127.75 114.25 126.39 115.55 126.27 116.86C123.534 117.903 120.519 117.953 117.75 117V117Z" fill="#3B85A6"/>
<path d="M122.92 105.12C121.48 104.54 118.7 105.94 118.72 104.06C118.72 101.69 121.51 102.98 123.01 102.93C124.51 102.88 127.13 101.93 127.11 103.93C127.09 105.93 124.37 104.55 122.92 105.12Z" fill="#2D667E"/>
<path d="M121.83 121.13C120.49 120.48 117.89 122.13 117.83 119.87C117.83 118.11 120.39 118.87 121.73 118.98C123.23 119.08 125.98 117.7 125.99 120.1C126 122 123.28 120.53 121.83 121.13Z" fill="#2A6077"/>
<path d="M118.35 109L118.41 106.9C121.16 105.93 124.163 105.951 126.9 106.96L126.83 108.96C125.521 109.639 124.069 109.997 122.595 110.004C121.12 110.011 119.665 109.667 118.35 109V109Z" fill="#3A84A4"/>
<path d="M126.27 113H118.33C117.64 111.4 118.77 110.6 119.9 110.39C122.01 110 124.25 109.48 126.19 111.07C126.6 111.63 127.12 112.27 126.27 113Z" fill="#2A6077"/>
<path d="M126.19 111C124.37 111 122.55 111.05 120.74 111.05C119.44 111.05 118.37 111.33 118.33 112.93C116.83 111.82 118.59 110.72 118.33 109.61C121.143 109.175 124.007 109.175 126.82 109.61L126.19 111Z" fill="#3A84A4"/>
<path d="M126.9 107L118.41 106.94C118.33 106.15 118.65 105.68 119.47 105.68C121.74 105.68 124.02 105.68 126.3 105.74C127.08 105.75 127.52 106.17 126.9 107Z" fill="#295D73"/>
<path d="M117.75 117L126.26 116.91C126.4 117.67 126.16 118.24 125.32 118.24C123.04 118.24 120.76 118.24 118.48 118.18C117.79 118.15 117.66 117.58 117.75 117Z" fill="#285B71"/>
<path d="M126.82 109.56H118.33C118.27 109.475 118.237 109.374 118.237 109.27C118.237 109.166 118.27 109.065 118.33 108.98H126.81C126.99 109.1 127.05 109.22 126.99 109.34C126.93 109.46 126.87 109.51 126.81 109.51L126.82 109.56Z" fill="#1B4555"/>
<path d="M126.83 109.56C126.77 109.388 126.77 109.202 126.83 109.03L127.26 109.3L126.83 109.56Z" fill="#3A84A4"/>
<path d="M109 69.29L109.13 72.51C110.515 87.1005 110.515 101.789 109.13 116.38C109.24 126.86 105.93 130.16 93.93 131.25C75.1797 133.046 56.3149 133.324 37.52 132.08C32.7 131.73 27.89 131.08 23.12 130.39C17.75 129.58 14.55 126.44 13.87 121.13C11.5637 104.433 11.4561 87.5052 13.55 70.78C14.55 63.41 17.67 60.21 23.68 59.99C25.86 59.23 28.21 60.32 30.37 59.35C33.75 58.75 37.15 59.21 40.54 59.09C41.5801 58.9585 42.6363 59.047 43.64 59.35C43.16 61.28 41.64 61.53 40.18 61.69C37.77 61.94 35.34 61.69 32.92 61.88C26.19 62.36 23.16 64.97 22.05 71.59C21.3856 75.4924 21.0345 79.4416 21 83.4C21 87.04 21.42 87.59 24.94 88.28C31.38 89.54 38 90 44.53 90.64C58.53 91.96 72.65 91.21 86.72 91.36C91.78 91.36 96.81 90.78 101.85 90.36C105.51 90.06 105.92 89.36 105.98 85.78C106.162 80.843 105.934 75.8994 105.3 71C104.55 66 102.46 63.61 97.5 62.52C96.04 62.2 94.5 62.04 93.63 60.03C95.273 59.6332 96.9869 59.6332 98.63 60.03L101.18 60.17C102 60.7055 102.897 61.1134 103.84 61.38V61.38C104.008 61.6813 104.288 61.9041 104.62 62C104.812 62.0013 104.997 62.0724 105.14 62.2C105.371 62.354 105.586 62.5316 105.78 62.73V62.73L106.42 63.37C106.629 63.5649 106.823 63.7755 107 64C107.063 64.0703 107.111 64.1526 107.142 64.2418C107.173 64.3311 107.186 64.4257 107.18 64.52C107.279 64.85 107.501 65.1294 107.8 65.3V65.3C108.29 65.89 107.8 66.74 108.37 67.3C109 67.89 108.47 68.76 109 69.29Z" fill="#363636"/>
<path d="M98.5899 59.9999L94.4099 60.1899C95.1999 61.4099 96.2599 61.3199 97.2699 61.3999C99.4829 61.4664 101.601 62.3143 103.248 63.7934C104.896 65.2724 105.966 67.287 106.27 69.4799C107.27 75.7899 107.06 82.1699 107.04 88.5399C107.04 90.4299 105.81 90.8299 104.29 91.1399C99.2899 92.1399 94.2899 92.1399 89.2899 92.3399C78.1999 92.7099 67.0799 92.6699 55.9799 92.3999C44.9446 92.0657 33.9453 90.9732 23.0599 89.1299C20.9599 88.7799 19.7699 87.8099 19.7899 85.4099C19.8256 80.0428 20.3308 74.689 21.2999 69.4099C22.2999 63.8499 26.6599 60.8899 33.1899 60.7099C36.4099 60.6199 39.7099 61.2599 42.8399 59.3599H30.3899C30.7719 59.1624 31.1789 59.0177 31.5999 58.9299C53.4051 57.663 75.2706 57.8568 97.0499 59.5099C97.5807 59.6122 98.0976 59.7767 98.5899 59.9999V59.9999Z" fill="#4B4A4A"/>
<path d="M109.15 116.38C109.86 106.56 109.54 96.72 109.78 86.89C109.9 82.06 108.67 77.33 109.13 72.51C109.641 74.7422 109.992 77.0079 110.18 79.29C110.36 91.14 110.86 103 109.62 114.83C109.517 115.361 109.359 115.881 109.15 116.38V116.38Z" fill="#4B4A4A"/>
<path d="M30.3899 59.35C28.2799 60.8 25.94 59.85 23.7 59.99C25.87 59.11 28.1399 59.35 30.3899 59.35Z" fill="#4B4A4A"/>
<path d="M103.8 61.34C103.285 61.4818 102.737 61.4383 102.251 61.2172C101.765 60.9961 101.371 60.6113 101.14 60.13C102.137 60.2247 103.074 60.6507 103.8 61.34Z" fill="#4B4A4A"/>
<path d="M109 69.29C108.31 68.81 108.37 68.09 108.38 67.38C109.11 67.85 109.05 68.57 109 69.29Z" fill="#4B4A4A"/>
<path d="M108.36 67.33C107.63 66.8 107.73 66.05 107.79 65.33C108.54 65.82 108.33 66.61 108.36 67.33Z" fill="#4B4A4A"/>
<path d="M104.59 62L103.81 61.38L104.59 62Z" fill="#4B4A4A"/>
<path d="M106.41 63.35L105.77 62.71L106.41 63.35Z" fill="#4B4A4A"/>
<path d="M107.78 65.31L107.16 64.53L107.78 65.31Z" fill="#4B4A4A"/>
<path d="M107 64C106.81 63.79 106.63 63.57 106.45 63.36C106.61 63.58 106.79 63.8 107 64Z" fill="#4B4A4A"/>
<path d="M105.75 62.69L105.11 62.16L105.75 62.69Z" fill="#4B4A4A"/>
<path d="M126.75 114.63C124.129 115.133 121.433 115.113 118.82 114.57C121.44 114.054 124.138 114.074 126.75 114.63V114.63Z" fill="#1C4656"/>
</g>
<defs>
<clipPath id="clip0">
<rect width="131.79" height="150" fill="white"/>
</clipPath>
</defs>
</svg>
