<svg width="151" height="152" viewBox="0 0 151 152" fill="none" xmlns="http://www.w3.org/2000/svg">
<path d="M6.80482 93.4347C5.65724 92.7674 5.37903 91.5898 5.27471 90.2944C5.06606 89.0383 5.10083 87.8215 5.48336 86.6439C5.83111 84.956 6.94392 83.6999 7.60465 82.169C9.55206 80.4026 11.5343 78.7147 14.212 78.7147C19.9151 78.754 25.6182 78.7147 31.3562 78.7147C31.6691 78.7147 31.9821 78.7147 32.2951 78.5577C32.5037 78.4792 32.7124 78.4399 32.921 78.4399C33.234 78.5184 33.547 78.6755 33.86 78.754C35.2162 79.1465 36.6072 79.1073 37.9982 79.1073C49.8566 79.1073 61.715 79.1073 73.5733 79.1073C76.1467 79.1073 76.4945 79.4213 76.4597 82.3653C76.4249 86.5261 76.6683 90.687 76.564 94.8871C76.564 95.5151 76.5292 96.1824 76.2858 96.8105C74.9991 98.3021 73.5733 99.3619 71.5911 99.5582C68.357 99.8722 65.6793 98.0273 62.8625 96.8105C61.3672 96.1432 59.8371 95.4759 58.3418 94.8478C55.8379 93.8665 53.4732 94.102 51.0737 95.3188C48.4656 96.6142 46.1704 98.4984 43.8405 100.343C41.5105 102.306 38.8328 102.424 36.1204 102.267C35.3901 102.227 34.625 102.188 33.8948 102.188C33.7209 102.11 33.547 102.07 33.3731 101.992C31.3909 100.186 28.9219 99.4404 26.8354 97.9488C26.2442 97.517 25.5835 97.3208 24.888 97.203C23.2187 96.6535 21.7234 95.6329 20.089 94.9656C17.5504 93.945 14.977 93.5132 12.2645 93.9842C10.6996 94.259 9.09999 94.3375 7.50032 94.0235C7.2569 93.788 7.01347 93.631 6.80482 93.4347Z" fill="#EEE7DF"/>
<path d="M32.4339 53.0035C32.4339 52.8857 32.4339 52.7679 32.3991 52.6894C32.3991 52.5717 32.3991 52.4932 32.3644 52.3754C32.3296 51.7866 32.573 51.2763 32.9903 51.08C34.7291 50.2164 35.9114 48.5677 37.372 47.2723C40.5713 44.446 43.9097 44.7993 46.4136 48.0574C46.9004 48.6855 47.1786 49.3136 47.2134 50.1379C47.2482 50.7267 47.2482 51.3155 47.3873 51.8651C47.5959 52.6894 47.8393 53.5138 48.674 53.7885C49.5433 54.0633 50.0302 53.3567 50.5866 52.7679C51.2821 51.9828 51.8037 50.7267 53.1252 51.3155C53.5425 52.8464 52.6383 54.7306 50.7605 56.1045C49.5433 57.0074 47.9437 57.0074 47.0743 56.0653C46.1701 55.0839 45.4746 54.0241 45.3355 52.4539C44.8835 48.2144 41.9276 46.8798 38.7282 49.235C37.7545 49.9809 37.059 51.0407 36.0853 51.7866C35.1812 52.5324 34.2075 53.1212 33.0946 53.4353C32.9208 53.396 32.7469 53.3567 32.6078 53.239C32.5382 53.1605 32.5035 53.082 32.4339 53.0035Z" fill="#F6E6BE"/>
<path d="M32.3995 52.6897C31.3562 52.4542 31.078 51.6298 31.0433 50.5699C30.9737 48.5679 31.2519 46.6051 32.017 44.7601C32.2952 42.8366 33.4775 41.5412 34.6947 40.4028C35.2163 39.9317 35.9118 39.4607 36.6421 39.2644C37.0246 39.3037 37.3028 39.5392 37.5114 39.8532C37.8592 40.8739 37.0941 41.1879 36.5725 41.6982C34.5208 43.7002 32.9211 46.0163 32.7125 49.2352C32.6429 50.3344 33.095 51.4335 32.5038 52.4934C32.469 52.5719 32.4343 52.6504 32.3995 52.6897Z" fill="#E4E9E9"/>
<path d="M140.237 79.7738C141.454 80.5982 142.672 81.4617 143.68 82.6001C144.167 83.3459 144.619 84.0917 145.106 84.8376C146.219 85.7404 146.149 87.1143 146.358 88.4489C146.288 91.9425 146.532 95.4361 146.219 98.9296C145.697 99.7147 145.523 100.892 144.376 100.971C143.019 101.56 141.628 101.638 140.203 101.167C137.003 100.107 133.839 98.9689 130.639 97.909C129.735 97.595 128.901 97.5558 127.996 97.909C127.058 98.2623 126.119 98.6156 125.11 98.2231C124.171 97.8698 123.858 99.0081 123.163 99.2044C121.911 99.5184 120.728 100.068 119.581 100.657C117.703 101.363 115.999 102.58 114.121 103.248C111.965 104.033 109.67 103.64 107.514 104.543C106.575 104.935 105.427 104.739 104.384 104.033C103.271 103.326 101.88 103.365 100.663 102.776C99.898 102.423 99.1677 102.031 98.7157 101.246C98.5418 100.932 98.3679 100.618 98.0549 100.421C97.3247 100.304 96.9769 99.7147 96.6987 99.0474C96.5944 98.8119 96.4205 98.6156 96.2814 98.4586C96.1771 98.3408 96.0728 98.2231 95.9684 98.1053C95.5859 97.6735 95.2034 97.3595 94.7165 97.0847C94.5426 96.9277 94.4035 96.7707 94.2297 96.5744C93.9862 96.2604 93.6733 96.0641 93.3255 95.9071C93.1168 95.7501 92.9778 95.5538 92.8734 95.3183C92.8387 94.2584 92.6996 93.3556 91.3781 93.4341C90.7521 93.4734 90.0914 93.0416 89.4655 92.7668C89.3264 92.6883 89.1873 92.5705 89.0829 92.4528C87.8658 90.8434 85.3967 90.9611 84.1101 92.649C83.3798 92.8453 82.7538 93.2379 82.0583 93.5911C80.8412 93.9052 79.8327 94.6902 78.9633 95.6716C78.4069 96.4567 77.5375 96.6529 76.8768 97.2025C76.4247 97.595 75.9379 97.5165 75.5553 96.967C75.5553 91.707 75.5554 86.4077 75.5206 81.1477C75.5206 80.1664 74.9989 79.7346 74.1991 79.7346C73.6079 79.7346 73.0515 79.6953 72.4604 79.6953C59.7674 79.6953 47.1092 79.6953 34.4162 79.6953C33.9641 79.6953 33.4773 79.8916 33.1643 79.3028C33.825 78.3607 34.764 78.714 35.5986 78.714C57.2983 78.6747 79.0329 78.714 100.733 78.6747C106.818 78.6747 112.904 78.871 118.955 78.5177C120.624 78.9103 122.293 78.714 123.963 78.6747C128.275 78.5962 132.622 78.871 136.934 78.5177C138.116 78.4785 139.229 79.0673 140.237 79.7738Z" fill="#E5DBD1"/>
<path d="M7.60428 116.358C7.43041 108.822 7.43041 101.246 7.60428 93.7095C12.9597 92.846 18.2803 92.4927 23.2532 95.6329C23.8443 96.0254 24.5051 96.2609 25.1658 96.5749C27.9478 98.145 30.6951 99.7936 33.5119 101.324C35.4593 101.717 37.4067 102.345 39.4584 101.913C41.232 101.521 42.8664 100.775 44.2922 99.5188C46.5874 97.8702 48.7434 96.0254 51.2472 94.8086C53.5076 93.6703 55.8376 93.5132 58.1675 94.2983C60.7061 95.2011 63.1056 96.4964 65.5051 97.7917C65.992 98.0665 66.4788 98.2628 66.3397 99.0478C66.2006 99.3618 65.9572 99.5188 65.7137 99.6758C64.5662 99.9506 63.5925 99.3618 62.6535 98.773C61.2973 97.9095 59.8715 97.2815 58.3762 96.8497C57.5416 96.6142 56.7417 96.1824 55.9071 95.9861C53.5772 95.8291 51.5254 96.6142 49.6476 98.2628C47.5611 100.108 45.2311 101.481 42.7621 102.659C42.5187 102.777 42.31 102.934 42.0666 103.012C41.6493 103.052 41.1972 103.13 40.7799 103.209C39.8757 103.64 39.2498 104.818 38.0674 104.465C37.7892 104.425 37.511 104.347 37.2676 104.268C36.4678 104.111 35.7723 103.601 34.9376 103.601C31.4601 103.601 28.6085 101.913 26.1395 99.2441C25.7917 98.9693 25.4092 98.7338 24.9919 98.6553C24.818 98.6553 24.6442 98.5768 24.5051 98.4983C23.74 97.988 23.2184 97.0459 22.3142 96.8104C22.1403 96.7319 22.0012 96.6534 21.8274 96.5357C18.628 94.9656 15.2896 94.3375 11.8469 94.416C11.047 94.4553 10.3168 94.5731 9.76035 95.2796C9.16917 96.4572 8.9953 97.7917 8.96052 99.1263C8.92574 99.3226 8.89097 99.5188 8.85619 99.7151C8.61277 103.719 8.54322 107.683 8.92574 111.687C9.09962 112.629 8.89097 113.689 9.51692 114.513C9.6908 114.631 9.86468 114.749 10.0386 114.749C30.243 115.769 50.4474 114.984 70.6518 115.22C72.0429 115.22 73.3643 114.552 74.7901 114.866C75.1378 115.023 75.4161 115.22 75.729 115.455C76.042 115.887 76.2854 116.319 75.8681 116.829C75.2422 117.3 74.5119 117.143 73.8512 117.143C52.1166 117.143 30.4169 117.182 8.68232 117.143C8.16069 117.143 7.77816 116.947 7.60428 116.358Z" fill="#EDCE60"/>
<path d="M119.059 79.0277C117.842 79.5772 116.521 79.3417 115.269 79.3417C88.5615 79.3024 61.8541 79.2632 35.1119 79.2632C34.4859 79.2632 33.8252 79.3024 33.1993 79.3417C33.0949 79.1847 32.9558 79.0277 32.8515 78.8706C32.5733 78.5566 32.6429 78.1641 32.6429 77.7716C32.6429 69.921 32.6429 62.0311 32.6429 54.1806C32.6429 53.788 32.5733 53.3955 32.8863 53.0815C33.7904 52.5319 34.6946 51.9824 35.5988 51.4329C35.7726 51.5899 35.877 51.8254 35.9117 52.0609C35.9465 52.7282 35.6683 53.2385 35.2858 53.7488C34.0339 55.2011 33.6166 56.889 33.6513 58.9302C33.7209 63.876 33.6513 68.8612 33.6861 73.807C33.6861 76.751 34.5207 77.6146 37.0941 77.6146C48.8481 77.5753 60.5674 77.6146 72.3214 77.6146C73.6081 77.6146 74.8253 78.0071 76.1119 78.1248C77.0856 78.3211 78.0593 78.3604 79.0678 78.3604C90.5784 78.3604 102.089 78.3211 113.634 78.3996C116.625 78.3996 117.494 76.6725 117.634 74.8668C117.738 73.5322 117.842 72.1584 117.842 70.7845C117.842 66.5452 117.947 62.3059 117.251 58.1059C117.077 57.1638 116.764 56.418 116.243 55.6722C115.93 55.2404 115.373 54.9264 115.512 54.2198C116.382 53.317 117.46 53.788 118.433 53.7095C118.642 53.788 118.851 53.945 119.025 54.1413C119.511 56.575 119.198 59.0479 119.198 61.4816C119.233 67.291 119.338 73.179 119.059 79.0277Z" fill="#E6D376"/>
<path d="M66.3398 98.8916C63.6274 97.1644 60.8106 95.6334 57.8199 94.6128C55.0727 93.6706 52.4297 94.2595 49.9955 95.9082C48.1176 97.1644 46.2745 98.499 44.3966 99.7945C44.1184 99.9907 43.875 100.03 43.6316 99.7552C45.5095 98.2243 47.4221 96.8111 49.4043 95.4764C53.3339 92.8463 57.1592 93.1996 61.1236 95.2016C63.1057 96.2222 65.0879 97.3214 67.1397 98.2243C70.1304 99.4804 73.0167 99.2056 75.6596 97.0466C76.842 96.654 77.8157 95.9082 78.7894 95.0838C79.624 94.6128 80.3195 93.8276 81.2932 93.6706C81.5714 93.7491 81.7453 93.9847 81.7801 94.2987C81.2932 95.8297 79.9718 96.183 78.9285 96.8896C77.9548 97.5569 76.9463 98.185 76.0074 98.8916C73.3645 100.54 70.5477 100.776 67.6613 99.8337C67.1049 99.6374 66.5485 99.5197 66.3398 98.8916Z" fill="#F6E6C4"/>
<path d="M43.5969 99.7158C43.8403 99.7158 44.1185 99.7551 44.3619 99.7551C40.9887 102.543 37.3721 103.25 33.4773 101.326C35.2508 101.208 36.9896 101.915 38.7631 101.679C40.5367 101.443 42.1363 100.776 43.5969 99.7158Z" fill="#F7E4BA"/>
<path d="M33.5121 101.328C30.4171 100.424 27.7394 98.6174 25.166 96.5747C28.1567 97.6746 30.9735 99.2066 33.5121 101.328Z" fill="#F7E4BA"/>
<path d="M144.341 101.209C144.236 101.248 144.132 101.327 143.993 101.366C143.854 101.523 143.715 101.641 143.541 101.759C140.828 102.308 138.22 101.719 135.751 100.502C131.682 98.4991 127.614 98.3028 123.441 99.8736C122.432 100.109 121.493 100.855 120.38 100.659C119.998 100.62 119.615 100.541 119.407 100.07C124.067 97.3995 128.831 95.9465 134.047 98.2242C137.351 99.6773 140.794 100.738 144.41 100.895C144.341 101.013 144.341 101.091 144.341 101.209Z" fill="#EDDBB8"/>
<path d="M78.9286 35.7332C78.8243 35.8117 78.7199 35.8903 78.5808 35.9688C78.0592 37.3434 77.016 37.6969 75.7988 37.6184C75.3467 37.2256 75.0685 36.715 74.9294 36.1259C74.9294 35.8117 75.0685 35.5368 75.2424 35.3012C75.7988 34.987 76.3205 34.5942 76.9116 34.3979C77.5028 34.3586 78.0592 33.8873 78.6852 34.3193C78.9634 34.6335 78.859 35.0655 78.9981 35.419C78.9634 35.5368 78.9286 35.6154 78.9286 35.7332Z" fill="#EC938E"/>
<path d="M78.9634 28.7455C78.9634 28.8633 78.9634 28.9811 78.9982 29.0596C78.9286 29.5309 79.1025 30.0807 78.8591 30.5519C77.9897 31.3766 77.0508 32.005 75.8684 31.8479C75.4511 31.573 75.0686 31.2588 74.9642 30.6697C74.9295 29.845 75.5206 29.6487 75.9727 29.2953C76.8073 28.7847 77.5028 27.8815 78.6157 28.2742C78.7895 28.4313 78.8939 28.5491 78.9634 28.7455Z" fill="#EF9895"/>
<path d="M78.685 12.6119C78.685 12.8868 78.6502 13.1225 78.6502 13.3974C78.1981 14.065 77.8851 14.8505 77.0853 15.0861C76.5984 15.1254 76.1116 15.0861 75.6943 14.7327C75.4161 14.3792 75.4161 13.9472 75.4509 13.5152C75.4856 13.3188 75.5204 13.1225 75.6247 12.9261C76.1116 12.3763 76.8071 12.5727 77.3287 12.2192C77.6417 12.2192 77.9547 12.2192 78.3024 12.1799C78.4415 12.3763 78.5459 12.4941 78.685 12.6119Z" fill="#DB8B8C"/>
<path d="M72.4601 38.5197C72.4601 38.3626 72.4948 38.2448 72.4948 38.0877C72.5644 37.9307 72.6339 37.7343 72.7035 37.5772C72.8426 37.4594 72.9817 37.3809 73.1208 37.3809C73.5033 37.4987 73.9206 37.5379 74.3031 37.5772C74.477 37.6558 74.6161 37.7343 74.7552 37.8521C75.1377 38.2448 75.7637 38.3234 76.0419 38.9125C76.2158 39.3444 76.1462 39.7764 76.181 40.2477C76.2506 40.7582 76.1115 41.1902 75.7637 41.5044C75.2421 41.8578 74.6509 41.7793 74.0597 41.7007C73.6424 41.6615 73.1556 41.4258 72.8774 41.6222C70.5126 43.3109 68.1131 41.8186 65.7484 41.8186C58.9673 41.8186 52.1861 41.8186 45.4397 41.8186C44.466 41.8186 43.4575 41.8186 42.5186 42.172C41.4058 42.5647 40.3625 42.604 39.98 41.1117C39.6322 39.6193 40.8146 39.5015 41.6492 39.1088C41.8231 39.0303 41.9969 38.991 42.136 38.9517C42.5533 38.8732 42.9706 38.9125 43.3879 38.8732C51.421 38.8732 59.4541 38.8732 67.522 38.8339C68.6 38.8339 69.7128 39.2266 70.7908 38.8339C71.2777 38.5197 71.9384 38.8732 72.4601 38.5197Z" fill="#ECE8DD"/>
<path d="M76.3207 29.9237C75.9382 30.1593 75.5557 30.3556 75.1731 30.5912C74.7906 31.887 74.0951 32.2797 72.9475 31.7299C72.3911 30.3949 72.4259 29.0205 72.6693 27.6462C73.5039 26.4289 74.5472 25.6435 75.9382 25.6828C77.2944 26.9394 76.4251 28.4708 76.3207 29.9237Z" fill="#DC6166"/>
<path d="M72.8778 25.9215C72.3214 24.6648 72.5996 23.3296 72.7039 22.0337C73.3299 20.62 74.4079 20.188 75.7294 20.2273C75.9728 20.4236 76.0772 20.6985 76.1815 20.9734C76.7031 21.7588 76.564 22.6228 76.4249 23.526C76.4249 23.9187 76.4597 24.3114 76.3554 24.7041C76.2163 24.979 76.0076 25.1754 75.7642 25.3324C74.7905 25.5288 74.0254 26.9425 72.8778 25.9215Z" fill="#DC6163"/>
<path d="M72.8427 37.6169L72.7036 37.5777C72.3906 36.1643 72.4601 34.7509 72.634 33.3375C73.4338 32.2381 74.2685 31.2566 75.6942 31.7277C75.9029 31.9633 75.9724 32.2381 75.9377 32.5522C75.2422 33.6515 74.2684 34.7116 75.0335 36.2821C74.8944 37.8525 73.7816 37.5777 72.8427 37.6169Z" fill="#CA676E"/>
<path d="M72.8778 25.9189C73.7819 25.5263 74.6861 25.173 75.5903 24.7805C76.0771 24.8983 76.2162 25.2516 76.0771 25.7618C76.0076 25.8404 75.9728 25.8796 75.9032 25.9581C74.8252 26.4684 73.8863 27.4105 72.7039 27.646C72.4605 27.0179 72.5996 26.4684 72.8778 25.9189Z" fill="#F7D1CD"/>
<path d="M75.5903 31.8073C74.6166 32.318 73.6081 32.8287 72.6344 33.3394C72.5649 32.7501 72.5301 32.1609 72.9822 31.6895C73.7124 31.2967 74.4427 30.9431 75.2078 30.5503C75.5903 30.6681 75.7642 30.9824 75.938 31.3359C75.938 31.6502 75.7989 31.7681 75.5903 31.8073Z" fill="#F3D0CE"/>
<path d="M75.5901 20.4638C74.6164 20.9744 73.6775 21.485 72.7038 22.0349C72.6342 21.6814 72.5647 21.2887 72.4951 20.9352C72.5994 20.7388 72.7385 20.5424 72.8429 20.3853C73.2254 19.3641 73.8514 18.6178 74.8946 18.5C75.1033 18.5 75.2771 18.5786 75.451 18.6571C75.9379 18.8535 76.2856 19.207 76.2161 19.8747C76.1117 20.1889 75.9031 20.3853 75.5901 20.4638Z" fill="#F4D2D4"/>
<path d="M143.784 123.777C144.202 124.876 143.576 126.014 143.854 127.153C143.75 127.388 143.576 127.584 143.367 127.702C142.393 128.291 141.35 128.134 140.307 128.134C119.859 128.134 99.4112 128.409 78.9634 128.056C56.0465 127.663 33.1296 127.859 10.2127 127.742C9.58673 127.742 8.926 127.781 8.30005 127.663C7.9523 127.545 7.67409 127.349 7.60454 126.917C7.46544 124.994 7.43067 123.031 7.60454 121.108C7.67409 120.676 7.9523 120.48 8.30005 120.362C9.16943 120.244 10.0388 120.283 10.9082 120.283C30.1389 120.283 49.3696 120.283 68.6003 120.283C69.7132 120.283 70.7912 120.244 71.8692 119.93C74.1644 119.263 76.4595 119.969 78.7547 119.969C99.3069 119.852 119.894 119.891 140.446 119.93C141.594 119.93 142.915 119.459 143.75 120.911C143.75 121.108 143.75 121.304 143.715 121.5C143.993 122.285 143.993 123.031 143.784 123.777Z" fill="#F3CD4D"/>
<path d="M7.60459 126.957C7.77846 127.035 7.95234 127.114 8.12622 127.153C8.78695 127.585 9.48245 127.35 10.178 127.35C31.2518 127.35 52.3256 127.35 73.3994 127.35C73.8515 127.35 74.3383 127.35 74.7904 127.35C75.8337 127.35 76.6335 127.742 76.6335 129.117C76.5987 130.413 76.1814 131.434 74.9295 131.63C74.3036 131.709 73.6428 131.67 73.0169 131.67C54.4816 131.67 35.9464 131.67 17.4112 131.67C14.5596 131.67 11.7776 132.337 8.92605 132.062C8.50874 132.023 8.05667 132.18 7.63936 132.023C7.39594 130.374 7.36116 128.646 7.60459 126.957Z" fill="#EDE8DA"/>
<path d="M8.16089 120.953C7.98701 121.032 7.81314 121.11 7.63926 121.149C7.39584 119.578 7.43061 117.968 7.63926 116.397C7.95224 116.476 8.26522 116.594 8.57819 116.672C9.2737 116.947 9.9692 116.79 10.6647 116.79C31.6342 116.79 52.6037 116.79 73.6079 116.79C74.06 116.79 74.5469 116.79 74.9989 116.79C76.1465 116.829 76.6681 117.615 76.7029 118.832C76.7377 120.05 76.1117 120.6 75.1033 120.717C74.6512 120.757 74.1643 120.717 73.7122 120.717C52.5689 120.717 31.4255 120.717 10.2474 120.717C9.51713 120.717 8.78685 120.521 8.16089 120.953Z" fill="#EEE8DB"/>
<path d="M7.63912 132.06C7.81299 131.863 7.98687 131.667 8.16074 131.471C8.82147 131.117 9.51698 131.314 10.2125 131.314C31.5993 131.314 52.9513 131.314 74.3381 131.314C85.2227 129.587 96.1422 130.803 107.062 130.568C117.946 130.332 128.831 130.489 139.716 130.529C140.933 130.529 142.15 130.293 143.297 130.96C143.506 131.117 143.645 131.314 143.749 131.549C143.749 134.807 143.749 138.105 143.749 141.363C143.332 141.716 142.95 141.716 142.532 141.363C142.15 139.91 142.289 138.419 142.358 136.927C142.532 134.022 141.976 133.276 139.368 133.276C130.465 133.237 121.563 133.276 112.66 133.276C101.045 133.276 89.4305 133.355 77.7808 133.198C77.0158 133.198 76.2855 133.355 75.5204 133.433C74.199 133.708 72.8775 133.708 71.5213 133.708C52.3949 133.708 33.3033 133.708 14.1769 133.708C13.4814 133.708 12.7859 133.669 12.0904 133.747C10.3168 133.904 9.51698 134.807 9.55176 136.691C9.55176 138.458 10.3168 139.361 12.0208 139.557C12.7859 139.636 13.5161 139.596 14.2812 139.596C32.7121 139.596 51.143 139.596 69.5391 139.596C71.7299 139.596 73.9555 139.557 76.1464 139.871C77.3635 140.028 78.5807 139.989 79.7978 139.989C98.8894 139.989 118.016 139.989 137.107 139.989C138.151 139.989 139.194 139.95 140.237 140.067C140.933 140.146 141.663 140.264 141.698 141.363C140.967 142.305 139.959 141.912 139.09 141.912C121.563 141.952 104.001 141.952 86.4746 141.912C83.7274 141.912 81.0845 142.894 78.372 142.658C78.1286 142.658 77.9199 142.658 77.6765 142.658C76.7376 142.737 75.903 142.305 74.9988 142.109C73.8512 141.912 72.7036 141.952 71.5213 141.952C51.4212 141.952 31.3211 141.952 11.221 141.952C10.6298 141.952 10.0734 141.912 9.48221 141.952C8.09119 142.069 7.46524 141.52 7.56957 139.832C7.67389 137.869 7.67389 135.906 7.53479 133.944C7.60434 133.276 7.60434 132.688 7.63912 132.06Z" fill="#F5CB4C"/>
<path d="M9.93452 141.402C12.5427 141.284 15.1508 141.362 17.759 141.362C35.9812 141.362 54.2034 141.362 72.4257 141.362C73.3298 141.362 74.2688 141.48 75.1729 141.559C75.5555 142.658 74.7904 142.775 74.1992 142.893C73.2255 143.129 72.2518 143.05 71.2433 143.05C51.5605 143.05 31.8429 143.089 12.1601 143.05C9.37811 143.05 6.70042 143.992 3.88362 143.992C2.56216 143.992 2.11008 145.248 2.07531 146.662C2.07531 148.075 2.56216 149.056 3.88362 149.292C4.68345 149.449 5.51806 149.37 6.31789 149.37C28.2611 149.37 50.2391 149.37 72.1823 149.409C73.5037 149.409 75.0338 148.938 75.8684 150.783C75.8684 150.901 75.9032 151.019 75.9032 151.137C75.0338 151.686 74.0949 151.49 73.1907 151.49C50.5173 151.49 27.809 151.49 5.13553 151.49C4.26615 151.49 3.39677 151.568 2.52739 151.608C1.72755 151.568 0.927724 151.647 0.301769 150.98C-0.21986 148.507 0.0931172 146.034 0.0931172 143.561C0.0931172 142.344 0.753847 141.637 1.86666 141.598C3.25767 141.519 4.64868 141.48 6.03969 141.48L9.93452 141.402Z" fill="#E07878"/>
<path d="M42.2062 39.3035C41.8236 40.0886 40.224 39.8138 40.6413 40.9522C41.1281 42.2476 42.1366 40.9915 42.9364 40.9522C43.0408 40.9522 43.1799 40.9129 43.2842 40.9129C51.5955 40.9129 59.9068 40.7952 68.218 41.0307C69.5743 41.07 70.7219 41.2662 71.9738 40.5204C73.2952 39.7353 74.3733 40.9914 75.5904 41.2662C77.2944 42.8756 76.6337 44.9561 76.425 46.9187C76.3902 47.1935 76.2163 47.5075 76.1468 47.8216C76.112 48.0178 76.0772 48.2141 76.0077 48.4104C75.347 49.2347 74.3037 49.745 74.0951 51.0011C74.0255 51.1581 73.9212 51.3544 73.8169 51.4721C72.7736 52.689 71.939 54.0629 71.0696 55.3975C70.6871 55.947 70.3741 56.5751 69.7134 56.7714C68.0789 56.5751 67.1748 58.1845 65.8186 58.6555C64.8101 59.0088 63.8016 59.3621 62.7931 58.6555C61.7151 57.4779 61.263 55.9863 61.1587 54.3377C61.0196 52.4142 60.7761 50.4908 59.5938 48.9599C59.0374 48.4104 58.3766 47.9786 57.7159 47.586C57.2638 47.3505 56.777 47.272 56.2901 47.5075C55.8033 47.6646 55.4208 48.0178 55.073 48.4496C54.6905 48.8029 54.3775 49.2739 54.1688 49.7842C53.7863 50.2945 53.5777 50.9226 53.2647 51.4329C53.1951 51.4721 53.1256 51.5114 53.056 51.5506C52.1519 52.1002 51.5607 52.9638 51.0391 53.9059C50.4479 54.9265 49.5785 55.3975 48.5352 55.319C47.4572 55.2405 47.179 54.2591 46.866 53.3171C46.6574 52.7283 46.4835 52.061 46.4487 51.4329C46.0662 47.4683 43.2146 45.3878 39.911 46.8402C39.1112 47.1935 38.2766 47.6646 37.6854 48.3319C36.19 50.0983 34.4513 51.4329 32.5386 52.5712C31.1824 50.1375 31.6693 47.6646 32.7125 45.4271C33.7558 43.2289 35.1468 41.1485 37.3724 40.1279C37.4767 39.9316 37.6158 39.8138 37.7897 39.7353C39.2503 39.2643 40.676 38.283 42.2062 39.3035Z" fill="#EEE7DF"/>
<path d="M35.6335 51.8659C35.6335 51.7089 35.5988 51.5911 35.5988 51.4341C36.955 50.0995 38.2069 48.6863 39.8413 47.7443C42.5886 46.1741 44.7099 47.1947 45.5793 50.492C45.8575 51.5519 45.9966 52.651 46.3095 53.7108C47.0746 56.3016 49.0916 56.9689 50.9346 55.2025C51.9431 54.2211 52.8473 53.122 53.0559 51.5126C53.195 50.649 53.6819 49.9817 54.0296 49.2359C56.3944 46.1349 57.7158 46.0171 60.1501 48.7649C60.7761 50.2957 61.3672 51.8659 61.3325 53.5931C61.2977 55.5165 62.2714 57.1259 62.5148 58.9708C62.3757 59.1671 62.2366 59.2849 62.028 59.3634C61.0195 59.5204 60.6022 58.7353 60.1849 57.911C59.8371 57.2437 60.011 56.4978 60.0805 55.7913C60.0805 55.595 60.0805 55.3987 60.0805 55.2417C60.1501 54.4959 59.6285 53.9071 59.4894 53.2398C59.3155 52.2977 58.933 51.4341 58.5157 50.6098C57.8549 49.3537 57.1594 49.3929 56.1509 50.5313C56.0466 50.8453 55.8727 51.1593 55.6641 51.4341C55.5598 51.5911 55.4554 51.7089 55.3511 51.8266C55.0034 52.2977 54.2731 52.3762 54.2035 53.2005C54.1688 53.3968 54.0992 53.5146 53.9949 53.6716C53.7514 53.9856 53.4037 54.2211 53.195 54.5744C53.0212 54.8492 52.9516 55.2025 52.8473 55.5557C52.6039 56.2231 52.1866 56.6549 51.6302 57.0081C51.3172 57.2044 51.039 57.4399 50.6912 57.5184C47.2485 58.4605 45.4402 57.9502 45.0229 54.2996C44.8837 52.965 44.3969 51.6696 43.8753 50.4135C43.2493 48.9219 42.3799 48.6078 41.0237 49.2751C40.0152 49.7854 39.2154 50.649 38.3112 51.3556C37.5462 51.9837 36.7116 53.0828 35.6335 51.8659Z" fill="#EECF5E"/>
<path d="M77.5376 9.66967C77.2246 9.98369 76.9116 10.2977 76.5986 10.6117C76.1813 11.0435 75.764 11.0828 75.312 10.6117C74.686 10.3762 74.1296 10.0229 73.7471 9.39491C73.5732 8.84538 73.295 8.37435 73.3646 7.74631C73.3646 7.55005 73.4341 7.35379 73.4689 7.19678C73.7819 6.49024 74.0949 5.7837 74.373 5.07716C74.5469 4.80239 74.7556 4.60613 74.999 4.52763C75.8336 4.17436 76.4248 4.68464 76.9812 5.23417C77.0855 5.39118 77.155 5.58744 77.2246 5.7837C77.7114 7.03977 78.7547 8.21734 77.5376 9.66967Z" fill="#EAB695"/>
<path d="M75.2424 5.15793C75.138 5.31499 75.0337 5.47206 74.9294 5.62913C74.0252 5.86473 74.1643 6.88567 73.8514 7.5532C72.5299 7.98514 72.9124 6.8464 72.8081 6.10033C72.8777 5.66839 72.9124 5.19719 73.1559 4.76526C73.2602 4.64746 73.3993 4.49039 73.5036 4.37259C73.6775 3.50872 74.3382 2.99825 74.686 2.29145C75.3467 0.99564 75.7988 1.58464 76.2856 2.36998C76.3204 2.44851 76.3204 2.56631 76.2856 2.64485C76.7725 3.66579 77.6766 4.33332 78.0939 5.43279C78.3373 6.06106 78.6503 6.9642 78.0591 7.35687C77.3289 7.82807 77.3636 6.65007 76.9116 6.33593C76.7725 6.21813 76.6681 6.06106 76.529 5.94326H76.5638C76.1117 5.74693 76.4247 3.97992 75.2424 5.15793Z" fill="#DF7539"/>
<path d="M75.9378 13.3973C75.9378 13.7508 75.9378 14.1435 75.903 14.4969C75.9726 14.8897 75.8335 15.2038 75.5553 15.4787C75.3814 15.6751 75.2075 15.8714 75.0684 16.1071C74.3034 16.7354 73.5035 16.6961 72.6689 16.2642C72.5298 15.6751 72.5298 15.086 72.8776 14.5755C73.0167 14.3399 73.1906 14.1042 73.3992 13.9079C74.1643 13.3188 74.9293 12.6512 75.9378 13.3973Z" fill="#F6D1D4"/>
<path d="M72.6689 16.3024C73.3992 15.9882 74.1295 15.6347 74.8945 15.3206C75.2075 15.6347 75.2075 16.106 75.0336 16.3809C74.3033 17.3627 74.6511 18.3053 74.9293 19.2871C74.3033 19.8369 73.6078 20.1118 72.8428 20.3867C72.2864 19.0515 72.5646 17.6769 72.6689 16.3024Z" fill="#C16C71"/>
<path d="M76.3204 2.36758C75.6596 1.8178 75.1728 2.05342 74.7555 2.72101C74.3729 3.31007 73.9556 3.82058 73.5383 4.37036C73.8165 2.76028 74.4773 1.46437 75.9726 0.953857C76.0769 1.4251 76.1813 1.89634 76.3204 2.36758Z" fill="#B47D5B"/>
<path d="M73.1559 5.94287C73.1907 6.61061 73.2602 7.1998 73.8862 7.55331C73.8514 8.18177 73.7818 8.77095 73.7471 9.39941C73.1907 9.12446 72.9125 8.61384 72.8081 7.94609C72.7038 7.23907 72.217 6.41422 73.1559 5.94287Z" fill="#CB794D"/>
<path d="M77.3289 12.2589C76.9116 12.5342 76.4595 12.8095 76.0422 13.0455C75.4858 13.1635 74.8946 13.2421 74.4773 12.6129C74.4425 12.4162 74.4773 12.2589 74.5816 12.1016C74.8946 12.0623 75.2076 12.0229 75.4858 12.0229C76.1117 12.1016 76.7377 12.1803 77.3289 12.2589Z" fill="#AD7277"/>
<path d="M73.1558 5.94103C72.8081 6.56921 72.8428 7.27592 72.7733 7.94336C72.2864 6.80478 72.356 5.74472 73.1558 4.76318C73.1558 5.1558 73.1558 5.54841 73.1558 5.94103Z" fill="#B47D5B"/>
<path d="M73.5383 14.3789C73.3297 14.4574 73.0862 14.536 72.8776 14.6145C72.4951 13.8684 72.4603 13.1615 73.121 12.5332C73.1906 12.5725 73.2601 12.6117 73.3297 12.651C73.9208 13.1615 73.7122 13.7898 73.5383 14.3789Z" fill="#AD7277"/>
<path d="M73.1208 12.535C73.5729 12.1026 74.025 11.8667 74.6162 12.1026L74.5466 12.2598C74.2337 12.9282 73.8164 13.1641 73.26 12.653C73.1904 12.653 73.1556 12.5744 73.1208 12.535Z" fill="#AD7277"/>
<path d="M72.4605 38.5195C72.0084 38.6376 71.5216 38.7951 71.0695 38.9132C70.061 39.8186 68.9482 39.0313 67.8702 39.0706C60.7065 39.1494 53.5776 39.11 46.4139 39.11C45.4401 39.11 44.4664 39.11 43.458 39.11C42.4842 38.8738 41.3367 39.6611 40.4673 38.5983C51.1433 38.5589 61.7845 38.5589 72.4605 38.5195Z" fill="#E4EFF2"/>
<path d="M40.4674 38.5586C41.3715 39.0304 42.3105 38.8338 43.2494 38.9124C43.4928 39.0304 43.4928 39.1876 43.2494 39.3055C42.9016 39.3055 42.5539 39.3055 42.2061 39.3055C40.6412 39.0697 39.1807 39.8559 37.6853 40.0918C37.581 38.9124 38.6938 39.4628 39.0068 38.8731C39.3893 38.7552 39.7371 38.5979 40.1196 38.48C40.2587 38.48 40.363 38.5193 40.4674 38.5586Z" fill="#E4E9E9"/>
<path d="M39.0412 38.8728C38.8674 39.6196 38.0327 39.541 37.7198 40.0913C37.6154 40.0913 37.4763 40.0913 37.372 40.0913C37.1286 39.9734 36.9199 39.8555 36.6765 39.7376C37.372 39.1873 38.1718 38.8728 39.0412 38.8728Z" fill="#E4EFF2"/>
<path d="M76.5637 5.97935C76.981 6.2541 77.3983 6.52886 77.8504 6.80361C78.1982 4.95884 76.3551 4.25233 76.3203 2.64307C78.9632 4.88034 79.5544 7.27461 77.9548 9.35489C77.8504 9.47264 77.6765 9.55114 77.5374 9.62964C77.8156 8.25587 77.1549 7.11761 76.5637 5.97935Z" fill="#D17847"/>
<path d="M81.5019 94.1413C81.3628 94.0235 81.2585 93.945 81.1194 93.8273C80.9107 93.0422 81.6758 93.3955 81.8497 93.0422C82.5104 92.6497 83.1711 92.2964 83.9362 92.2571C85.7793 91.158 87.6571 90.8832 89.5002 92.2571C90.1262 92.5712 90.7521 93.0029 91.4128 93.0815C92.5257 93.1992 92.943 94.0235 93.3255 95.0049C93.4298 95.1227 93.5689 95.2797 93.6732 95.3974C93.9862 95.7115 94.5774 95.5937 94.7165 96.1825C94.8208 96.3003 94.9599 96.4573 95.0642 96.575C95.5511 96.9283 95.9684 97.3994 96.4553 97.7527C96.7335 97.9882 97.0117 98.1452 97.1508 98.5377C97.429 99.2051 97.8463 99.6761 98.5418 99.7154C98.9591 99.7546 98.9939 100.226 99.2373 100.5C99.4112 101.286 99.898 101.717 100.524 101.953C102.263 102.62 104.001 103.327 105.775 103.916C106.366 104.112 107.096 104.073 107.653 103.837C109.774 102.895 112.035 103.091 114.191 102.463C114.33 102.62 114.365 102.777 114.295 103.013C113.843 103.523 113.252 103.798 112.904 104.426C106.888 106.271 101.359 105.721 96.803 100.343C96.0032 99.4013 95.2034 98.4592 94.1601 97.8704C92.7343 96.3788 91.3433 94.9264 89.5002 94.0235C87.6223 93.1207 85.8488 93.0422 83.9362 93.8273C83.1711 94.1021 82.4061 94.8479 81.5019 94.1413Z" fill="#EADCBB"/>
<path d="M89.5003 92.2585C87.6572 92.2585 85.7794 92.2585 83.9363 92.2585C84.5275 90.2158 86.1619 90.5694 87.4834 90.373C88.6657 90.1765 89.1874 91.1193 89.5003 92.2585Z" fill="#E8DCC9"/>
<path d="M93.3258 95.0059C92.0391 94.1024 90.7872 93.1596 89.5005 92.2561C90.2655 92.4132 91.0654 92.8061 91.8304 92.7275C93.6387 92.5311 94.1256 93.1989 93.3258 95.0059Z" fill="#E8DCC9"/>
<path d="M114.156 102.818C114.156 102.7 114.156 102.582 114.156 102.464C115.964 101.914 117.494 100.461 119.372 100.107C119.72 100.107 120.103 100.147 120.45 100.147C120.52 100.5 120.416 100.815 120.137 100.972C118.538 101.836 116.938 102.739 115.199 103.211C114.817 103.289 114.434 103.289 114.156 102.818Z" fill="#ECD6A0"/>
<path d="M81.8497 93.0417C81.6063 93.3168 81.3629 93.5525 81.1195 93.8276C80.3196 94.2205 79.5198 94.6134 78.6852 95.0063C79.5546 93.9848 80.5631 93.1596 81.8497 93.0417Z" fill="#E8DCC9"/>
<path d="M94.7166 96.1851C94.3689 95.9096 94.0211 95.6734 93.6733 95.3979C93.882 95.3586 94.1254 95.2799 94.3341 95.2405C94.6818 95.1618 95.1339 94.6108 95.3774 95.2012C95.6208 95.7521 94.96 95.8702 94.7166 96.1851Z" fill="#E8DCC9"/>
<path d="M96.4557 97.7554C95.8297 97.5979 95.4124 97.165 95.0647 96.5747C95.6906 96.7321 96.1427 97.165 96.4557 97.7554Z" fill="#E8DCC9"/>
<path d="M99.2374 100.5C98.994 100.225 98.7853 99.9896 98.5419 99.7146C99.2026 99.5182 99.1678 100.068 99.2374 100.5Z" fill="#E8DCC9"/>
<path d="M97.1509 98.54C96.9075 98.2644 96.6989 98.0281 96.4554 97.7524C97.0118 97.6736 97.4987 97.6343 97.1509 98.54Z" fill="#E8DCC9"/>
<path d="M26.2095 98.5371C27.983 100.068 30.0696 101.01 32.0517 102.109C32.9559 102.58 33.8948 102.816 34.9033 102.855C35.6336 103.679 36.6073 102.62 37.3376 103.248C37.581 103.248 37.7897 103.248 38.0331 103.248C38.7634 103.601 39.4589 103.444 40.1544 103.208C41.2672 102.855 42.3452 102.934 43.1451 103.562C42.8669 103.287 41.8931 103.169 42.5539 102.07C46.6574 99.7148 49.8567 95.4753 54.7252 94.808C55.1773 94.7295 55.6294 94.6903 56.0815 94.6118C56.777 95.3183 57.6811 95.5146 58.5157 95.7894C61.0195 96.2997 63.0017 98.3409 65.4708 98.9297C66.7575 99.126 67.9398 99.911 69.2265 100.029C70.9305 100.186 72.6345 100.304 74.2341 99.3222C74.7558 99.0082 75.4165 98.6549 75.9034 99.44C76.2859 103.051 76.0077 106.702 76.0772 110.313C76.112 112.041 76.2511 113.768 76.0772 115.495C75.9729 115.77 75.799 115.887 75.5556 115.809C75.3122 115.809 75.1035 115.77 74.8601 115.77C74.1994 115.416 73.5039 115.573 72.8084 115.573C52.0475 115.573 31.2867 115.573 10.5259 115.573C9.83035 115.573 9.13484 115.77 8.47411 115.377C8.47411 115.259 8.47411 115.102 8.43934 114.985C8.57844 112.512 10.352 113.885 11.0475 113.493C11.0823 113.493 10.8041 113.454 10.5259 113.454C8.61321 113.454 8.50889 113.336 8.47411 111.098C8.43933 107.487 8.47411 103.915 8.47411 100.304C8.47411 99.9895 8.47411 99.6363 8.40456 99.3222C8.33501 99.1652 8.26546 99.0082 8.16113 98.8512C8.16113 98.7334 8.16113 98.5764 8.16113 98.4586C8.71754 97.7913 9.37827 97.6343 10.1781 97.6736C11.117 97.7128 12.0907 97.7913 13.0297 97.3988C12.2298 97.7128 11.3952 97.6343 10.5954 97.6736C9.48259 97.7521 8.64799 97.7128 8.50889 96.0249C8.36978 94.2977 9.65647 95.0043 10.2129 94.494C12.7515 94.18 15.3248 94.337 17.8634 94.6118C18.5589 94.6903 19.1849 94.965 19.7065 95.4361C20.5411 96.1427 21.4801 96.0249 22.419 96.0641C22.5233 96.0641 22.6624 96.0641 22.7667 96.0641C23.2536 97.2025 24.4707 96.9277 25.201 97.6343C25.4097 98.1839 25.6531 98.6549 26.2095 98.5371Z" fill="#F4CE48"/>
<path d="M8.16113 120.954C9.03051 120.365 9.96945 120.561 10.8736 120.561C31.5649 120.561 52.2562 120.561 72.9127 120.522C74.0602 120.522 75.799 121.15 75.799 118.833C75.799 116.476 74.095 116.986 72.8431 116.986C52.2909 116.986 31.704 116.986 11.1518 116.986C10.2824 116.986 9.41304 117.143 8.57844 116.672C9.44782 116.633 10.3172 116.554 11.1866 116.554C32.782 116.554 54.3774 116.554 75.9729 116.554C76.4597 115.965 77.1205 116.044 77.7812 116.044C99.4114 116.044 121.076 116.004 142.707 116.044C142.88 116.044 143.054 116.083 143.228 116.083C143.68 116.201 143.959 116.554 144.063 117.065C143.959 118.361 144.237 119.697 143.854 120.954C142.394 120.914 140.968 120.836 139.507 120.836C118.955 120.836 98.4029 120.797 77.8507 120.836C54.9686 120.875 32.1213 120.914 9.23917 120.954C8.85664 120.993 8.50889 120.954 8.16113 120.954Z" fill="#DFD2B7"/>
<path d="M143.715 116.398C143.02 116.477 142.324 116.634 141.663 116.634C120.346 116.634 99.0289 116.634 77.7116 116.634C77.1205 116.634 76.5641 116.555 75.9729 116.555C75.8685 116.32 75.7294 116.084 75.6251 115.888C75.7294 115.888 75.8338 115.848 75.9381 115.848C76.1815 115.456 76.5293 115.299 76.9814 115.26C97.8813 115.181 118.816 115.338 139.716 115.142C141.942 115.103 142.741 114.318 142.846 111.923C142.95 109.607 142.88 107.291 142.88 104.975C142.88 104.19 142.741 103.445 141.942 103.366C140.168 103.17 138.603 101.914 136.76 102.228C135.439 101.521 134.152 100.775 132.761 100.344C130.744 99.3623 128.762 98.5773 126.64 100.108C126.432 100.265 126.084 100.147 125.771 100.108C125.597 100.069 125.423 100.069 125.215 100.03C124.832 99.9511 124.484 99.9511 124.102 99.9511C123.719 99.9119 123.372 99.7941 123.198 99.3623C127.093 97.7922 130.987 97.6352 134.882 99.4408C137.699 100.736 140.585 101.6 143.646 101.482C143.993 101.757 143.889 102.189 143.889 102.542C143.889 106.86 143.889 111.217 143.889 115.534C143.924 115.809 143.924 116.123 143.715 116.398Z" fill="#E1BD51"/>
<path d="M8.50867 115.416C29.7911 115.416 51.0736 115.416 72.3561 115.416C73.2254 115.416 74.0948 115.258 74.8947 115.812C53.6122 115.812 32.3297 115.812 11.0473 115.812C10.1779 115.812 9.3085 115.97 8.50867 115.416Z" fill="#F5CD4D"/>
<path d="M22.384 96.1834C22.1058 96.3798 21.7929 96.6154 21.5146 96.8118C20.6105 97.5188 19.8107 98.1473 19.2543 96.3012C18.9413 95.2407 17.9328 94.8086 16.9243 95.005C14.6639 95.4371 12.4383 94.8086 10.2127 94.9658C9.69104 95.1229 9.06508 95.6335 8.82166 94.573C13.5511 93.0019 18.0371 93.7874 22.384 96.1834Z" fill="#F5CD4D"/>
<path d="M8.47403 98.9299C9.16954 100.814 8.75224 102.816 8.82179 104.739C8.89134 106.82 8.89134 108.9 8.82179 111.02C8.78701 112.551 9.37819 113.14 10.6997 113.1C11.6734 113.061 12.7166 112.904 13.9685 113.454C12.6819 114.435 11.569 114.003 10.5606 114.042C9.72595 114.082 8.92611 114.042 8.47403 115.063C8.02195 114.16 8.57836 113.218 8.47403 112.315C8.19583 107.84 8.19583 103.366 8.47403 98.9299Z" fill="#F3CD4A"/>
<path d="M8.82209 94.6121C9.23939 94.9262 9.72625 95.0048 10.2131 95.0048C9.7958 95.5153 8.61344 95.1618 8.85687 96.3792C9.10029 97.518 9.96967 97.2432 10.7 97.361C11.8128 97.518 12.6821 96.6934 13.6906 96.5363C14.2818 96.4577 14.9425 96.4185 15.7076 96.929C14.3166 97.5966 13.1342 98.2249 11.7084 98.1464C10.4913 98.1071 9.27417 98.1071 8.12659 98.5391C8.92642 97.361 7.60496 95.7116 8.82209 94.6121Z" fill="#F3CD4A"/>
<path d="M75.5902 99.3227C74.3035 99.3227 73.3298 100.501 71.9736 100.54C69.6784 100.618 67.4876 100.265 65.5054 98.93C65.7836 98.8907 66.0618 98.8907 66.34 98.8515C68.2874 99.2049 70.2 100.069 72.2518 99.5583C73.5385 99.2441 74.7904 98.7729 75.9032 98.0269C76.2509 98.3017 76.1814 98.6551 76.0075 99.0085C75.9032 99.1656 75.7641 99.2834 75.5902 99.3227Z" fill="#EFCE5D"/>
<path d="M42.5535 102.07C43.2142 103.405 44.9878 103.287 45.718 105.448C43.0403 104.151 40.5713 103.523 38.0327 103.287C39.0412 103.405 39.9106 102.855 40.8147 102.502C41.2668 102.738 41.545 102.384 41.858 102.148C42.1014 102.109 42.3101 102.07 42.5535 102.07Z" fill="#F5CD4D"/>
<path d="M8.47384 98.9299C8.47384 103.366 8.47384 107.841 8.47384 112.276C7.84787 110.51 8.19563 108.704 8.16085 106.899C8.0913 104.229 8.16085 101.599 8.16085 98.9299C8.26518 98.9299 8.36951 98.9299 8.47384 98.9299Z" fill="#F5CD4D"/>
<path d="M37.3375 103.248C36.8854 103.287 36.3985 103.287 36.0508 103.68C34.8336 104.898 34.8684 103.876 34.9032 102.855C35.7378 102.894 36.5724 102.737 37.3375 103.248Z" fill="#F5CD4D"/>
<path d="M25.1659 97.7549C24.3313 97.2831 22.836 98.1087 22.7317 96.1824C23.5315 96.7721 24.5748 96.8507 25.1659 97.7549Z" fill="#F5CD4D"/>
<path d="M26.2094 98.5385C26.0008 98.8922 25.9312 99.6782 25.5835 99.5603C24.8184 99.2852 25.3053 98.3813 25.1662 97.7524C25.5139 98.0276 25.8617 98.3027 26.2094 98.5385Z" fill="#F5CD4D"/>
<path d="M58.5503 95.7913C57.5765 95.8306 56.6724 95.6734 56.116 94.6121C56.9854 94.8479 57.7852 95.241 58.5503 95.7913Z" fill="#EFCE5D"/>
<path d="M41.8581 102.11C41.6494 102.701 41.3017 102.82 40.8148 102.465C41.1626 102.346 41.5103 102.228 41.8581 102.11Z" fill="#F4CE48"/>
<path d="M60.9847 57.3605C61.1238 58.0671 61.5063 58.5774 62.0279 58.9307C63.6972 60.6578 67.0704 60.1868 68.9482 58.8914C71.2086 57.3213 71.8693 54.6521 73.2256 52.4539C73.6429 51.7866 73.9559 51.2371 74.7209 51.8259C75.5903 52.6502 75.799 53.7493 75.799 54.9661C75.7294 61.6784 75.8337 68.3907 75.7642 75.0637C75.7642 75.9273 76.0076 76.9871 74.86 77.3012C73.3299 76.8301 71.7998 76.7516 70.2001 76.7516C60.0805 76.7516 49.9261 76.7516 39.8065 76.7516C38.346 76.7516 36.955 76.9086 35.6335 77.7722C34.312 78.6358 33.5818 78.1647 33.5818 76.3983C33.5818 74.789 33.547 73.1403 33.547 71.531C33.5122 66.0355 33.7209 60.5401 33.4427 55.0839C33.3731 53.6315 34.6598 53.6315 34.938 52.6894C35.1814 52.4146 35.4248 52.1399 35.6683 51.8651C37.72 51.4726 38.7981 49.3136 40.5716 48.3716C42.6929 47.2332 43.9448 47.5865 44.7794 50.0202C45.2315 51.3548 45.614 52.7287 45.9618 54.1025C46.6225 56.8895 47.5962 57.5568 50.0652 56.811C50.5173 56.654 50.8998 56.4185 51.3172 56.183C51.5258 55.6334 52.1865 55.5942 52.3604 55.0054C52.4647 54.7306 52.6038 54.4951 52.7082 54.2203C53.2298 54.0633 53.1602 53.396 53.4037 53.0427C54.0644 52.5717 54.134 51.5511 54.7947 51.08C55.0729 50.7268 55.1424 50.3342 55.1424 49.9024C55.6293 48.7641 56.4291 48.2931 57.5072 48.4501C58.5852 48.6071 59.2459 49.2744 59.5589 50.4912C59.7675 51.3548 60.3587 52.1006 60.3587 53.0427C60.8108 53.7493 59.8719 54.7306 60.7065 55.3979C61.0542 55.9867 60.5674 56.7718 60.9847 57.3605Z" fill="#F4CE48"/>
<path d="M75.6249 47.9402C75.9378 45.7027 75.6944 43.5045 75.5901 41.267C75.5901 40.8745 75.5901 40.4819 75.5901 40.0894C76.3204 39.0688 77.3984 38.7548 78.4764 38.48C78.546 38.48 78.6503 38.48 78.7199 38.48C78.859 38.48 78.9633 38.48 79.1024 38.48C79.2067 38.5192 79.3458 38.5585 79.4501 38.5977C80.0761 38.8333 80.7021 38.7155 81.328 38.7155C90.4391 38.7155 99.585 38.7155 108.696 38.7155C109.844 38.7155 110.991 38.794 112.069 39.3043C114.782 40.2464 117.077 41.6988 118.433 44.8392C119.72 47.8225 119.998 50.7273 119.059 53.8283C118.955 53.9461 118.851 54.1031 118.746 54.2209C118.607 54.1816 118.468 54.1816 118.329 54.1424C117.981 53.9069 117.599 53.7891 117.181 53.8676C115.338 54.0639 113.669 53.6321 112.243 52.1404C110.539 50.3347 108.487 49.9814 106.262 50.5703C105.81 50.688 105.462 50.9628 105.08 51.2768C102.228 53.5536 99.5155 54.3386 96.4552 51.6694C95.7945 51.1198 95.0642 50.7273 94.2644 50.4917C93.5341 50.2562 92.8386 50.3347 92.4561 51.1591C92.004 52.1797 91.2042 52.847 90.5434 53.6713C88.2483 56.7332 84.423 56.1443 83.032 52.4545C82.3365 50.6095 81.6758 48.8038 79.6588 48.4113C79.0676 48.0187 78.4417 47.8617 77.7462 47.9795C77.0506 47.8225 76.3204 48.6861 75.6249 47.9402Z" fill="#E5DBD1"/>
<path d="M34.9031 52.6892C33.4425 54.4556 33.8598 56.6538 33.8598 58.7342C33.8598 64.4651 33.8946 70.196 33.9294 75.927C33.9294 76.555 33.8946 77.3793 34.5205 77.6148C35.1117 77.8504 35.1465 76.9868 35.4247 76.6335C35.9116 75.927 36.6071 75.8092 37.3026 75.8092C49.3348 75.8092 61.367 75.8092 73.3645 75.8092C74.0948 75.8092 74.7555 75.9662 74.8946 76.9868C75.2076 77.2616 75.5901 77.4186 75.9379 77.6148C76.0422 77.7326 76.1465 77.8896 76.2161 78.0466C76.2508 78.3214 76.1813 78.5962 75.9726 78.7532C74.9294 78.6747 73.8861 78.5177 72.8429 78.5177C60.6368 78.5177 48.3959 78.5177 36.1898 78.5177C33.373 78.5177 33.2339 78.3606 33.1991 75.2204C33.1991 68.7437 33.2339 62.2669 33.1643 55.7902C33.1643 54.2593 33.4773 53.121 34.9031 52.6892Z" fill="#F3CF48"/>
<path d="M75.5501 78.5337C75.5501 78.3353 75.5501 78.137 75.5144 77.8989C76.2292 76.9071 77.2657 77.2641 78.1593 77.2641C90.0969 77.3038 102.035 77.2641 114.008 77.2641C114.794 77.2641 115.545 77.3038 116.295 77.0261C117.01 76.8277 117.26 76.3516 117.403 75.5185C118.047 72.3049 117.868 69.0913 117.904 65.8776C117.904 63.3782 117.904 60.839 117.904 58.3396C117.904 56.9113 117.368 55.9591 116.117 55.5227C114.687 55.0069 113.365 54.2134 112.149 53.3009C109.898 51.5553 107.682 51.3569 105.358 53.1026C104.751 53.2216 104.215 53.5787 103.75 54.0151C103.571 54.0944 103.393 54.1738 103.214 54.1738C102.285 54.1341 101.57 55.2053 100.569 54.8879C99.7828 54.6895 98.9965 54.3721 98.1744 54.2134C97.6026 54.1341 97.2809 53.6977 96.8877 53.3009C96.7448 53.1819 96.6376 53.1026 96.4946 52.9835C95.9942 52.5868 95.4938 52.2297 94.8148 52.2694C94.6003 52.3091 94.3501 52.3884 94.1357 52.3884C93.3851 51.9123 91.4551 54.6499 90.8475 53.3009C91.8125 50.4047 93.8855 48.4607 95.9942 50.2857C99.9972 53.6977 102.035 52.8249 105.287 50.5238C107.253 49.1352 107.825 49.3734 109.719 50.5239C111.506 51.6348 113.382 52.6265 115.026 54.0151C117.957 54.9673 119.155 54.6895 119.155 58.1809C119.155 64.1717 119.119 70.2021 119.155 76.1929C119.155 77.8196 118.69 78.613 117.117 78.613C103.536 78.5734 89.9897 78.5734 76.4079 78.5734C76.1577 78.613 75.8718 78.5734 75.5501 78.5337Z" fill="#E6BB34"/>
<path d="M115.547 54.2598C113.877 53.7495 112.591 52.4934 111.2 51.4729C109.287 50.0206 107.34 49.7065 105.358 51.2766C101.88 54.0243 98.5764 54.2205 95.2727 50.8056C93.9513 49.4318 92.8037 50.1383 91.83 52.6112C91.3083 54.8093 89.7782 55.8691 88.0395 56.2616C86.2312 56.6934 84.3881 56.5364 83.1709 54.456C82.9275 54.0243 82.6493 53.5925 82.4059 53.1607C81.8495 51.1196 81.5017 48.843 79.0675 48.529C78.511 48.5682 77.9546 48.7252 77.433 48.9608C77.12 49.0785 76.8071 49.2748 76.4593 49.2355C76.0768 49.2355 75.729 49.157 75.4856 48.8037C75.3813 48.6075 75.416 48.4112 75.5204 48.215C75.5204 48.0972 75.5551 47.9795 75.5551 47.8617C76.2507 47.5869 76.9462 47.3514 77.6417 47.0767C78.2676 47.5477 79.0675 46.9982 79.6934 47.4299C81.1887 47.5869 82.2668 48.4112 82.8232 50.0991C83.0318 50.7663 83.31 51.4336 83.5882 52.0617C84.8054 55.3196 88.0395 55.9084 90.0564 53.2392C90.7519 52.2972 91.4474 51.3944 92.0039 50.2953C92.8037 48.7252 94.1251 49.471 95.2379 49.9421C96.4899 50.4916 97.3592 51.6691 98.6807 52.1794C100.941 53.0822 102.749 52.0224 104.488 50.7271C106.957 48.9608 109.496 48.8823 111.687 50.7663C113.46 52.2972 115.234 53.671 117.633 53.514C117.842 53.514 118.085 53.8673 118.329 54.0243C117.425 54.1813 116.486 54.2205 115.547 54.2598Z" fill="#EFDBB4"/>
<path d="M75.6598 98.9693C75.7293 98.6552 75.7989 98.3412 75.9032 98.0664C77.7811 96.7711 79.6589 95.4757 81.5368 94.1411C86.7183 91.3542 90.3002 92.4925 94.4384 97.2814C94.5428 97.4384 94.5775 97.6346 94.508 97.8309C94.0211 98.459 93.4995 98.302 92.9779 97.9094C92.3519 97.4384 91.726 97.0066 91.1 96.4963C88.4223 94.1804 85.5707 94.2589 82.6496 95.9075C81.4325 96.6141 80.0763 97.0851 79.0678 98.2627C78.6157 98.8515 78.0245 99.2048 77.3638 99.4403C77.1203 99.5188 76.8422 99.5188 76.5639 99.5188C76.1814 99.5188 75.9032 99.2833 75.6598 98.9693Z" fill="#E7BA3A"/>
<path d="M143.784 123.779C143.784 123.032 143.784 122.286 143.784 121.54C144.028 122.286 144.028 123.032 143.784 123.779Z" fill="#F0B924"/>
<path d="M77.4679 141.48C77.7113 141.48 77.9895 141.48 78.2329 141.48C99.0633 141.559 119.928 141.48 140.759 141.52C141.107 141.52 141.454 141.559 141.767 141.323C142.08 141.048 142.358 141.048 142.671 141.323C143.019 141.363 143.367 141.363 143.715 141.402C145.175 142.344 146.775 141.755 148.305 141.834C150.287 141.951 150.948 142.501 150.983 144.738C150.983 151.569 151.574 151.254 145.836 151.215C140.794 151.176 135.786 151.176 130.744 151.176C120.554 151.176 110.365 150.98 100.176 151.215C92.0735 151.411 83.9708 150.94 75.8682 151.097L75.7986 151.019C74.3033 148.389 75.1379 145.445 75.1031 142.658C75.1379 141.088 76.5637 141.637 77.4679 141.48Z" fill="#DA5554"/>
<path d="M123.198 99.2832C123.545 99.2832 123.928 99.3225 124.276 99.3225C124.554 99.7151 124.519 100.108 124.276 100.461C123.963 100.893 123.58 101.168 123.198 101.443C122.78 101.679 122.363 101.757 121.911 101.718C121.598 101.718 121.25 101.6 120.902 101.718C119.685 102.189 118.399 102.542 117.425 103.603C117.286 103.72 117.112 103.76 116.938 103.799C116.277 103.917 115.721 104.388 115.06 104.506C114.26 104.663 113.391 105.173 112.73 104.152C112.661 103.917 112.661 103.72 112.8 103.524C113.147 102.974 113.634 102.778 114.191 102.699C116.416 102.228 118.433 101.011 120.485 100.029C121.389 99.8722 122.293 99.5973 123.198 99.2832Z" fill="#E9B939"/>
<path d="M112.104 39.3042C102.089 38.4799 92.039 39.1472 82.0237 38.9117C81.1543 38.9117 80.2849 39.0294 79.4851 38.5977C86.5445 38.5584 93.6039 38.5584 100.663 38.5192C101.463 38.5192 102.298 38.4799 103.098 38.4407C105.149 38.4799 107.236 38.4799 109.288 38.5192C110.226 38.5192 111.2 38.5192 112.139 38.8332C112.487 38.9117 112.835 38.9509 113.182 39.0294C112.8 39.0687 112.452 39.1864 112.104 39.3042Z" fill="#DEE2E6"/>
<path d="M75.8685 37.2237C76.7727 36.7918 77.6769 36.3992 78.6158 35.9673C78.8245 36.674 78.8245 37.3808 78.6854 38.0875C77.816 39.0299 76.8075 38.7158 75.8338 38.4802C75.6599 38.3624 75.5208 38.2053 75.4512 37.9697C75.3817 37.5771 75.5208 37.3023 75.8685 37.2237Z" fill="#C8494B"/>
<path d="M75.66 38.1265C76.6685 38.1265 77.6769 38.1265 78.6507 38.0872C78.6854 38.2052 78.7202 38.3233 78.755 38.4414L78.7202 38.5595C77.7465 38.9137 76.8076 39.4254 75.7991 38.7169C75.6252 38.5595 75.5557 38.3627 75.66 38.1265Z" fill="#A7453F"/>
<path d="M75.5901 20.4637C75.6944 20.3067 75.7987 20.1497 75.9031 19.9926C76.7377 19.3645 77.3289 17.8726 78.6503 18.9719C78.9285 20.346 78.8937 21.6808 78.7199 23.0549C78.6503 23.2512 78.5808 23.4082 78.4417 23.5653C77.6766 24.1542 77.0854 25.2927 75.9378 24.3505C75.8683 24.0756 75.764 23.8401 75.6944 23.5653C76.4942 22.7408 77.155 21.9556 75.6596 21.1704C75.6249 20.9349 75.5901 20.6993 75.5901 20.4637Z" fill="#CC4749"/>
<path d="M78.6506 18.9721C77.6769 19.0507 76.9466 20.1111 75.9033 19.9933C75.799 19.6398 75.5904 19.3256 75.2426 19.247C75.1383 18.9328 75.2078 18.6972 75.3469 18.4222C76.112 18.0294 76.6684 17.2439 77.503 16.8904C77.9551 16.8904 78.3376 17.0475 78.7201 17.3224C79.0679 17.8723 78.8592 18.4222 78.6506 18.9721Z" fill="#EA9497"/>
<path d="M78.7196 17.2849C78.3719 17.4028 78.0241 17.5206 77.7111 17.6384C76.8417 16.7351 77.6763 15.3605 77.0156 14.4179C77.0156 14.3393 76.9808 14.2608 76.9808 14.1429C77.4677 13.7502 78.0241 13.4752 78.6501 13.3574C78.9978 14.6928 78.8239 15.9889 78.7196 17.2849Z" fill="#CA494F"/>
<path d="M78.3724 23.2896C78.4767 23.211 78.6158 23.1323 78.7201 23.093C78.9983 23.4468 78.5462 23.9972 78.9636 24.2724C78.8592 24.3118 78.7549 24.3511 78.6506 24.3904C77.955 24.2331 78.0941 23.7614 78.3724 23.2896Z" fill="#DFA1A8"/>
<path d="M74.9989 36.2046C74.1991 36.1261 73.5383 35.8512 73.5383 34.7516C73.5731 33.2594 74.6859 33.063 75.5553 32.5525C75.6944 32.4347 75.8683 32.3954 76.0422 32.474C76.9811 33.1808 76.4595 34.0448 76.2856 34.8694C76.1465 35.2228 75.9031 35.4977 75.5901 35.6548C75.451 35.8119 75.3466 35.9297 75.2075 36.0868L75.1032 36.2046H74.9989Z" fill="#E35F5D"/>
<path d="M75.9031 32.6727C75.7987 32.6727 75.6944 32.6334 75.5901 32.5941C75.5901 32.3191 75.5901 32.0835 75.5901 31.8085C75.6944 31.6514 75.7987 31.4943 75.9031 31.3765C76.9115 31.4157 77.6418 30.4338 78.6155 30.3552C78.859 31.6907 78.8242 32.9869 78.6851 34.3223C78.233 34.6366 77.7809 34.9901 77.1897 34.9901C77.0506 35.0294 76.8768 35.0686 76.7377 35.1079C76.2508 34.7937 76.4942 34.3616 76.5986 33.9296C76.7377 33.2618 76.5638 32.7905 75.9031 32.6727Z" fill="#CD494D"/>
<path d="M74.9991 36.2038C75.1034 36.2038 75.173 36.1645 75.2425 36.1252C75.7642 36.243 75.7989 36.7534 75.8685 37.2246C75.7642 37.3816 75.6251 37.4994 75.5207 37.6565C75.2425 38.5202 74.6513 38.5202 73.9906 38.4417C73.6081 38.1669 73.2256 37.892 72.8778 37.6565C73.5733 37.1461 74.2688 36.6749 74.9991 36.2038Z" fill="#FAD9D6"/>
<path d="M76.6334 34.9471C76.8072 34.9471 76.9811 34.9865 77.155 34.9865C76.7029 35.4194 76.2161 35.7343 75.5901 35.6949C75.6944 35.4588 75.7987 35.1833 75.9031 34.9471C76.1465 34.7503 76.3899 34.711 76.6334 34.9471Z" fill="#C74243"/>
<path d="M76.3206 29.9268C75.0339 28.7484 76.0772 27.2558 75.9033 25.9595V25.881C76.6335 24.9776 77.2247 23.7599 78.5462 24.8204C78.7548 26.0774 78.7896 27.3736 78.6157 28.6305C77.8507 29.0626 77.0856 29.4947 76.3206 29.9268Z" fill="#D44546"/>
<path d="M78.546 24.8198C77.5375 24.8591 76.8072 25.6445 75.9031 25.8801C75.7987 25.5267 75.6944 25.134 75.5901 24.7806C75.6944 24.6628 75.7987 24.5057 75.9378 24.3879C76.7377 24.0345 77.5723 23.6418 78.3721 23.2883C78.4765 23.6418 78.5808 24.0345 78.6503 24.3879C78.6156 24.5057 78.5808 24.6628 78.546 24.8198Z" fill="#EE9492"/>
<path d="M73.2253 12.6903C73.6426 12.5725 74.0947 12.4154 74.512 12.2976C75.0336 12.5725 75.5205 12.8081 76.0421 13.0829C75.9726 13.2007 75.9378 13.3185 75.9378 13.4363C75.1379 13.7504 74.3381 14.1038 73.5383 14.418C73.2253 13.8682 73.121 13.2793 73.2253 12.6903Z" fill="#D26C6A"/>
<path d="M75.2771 15.0861C75.4858 14.8895 75.6944 14.7323 75.9378 14.5358C76.2856 14.4179 76.6333 14.3 77.0159 14.1821L77.0506 14.2607C77.2941 15.2433 76.8768 15.7149 76.0769 15.8721C75.6249 15.7935 75.2423 15.6756 75.2771 15.0861Z" fill="#CA494F"/>
<path d="M43.2493 39.304C43.2493 39.1861 43.2493 39.0288 43.2493 38.9109C52.5343 38.9109 61.7845 38.9109 71.0695 38.9109C70.7565 39.9724 70.3392 40.4835 69.3307 39.6579C68.6352 39.1075 67.7658 39.304 66.966 39.304C59.072 39.304 51.1433 39.304 43.2493 39.304Z" fill="#EEE7DF"/>
<path d="M75.59 38.4407C76.6333 38.48 77.6766 38.5193 78.7198 38.5979C77.9895 39.9339 76.6681 39.6588 75.6248 40.0911C75.6248 39.6981 75.59 39.3052 75.59 38.9122C75.4857 38.8336 75.4162 38.7157 75.4509 38.5586C75.4857 38.5193 75.5553 38.48 75.59 38.4407Z" fill="#F2D7CC"/>
<path d="M73.9556 38.4419C74.4772 38.1668 74.9641 37.9309 75.4857 37.6558C75.5205 37.813 75.59 37.9702 75.6248 38.1274C75.59 38.2454 75.5552 38.324 75.5552 38.4419V38.5991C75.1032 38.7564 74.6511 38.8743 74.199 38.5598C74.1642 38.4812 74.0599 38.4419 73.9556 38.4419Z" fill="#B56F6E"/>
<path d="M74.2339 38.5195C74.686 38.5195 75.1381 38.559 75.5901 38.559C75.5901 38.6772 75.5901 38.7955 75.5901 38.8743C75.0685 38.9926 74.5816 39.1502 74.2339 38.5195Z" fill="#FAD9D6"/>
<path d="M75.6598 21.2078C76.4248 20.9722 77.4681 19.8337 77.8159 21.247C78.2332 22.8959 76.8769 23.367 75.6946 23.6025C75.6946 22.8174 75.6598 21.9929 75.6598 21.2078Z" fill="#DE403E"/>
<path d="M75.2774 15.0847C75.486 15.1633 75.6947 15.2811 75.9381 15.3596C77.0162 16.8914 76.9814 17.402 75.6599 18.8159C75.5208 18.973 75.3817 19.1301 75.2774 19.2479C75.1731 19.2872 75.0687 19.2872 74.9644 19.2872C74.408 19.2087 73.643 19.7193 73.33 18.7766C73.0865 17.9518 73.2256 17.1271 73.8168 16.4986C74.1994 16.1059 74.5471 15.7131 74.8949 15.3204C75.034 15.2418 75.1383 15.1633 75.2774 15.0847Z" fill="#E55E60"/>
<path d="M75.938 121.343C84.7361 121.304 93.5342 121.304 102.332 121.304C115.234 121.304 128.136 121.304 141.072 121.304C143.228 121.304 143.367 121.461 143.402 123.818C143.402 126.528 143.263 126.803 141.107 126.803C119.511 126.803 97.9159 126.803 76.3205 126.764C74.6513 125.153 74.5469 123.818 75.938 121.343Z" fill="#F0B924"/>
<path d="M143.646 127.232C143.646 128.606 143.681 129.981 143.681 131.316C141.768 131.356 139.855 131.395 137.943 131.395C117.669 131.395 97.3947 131.356 77.1207 131.395C54.4124 131.434 31.7042 131.473 8.99597 131.513C8.71777 131.513 8.40479 131.473 8.12659 131.473C8.99597 130.924 9.9349 131.081 10.8391 131.081C31.6347 131.081 52.4303 131.081 73.2259 131.081C74.3039 131.081 75.521 131.316 75.7992 129.51C75.9383 128.449 75.6949 127.664 74.6169 127.585C73.9909 127.507 73.3302 127.546 72.7042 127.546C52.0825 127.546 31.4608 127.546 10.8391 127.546C9.9349 127.546 8.96119 127.742 8.12659 127.153C18.733 127.153 29.3047 127.114 39.9112 127.114C74.5125 127.153 109.079 127.192 143.646 127.232Z" fill="#E0D2BC"/>
<path d="M75.9379 121.344C75.5901 123.189 75.2076 125.034 76.2856 126.723C74.4425 124.76 72.1126 125.192 69.887 125.192C50.6562 125.192 31.4255 125.192 12.1948 125.192C11.395 125.192 10.5604 125.152 9.76053 124.995C9.30845 124.917 8.78682 124.681 8.8216 124.053C8.8216 123.346 9.378 123.307 9.86485 123.268C10.4908 123.228 11.1515 123.228 11.7775 123.228C31.5994 123.228 51.4213 123.228 71.2084 123.268C73.0515 123.307 74.7903 123.346 75.9379 121.344Z" fill="#F3CE44"/>
<path d="M77.468 141.481C76.1118 141.559 75.6945 142.187 75.8336 143.836C76.0422 146.23 75.8684 148.624 75.8684 151.058C75.1381 150.469 74.2687 150.351 73.3993 150.351C50.5172 150.351 27.6351 150.351 4.78774 150.351C1.17111 150.351 1.17111 150.39 1.20588 146.387C1.20588 146.191 1.20588 145.995 1.20588 145.798C1.20588 142.658 1.24066 142.462 3.95313 142.815C6.3874 143.129 8.64779 142.03 11.0473 142.03C31.5995 142.148 52.1516 142.109 72.7386 142.07C73.5732 142.07 74.5121 142.344 75.2076 141.559C75.9379 141.324 76.703 141.285 77.468 141.481Z" fill="#E67574"/>
<path d="M142.706 141.323C142.428 141.402 142.115 141.48 141.837 141.559C141.698 141.519 141.628 141.441 141.593 141.284C140.794 140.813 139.89 140.97 139.02 140.97C117.981 140.931 96.9421 140.931 75.903 140.931C74.4077 139.203 74.2338 134.728 75.5901 132.727C77.294 131.431 79.2067 132.452 80.9802 132.177C81.9887 132.02 83.0667 132.334 84.0752 132.334C102.297 132.334 120.52 132.334 138.777 132.334C139.472 132.334 140.168 132.334 140.863 132.295C143.263 132.059 143.541 132.216 143.297 134.964C143.158 137.005 143.889 139.282 142.706 141.323Z" fill="#EFB922"/>
<path d="M75.5905 132.687C75.7644 135.435 75.2775 138.183 75.9035 140.931C74.7906 140.538 73.6083 140.538 72.4607 140.538C52.2563 140.538 32.0519 140.538 11.8127 140.538C8.50902 140.538 8.50902 140.538 8.5438 136.809C8.5438 136.142 8.85678 135.435 8.6829 134.886C7.91784 132.53 9.2393 132.687 10.5955 132.687C32.2605 132.687 53.9255 132.687 75.5905 132.687Z" fill="#F4CE48"/>
<path d="M141.594 141.283C141.698 141.363 141.767 141.482 141.837 141.561C141.141 141.601 140.446 141.68 139.75 141.68C119.929 141.68 100.107 141.68 80.3196 141.68C79.6241 141.68 78.9286 141.561 78.2678 141.521C79.3111 141.482 80.3543 141.402 81.3976 141.402C100.594 141.402 119.824 141.402 139.02 141.402C139.855 141.363 140.724 141.283 141.594 141.283Z" fill="#E67574"/>
<path d="M62.4798 58.8917C61.6452 57.4785 61.2279 55.8691 61.1235 54.1812C61.0192 52.2971 60.428 50.5306 59.9412 48.7642C59.7673 48.4894 59.7673 48.1754 59.976 47.9006C61.2626 49.5493 61.5756 51.5512 61.7147 53.6317C61.819 55.2803 62.2016 56.8112 63.1057 58.1066C64.6358 59.559 66.0964 58.5777 67.3483 57.6748C68.1134 57.1253 68.948 56.6935 69.713 56.1439C70.5476 54.9271 71.3823 53.7102 72.2169 52.4933C72.5994 51.9438 72.9124 51.2765 73.5383 51.0409C73.6774 51.2372 73.8165 51.512 73.6774 51.7475C72.0082 55.2803 70.5129 58.9309 66.6876 60.2263C64.914 60.8151 63.2448 60.3048 62.4798 58.8917Z" fill="#F5E7C4"/>
<path d="M62.4801 58.8915C64.8796 60.5009 67.2096 60.3439 69.2613 58.1064C71.1044 56.1044 72.4954 53.7099 73.5039 51.0799C73.5386 51.0014 73.5734 50.8837 73.5386 50.8052C74.1994 50.1378 74.4428 48.7247 75.7643 49.1565C76.112 49.5883 76.0772 50.0986 76.0425 50.6089C76.0077 50.9229 75.8686 51.1584 75.6252 51.3547C75.1731 51.708 74.721 52.022 74.1646 51.865C73.4343 53.2389 72.7388 54.652 72.0433 56.0652C70.4784 59.284 66.9314 61.7963 63.0018 60.5794C62.2019 60.3439 62.1671 59.5981 61.9585 58.97C62.1671 58.9307 62.3062 58.8915 62.4801 58.8915Z" fill="#F0CE55"/>
<path d="M69.6783 56.1434C68.8437 57.3211 68.0439 58.5381 66.6877 59.0092C65.3662 59.441 64.0448 59.4802 63.071 58.1455C64.5664 58.8521 65.7835 57.8707 66.8268 57.0071C67.7657 56.2612 68.6351 55.9864 69.6783 56.1434Z" fill="#ECE8D6"/>
<path d="M59.9415 47.9403C59.9415 48.2152 59.9415 48.4902 59.9067 48.8044C57.4376 46.5657 56.5335 46.7228 54.0992 49.5898C53.9254 49.5506 53.8558 49.4327 53.8558 49.2756C53.7863 48.5687 54.3427 48.2938 54.6904 47.9011C55.0034 47.3119 55.4555 46.8799 56.0814 46.7621C56.6726 46.4872 57.2638 46.4872 57.8202 46.7621C58.6548 46.8799 59.3155 47.4298 59.9415 47.9403Z" fill="#F6E6BE"/>
<path d="M75.5903 49.0785C74.86 49.5498 74.4775 50.571 73.5734 50.7673C73.7472 49.4319 74.5471 48.725 75.5903 48.2537C75.6251 48.4108 75.6251 48.5679 75.6599 48.725C75.7294 48.8821 75.6947 48.9999 75.5903 49.0785Z" fill="#F5E7C4"/>
<path d="M54.0989 49.5887C53.8903 50.3355 53.5773 51.0037 53.0209 51.4753C52.6731 50.5713 53.0557 49.9817 53.6468 49.4708C53.7512 49.1956 53.8903 49.1956 53.9946 49.4708L54.0989 49.5887Z" fill="#F6E6BE"/>
<path d="M54.0293 49.4724C53.9249 49.4724 53.7858 49.4724 53.6815 49.4724C53.7511 48.6865 54.0293 48.1364 54.7595 47.9006C54.4813 48.4115 54.2379 48.9616 54.0293 49.4724Z" fill="#F5E7C4"/>
<path d="M57.8548 46.7253C57.2636 46.7253 56.6724 46.7253 56.116 46.7253C56.7072 46.3294 57.2636 46.2898 57.8548 46.7253Z" fill="#F5E7C4"/>
<path d="M60.6366 55.3601C59.8367 55.4387 59.4194 56.1848 58.7239 56.9702C58.6196 55.1638 60.3931 54.5355 60.2888 53.0039C60.7061 53.75 60.6366 54.5747 60.6366 55.3601Z" fill="#F0CE55"/>
<path d="M54.725 51.0806C54.412 51.8665 54.2729 52.8096 53.334 53.0454C53.5426 52.1416 53.9252 51.4342 54.725 51.0806Z" fill="#F0CE55"/>
<path d="M53.3338 53.0427C53.3338 53.5535 53.4729 54.1036 53.3338 54.5358C53.1947 54.8502 52.8817 54.418 52.6383 54.2215C52.8817 53.8286 53.1252 53.4356 53.3338 53.0427Z" fill="#F0CE55"/>
<path d="M52.2908 55.0059C52.3604 55.8708 51.6649 55.8708 51.2476 56.1853C51.4214 55.5563 51.8387 55.2417 52.2908 55.0059Z" fill="#F0CE55"/>
<path d="M60.9847 57.363C60.637 56.7734 60.637 56.0659 60.637 55.3977C60.9847 55.9873 60.9847 56.6555 60.9847 57.363Z" fill="#F0CE55"/>
<path d="M55.073 49.9033C55.3512 50.454 55.1077 50.7686 54.7252 51.0833C54.8295 50.6899 54.9686 50.2966 55.073 49.9033Z" fill="#F0CE55"/>
<path d="M73.8512 7.51221C73.8512 6.60907 73.7816 5.66667 74.9292 5.58813C74.5814 6.25567 74.2337 6.88394 73.8512 7.51221Z" fill="#CB794D"/>
<path d="M75.2424 5.15716C76.1118 4.40944 76.1814 4.4488 76.5639 6.02295C76.0771 5.86553 76.0423 4.76363 75.2424 5.15716Z" fill="#D17847"/>
<path d="M112.765 103.601C112.765 103.758 112.765 103.875 112.8 104.032C112.452 105.249 111.513 105.563 110.574 105.917C109.948 106.113 109.287 106.113 108.627 106.231C108.348 106.27 108.07 106.348 107.792 106.388C106.853 106.505 105.914 106.505 104.975 106.388C101.219 106.074 98.4723 103.522 95.725 101.01C94.9252 100.264 93.8471 99.3224 94.334 97.7524C94.3688 97.5561 94.3688 97.3991 94.4035 97.2029C95.7598 98.4981 97.1508 99.7542 98.4723 101.089C102.124 104.739 106.331 105.328 110.922 103.993C111.513 103.836 112.139 103.758 112.765 103.601Z" fill="#E4BB41"/>
<path d="M75.6598 98.9692C75.9728 98.9692 76.3205 98.9299 76.6335 98.9299C77.6072 99.401 77.4333 100.422 77.4681 101.285C77.5376 103.64 77.4681 105.996 77.5029 108.351C77.5724 111.334 78.2331 112.08 80.8065 112.08C99.9677 112.08 119.164 112.08 138.325 112.08C140.933 112.08 141.768 110.981 141.524 108.115C141.455 107.487 141.315 106.938 140.863 106.585C139.994 105.917 138.707 105.603 139.542 103.797C139.751 103.326 139.055 103.483 138.777 103.366C137.699 102.895 136.343 102.777 136.412 100.893C138.394 101.207 140.272 102.227 142.359 102.149C143.159 102.11 143.332 102.934 143.332 103.719C143.332 107.173 143.332 110.628 143.332 114.121C143.332 115.26 142.811 115.809 141.837 115.809C141.211 115.809 140.55 115.849 139.924 115.849C120.868 115.849 101.846 115.849 82.7887 115.849C80.4935 115.849 78.1636 116.32 75.8684 115.849C75.2772 113.69 75.625 111.452 75.5902 109.293C75.5207 105.996 75.5554 102.698 75.5554 99.3617C75.625 99.2047 75.625 99.0869 75.6598 98.9692Z" fill="#EFB926"/>
<path d="M136.447 100.893C137.664 102.149 139.124 102.62 140.759 102.502C141.141 102.463 141.906 101.952 142.011 103.091C142.115 104.151 141.698 104.504 140.828 104.465C140.55 104.465 140.237 104.425 140.098 104.818C142.637 105.878 142.637 105.878 142.359 109.371C142.08 113.061 142.08 113.061 138.707 113.061C119.024 113.061 99.3068 113.061 79.624 113.061C76.7376 113.061 76.7029 113.061 76.6333 109.725C76.5638 106.113 76.5985 102.541 76.5985 98.93C76.7029 98.8122 76.842 98.6944 76.9463 98.5374C77.3984 98.1056 78.0243 97.9879 78.3373 97.3598C80.7716 95.672 83.1015 93.9448 86.1965 93.7486C89.2567 93.513 91.2737 95.3972 93.4645 97.1243C93.7427 97.3598 94.0209 97.5953 94.2991 97.7916C97.1507 101.403 100.176 104.7 104.732 105.21C105.775 105.524 106.818 105.524 107.861 105.21C108.105 105.21 108.314 105.21 108.557 105.21C109.079 104.739 109.774 105.289 110.296 104.818C111.096 104.543 111.895 104.308 112.73 104.033C113.53 104.072 114.191 103.719 114.817 103.248C115.651 103.719 116.138 103.248 116.555 102.502C116.66 102.502 116.799 102.502 116.903 102.463C118.468 102.855 119.755 102.384 120.728 100.893C121.076 100.893 121.424 100.893 121.772 100.893C122.154 100.893 122.502 100.814 122.815 100.5C123.163 100.382 123.51 100.225 123.858 100.108C124.554 100.382 124.832 99.715 125.214 99.2832C127.753 98.6552 130.326 98.93 132.865 99.2832C134.117 99.8328 135.264 100.382 136.447 100.893Z" fill="#F0B922"/>
<path d="M132.969 99.3236C130.431 99.8738 127.857 99.0485 125.319 99.3236C127.857 98.1839 130.431 98.3804 132.969 99.3236Z" fill="#F1B82B"/>
<path d="M125.284 99.3225C125.18 100.346 124.728 100.66 123.928 100.149C124.032 99.8734 124.171 99.6373 124.275 99.3619C124.623 99.3225 124.971 99.3225 125.284 99.3225Z" fill="#F1B82B"/>
<path d="M74.1992 51.8256C74.4774 51.3938 74.8252 51.1583 75.2773 51.0405C76.2162 51.1975 76.0771 52.0219 76.0771 52.6892C76.1119 60.6184 76.1119 68.5868 76.0771 76.516C76.0771 77.1441 75.9728 77.6544 75.5902 78.0862C75.2077 77.8114 74.9643 77.4189 74.8947 76.9086C75.1729 76.3983 75.2425 75.8095 75.2425 75.2207C75.1382 69.5289 75.4164 63.8764 75.0338 58.1847C74.8599 56.065 75.5902 53.7883 74.1992 51.8256Z" fill="#FBD043"/>
<path d="M79.7634 47.5112C79.0679 47.5112 78.3376 47.5904 77.7117 47.1548C78.4072 47.1548 79.1027 47.0756 79.7634 47.5112Z" fill="#F1E8C7"/>
<path d="M75.6251 78.1252C75.6251 69.9998 75.6251 61.8743 75.6251 53.7488C75.6251 52.846 75.7294 51.9039 75.3121 51.0795C75.4165 50.9225 75.5208 50.8048 75.6251 50.6478C75.9729 50.0197 75.5208 48.8421 76.6336 48.6851C76.877 48.5281 77.1204 48.4103 77.3639 48.2533C77.8855 47.9 78.5115 48.2925 79.0679 47.9785C81.3978 48.2533 82.2324 49.2346 82.9627 52.6104C83.1018 53.3563 83.5886 54.0236 83.2757 54.8086C81.7108 55.4759 81.0848 55.1619 80.8066 53.474C80.598 52.0609 80.3545 50.4122 78.7897 50.687C77.19 50.9225 77.4682 52.6497 77.503 54.0236C77.6073 60.2256 77.503 66.4277 77.5377 72.6297C77.5377 75.8485 77.9898 76.3588 80.8762 76.3588C90.9958 76.3588 101.115 76.3588 111.235 76.3588C112.348 76.3588 113.426 76.2411 114.504 75.9663C115.999 75.5738 116.521 76.2803 116.312 78.086C102.854 78.086 89.4309 78.086 75.9729 78.086C75.8338 78.1252 75.7294 78.1252 75.6251 78.1252Z" fill="#EDB92A"/>
<path d="M116.277 78.1252C115.895 77.1046 115.338 76.5158 114.26 77.0653C113.46 77.4971 112.556 77.3401 111.687 77.3401C101.498 77.3401 91.3085 77.3401 81.1193 77.3401C76.6333 77.3401 76.6333 77.3401 76.6333 72.3942C76.6333 66.7025 76.6333 61.0108 76.6333 55.319C76.6333 53.7097 76.0074 52.1395 76.8072 50.5301C77.2593 49.6273 77.7114 49.0385 78.6503 49.0778C79.4849 49.117 80.2499 48.96 80.8759 50.0591C81.5019 51.1975 82.3365 51.9433 81.7105 53.5919C81.3627 54.5732 82.8233 53.9844 83.2406 54.534C84.1448 55.4761 85.0489 56.4181 86.4399 56.3004C87.831 56.4181 89.1176 56.1826 90.1609 55.0443C90.7521 54.2985 91.3433 53.6312 92.3517 53.3956C93.3254 53.1601 93.395 51.5115 94.3687 51.0012C94.6121 51.1189 94.8208 51.276 95.0642 51.3937C95.2033 52.5321 96.0727 52.6498 96.803 52.9638C97.0464 53.3956 97.5332 53.4349 97.8462 53.7489C98.6461 53.8667 99.4807 54.0237 100.28 54.1414C101.254 54.5732 102.158 54.2199 103.063 53.7489C103.48 53.3564 104.071 53.3956 104.454 52.9638C107.062 50.5694 108.348 50.5301 111.165 52.375C113.008 53.5919 114.782 55.005 116.973 55.3583C117.772 55.4761 118.016 56.1041 117.981 56.9284C117.842 62.9342 118.398 68.9399 117.668 74.9064C117.633 75.2204 117.633 75.5737 117.738 75.8485C118.19 77.4579 117.668 78.1644 116.277 78.1252Z" fill="#F0B922"/>
<path d="M94.3692 51.0803C94.2301 51.9836 92.9434 52.4156 93.6737 53.7508C94.0215 54.3399 93.1869 54.2221 92.9087 54.3007C92.0741 54.5363 91.0308 54.2221 90.5439 55.4003C90.1962 56.1857 89.605 56.3821 88.8747 56.4606C88.0401 56.5392 87.2055 56.657 86.3709 56.9712C84.8756 56.9319 83.728 56.3036 83.2411 54.6148C82.9977 53.9865 82.8934 53.3188 82.9282 52.6119C85.1538 56.6177 88.214 56.9319 91.1351 53.4367C91.3786 53.1617 91.622 52.8868 91.8654 52.6119C92.9434 52.6512 93.2564 51.041 94.3692 51.0803Z" fill="#EDB92B"/>
<path d="M103.063 53.8279C102.228 54.8516 101.289 54.7728 100.281 54.2216C101.22 54.0641 102.124 53.946 103.063 53.8279Z" fill="#EDB92B"/>
<path d="M96.803 53.0055C95.6902 53.2807 94.9599 52.9269 95.0642 51.4329C95.6554 51.9833 96.2118 52.4944 96.803 53.0055Z" fill="#EDB92B"/>
<path d="M97.8464 53.7907C97.3943 53.7907 96.9075 53.948 96.525 53.7907C96.2468 53.6333 96.6641 53.2793 96.8032 53.0039C97.2552 53.1219 97.603 53.3973 97.8464 53.7907Z" fill="#EDB92B"/>
<path d="M104.453 53.0039C104.314 54.0254 103.793 54.0647 103.062 53.7897C103.41 53.2789 103.862 53.0432 104.453 53.0039Z" fill="#EDB92B"/>
<path d="M76.5986 48.7258C76.2508 49.3933 75.9378 50.0215 75.5901 50.689C75.5901 50.1785 75.5901 49.6289 75.5901 49.1185C75.5901 49.0007 75.6249 48.8829 75.6249 48.8044C75.9378 48.7651 76.2856 48.7258 76.5986 48.7258Z" fill="#F4CE48"/>
<path d="M78.9983 47.9796C78.4767 48.2965 77.8855 48.3361 77.2943 48.2569C77.8507 47.8608 78.4071 47.8608 78.9983 47.9796Z" fill="#F4CE48"/>
<path d="M78.3718 97.3601C78.1284 98.1079 77.6068 98.3833 76.9808 98.5408C77.3286 97.9504 77.8502 97.675 78.3718 97.3601Z" fill="#EFB926"/>
<path d="M120.798 100.932C121.424 102.542 120.52 102.973 119.407 103.131C118.538 103.248 117.738 102.973 116.973 102.502C118.259 101.953 119.546 101.442 120.798 100.932Z" fill="#F1B82B"/>
<path d="M116.625 102.502C116.382 103.721 115.721 103.761 114.886 103.249C115.547 103.249 116.069 102.856 116.625 102.502Z" fill="#F1B82B"/>
<path d="M122.885 100.5C122.641 100.934 122.328 101.21 121.841 100.894C122.189 100.776 122.537 100.658 122.885 100.5Z" fill="#F1B82B"/>
<path d="M75.6251 18.7771C75.7294 17.6382 75.8338 16.4992 75.9033 15.3211C76.2511 14.9283 76.6336 14.5749 76.9814 14.1821C78.4419 14.732 78.5462 15.3211 77.6421 17.5989C77.0509 18.1095 76.4597 18.7771 75.6251 18.7771Z" fill="#D74140"/>
<path d="M76.6335 34.9485C76.39 34.9485 76.1466 34.9485 75.9032 34.9485C75.9032 34.1631 75.9032 33.417 75.8684 32.6316C76.4596 32.1211 77.1899 31.4142 77.7115 32.4745C78.3722 33.7311 77.2594 34.2809 76.6335 34.9485Z" fill="#DF3E41"/>
<path d="M107.931 105.21C106.888 105.765 105.845 105.765 104.802 105.21C105.845 105.21 106.888 105.21 107.931 105.21Z" fill="#E9B939"/>
<path d="M110.366 104.818C109.844 105.214 109.218 105.214 108.627 105.214C109.148 104.818 109.774 104.818 110.366 104.818Z" fill="#E9B939"/>
<path d="M109.809 113.846C119.72 113.846 129.596 113.846 139.507 113.846C139.959 113.846 140.446 113.807 140.898 113.846C141.524 113.925 142.671 113.61 142.532 114.633C142.393 115.655 141.489 114.633 140.933 114.672C140.342 114.711 139.785 114.633 139.194 114.633C120.554 114.633 101.915 114.633 83.2406 114.633C81.7452 114.633 80.2499 114.908 78.7546 114.987C78.1634 115.026 77.1549 115.223 77.1201 114.436C77.1201 113.492 78.1286 113.885 78.685 113.885C86.9615 113.846 95.238 113.846 103.515 113.846C105.636 113.846 107.722 113.846 109.809 113.846Z" fill="#F2B820"/>
<path d="M86.3704 56.9694C87.5179 55.6728 89.361 56.6551 90.5433 55.3977C89.5349 57.2444 87.9352 56.9694 86.3704 56.9694Z" fill="#EDB92A"/>
</svg>
